<?xml version="1.0" encoding="UTF-8"?>
<svg id="Layer_1" xmlns="http://www.w3.org/2000/svg" version="1.1" viewBox="0 0 24 24">
  <!-- Generator: Adobe Illustrator 29.2.0, SVG Export Plug-In . SVG Version: 2.1.0 Build 108)  -->
  <path d="M12.4,1.6l5,8.7h0s5.4,9.4,5.4,9.4H1.1l5.4-9.4h0S12,.9,12,.9l.4.7h0ZM16.6,10.8h0s-4.6-7.9-4.6-7.9l-4.6,7.9h0s-4.6,7.9-4.6,7.9h18.3l-4.6-7.9h0Z"/>
  <path d="M12,15.8c1.1,0,2-.3,2.9-.7.7-.4,1.3-1,1.7-1.6-.4-.7-1-1.2-1.7-1.6-.8-.4-1.8-.7-2.9-.7s-2,.3-2.9.7c-.7.4-1.3,1-1.7,1.6.4.7,1,1.2,1.7,1.6.8.4,1.8.7,2.9.7h0ZM15.3,16c-1,.5-2.1.8-3.3.8s-2.4-.3-3.3-.8c-1-.5-1.8-1.3-2.3-2.3v-.2c-.1,0,0-.2,0-.2.5-.9,1.3-1.7,2.3-2.3,1-.5,2.1-.8,3.3-.8s2.4.3,3.3.8c1,.5,1.8,1.3,2.3,2.3v.2c.1,0,0,.2,0,.2-.5.9-1.3,1.7-2.3,2.3h0Z"/>
  <path class="st0" d="M14,13.8c0,1.1-.9,2-2,2s-2-.9-2-2,.9-2,2-2,.7,0,.9.2c-.4,0-.7.4-.7.8s.4.8.8.8.7-.3.8-.7c0,.2.2.5.2.8Z"/>
  <path d="M7,13.4c1.6-1.4,3.3-2,5-2s3.4.7,5.1,2l-.2.3c-1.6-1.3-3.2-2-4.8-2s-3.2.7-4.8,2l-.2-.3h0Z"/>
  <path d="M12,3.9c2.7,0,5.1,1.1,6.8,2.8,1.7,1.7,2.8,4.1,2.8,6.8s-1.1,5.1-2.8,6.8c-1.7,1.7-4.1,2.8-6.8,2.8s-5.1-1.1-6.8-2.8c-1.7-1.7-2.8-4.1-2.8-6.8s1.1-5.1,2.8-6.8c1.7-1.7,4.1-2.8,6.8-2.8h0ZM18.2,7.3c-1.6-1.6-3.8-2.6-6.2-2.6s-4.6,1-6.2,2.6c-1.6,1.6-2.6,3.8-2.6,6.2s1,4.6,2.6,6.2c1.6,1.6,3.8,2.6,6.2,2.6s4.6-1,6.2-2.6c1.6-1.6,2.6-3.8,2.6-6.2s-1-4.6-2.6-6.2h0Z"/>
</svg>