<?xml version="1.0" encoding="UTF-8"?>
<svg id="Layer_3" data-name="Layer 3" xmlns="http://www.w3.org/2000/svg" viewBox="0 0 24 24">
  <circle cx="7.33" cy="7.42" r="2.16"/>
  <path d="M3.8,14.68l-2.43,3.29c-.24.32,0,.78.39.78h4.86c.4,0,.63-.45.39-.78l-2.43-3.29c-.19-.26-.59-.26-.78,0Z"/>
  <path d="M22.72,15.72c0,.87-.7,1.58-1.58,1.58h-11.09s-5.61-5.29-5.61-5.29c-.01,0-.02-.01-.03-.02-.08-.04-.15-.1-.22-.16l-1.28-1.21c-.33-.31-.5-.73-.5-1.15,0-.39.14-.78.43-1.08.6-.64,1.6-.67,2.23-.07l.8.74.02-.02,5.43,5.1h9.82c.88,0,1.58.7,1.58,1.58Z"/>
</svg>