<?xml version="1.0" encoding="UTF-8"?>
<svg id="Layer_4" data-name="Layer 4" xmlns="http://www.w3.org/2000/svg" viewBox="0 0 24 24">
  <circle cx="4.44" cy="9.35" r="2.16"/>
  <path d="M19.02,16.61l-2.43-3.29c-.24-.32,0-.78.39-.78h4.86c.4,0,.63.45.39.78l-2.43,3.29c-.19.26-.59.26-.78,0Z"/>
  <path d="M18.38,10.87h-.3l.02-.03c.09.02.18.03.28.03Z"/>
  <path d="M22.33,9.29c0,.87-.7,1.58-1.58,1.58h-2.37c-.1,0-.19-.01-.28-.03l-.02.03-3.43,3.73c-.05.06-.13.08-.21.07,0,.01-.02.01-.04.01H3.25c-.87,0-1.58-.71-1.58-1.58s.71-1.58,1.58-1.58h9.94l3.35-3.64s.04-.04.07-.05c.06-.07.15-.12.25-.12h3.89c.88,0,1.58.71,1.58,1.58Z"/>
</svg>