<?xml version="1.0" encoding="UTF-8"?>
<svg id="Layer_1" data-name="Layer 1" xmlns="http://www.w3.org/2000/svg" viewBox="0 0 21.99 6.57">
  <path d="M21.98,4.02c-.06-.02-.12-.02-.18-.04-.08-.02-.44-.04-.46-.06.04-.18.38-.82.35-.96,0-.03-.04-.08-.07-.1-.3-.21-1.5-.42-1.91-.48-1.37-.24-2.77-.37-4.17-.42h-.23c-.06,0-.09-.06-.15-.02-.88-.58-1.78-1.13-2.69-1.64-.01-.01-.01-.04-.01-.04-.16-.17-1.89-.23-2.19-.23-1.12-.03-2.65-.12-3.68.38-.86.39-1.67.93-2.5,1.38-.19.01-.39.08-.58.08-.08,0-.13-.08-.16,0-.75.08-1.51.24-2.27.24-.21,0-.4,0-.6-.04-.02.12.09.18.15.27-.02.1-.13.21-.11.32,0,.03-.02.02-.02.04,0,.03-.03.2-.05.27-.03.09-.07.54-.09.56,0,.01-.09.02-.12.03-.03.02-.05.04-.08.06-.05.03-.11.01-.13.07-.03.09-.04.36-.03.46.02.15.06.11.16.18.11.08.31.2.4.31.04.05.11.11.11.18.52.08.77.07,1.29.19l.03.15c.11.03.23.06.36.08.4.05.53.08.9.07.17,0,.37-.03.51,0,.05.01.11.18.14.24.26.41.7.68,1.19.72,0,.03-.08.03-.1.03-.4.03-.82,0-1.22,0-.85.01-1.73.03-2.58.07-.25.02-.52.01-.77.03-.03.01-.03,0-.03.04.17.01.33.04.49.04.63.03,1.28.02,1.92.03,4.48.09,8.98.07,13.47.04,1.49-.01,2.98-.01,4.46-.07.28-.01.56-.01.85-.04.03-.03,0-.04-.03-.04-.25-.03-.49-.02-.74-.03-.53-.03-1.06-.05-1.58-.06-.41-.01-.82.02-1.21-.03.49-.11.91-.5,1.07-.98l.39-.02v.21h.49c.42,0,.99-.03,1.39-.1.36-.07.08-.17.08-.31,0-.07.15-.41.19-.47.02-.02.05-.04.05-.04l.25-.03s.05-.03.05-.06c.02-.15,0-.31,0-.46ZM10.43.24s.06.01.08.01c.69.02,1.17-.03,1.77.33.27.16.55.35.8.52.49.34.96.7,1.41,1.07,0,.03-.26.08-.29.08-.3.02-.6-.01-.89-.01-.86-.01-1.71-.03-2.57-.04-.48-.01-.95-.01-1.43-.01l-.26-1.95h1.38ZM7.61.34c.4-.11.83-.08,1.24-.1l.06,1.94c-.34-.01-.7-.01-1.05-.02-.26,0-.52-.02-.77-.02-.24,0-.44.01-.64,0-.08-.01-.15-.02-.23-.04-.07-.02-.15-.05-.23-.09t-.02-.01c-.07-.05-.15-.1-.22-.17-.2-.18-.1-.29.07-.43.04-.04.09-.08.14-.13t.01,0c.17-.13.37-.27.58-.41.07-.04.14-.08.21-.13.08-.04.16-.09.23-.13.14-.07.27-.13.4-.18.08-.03.15-.05.22-.07ZM5.45,1.37c.13-.12.38-.28.54-.38.4-.26.83-.49,1.28-.64l-.31.15c-.31.17-.62.35-.9.56-.13.09-.41.29-.49.39-.2.25.06.45.25.57l.24.12c-.19-.02-.39-.14-.54-.25-.17-.14-.26-.34-.07-.52ZM.58,2.7c.27-.04.29.12.34.33.02.08.06.23.01.3-.01.02-.06.05-.08.05h-.37l.1-.68ZM.21,4.11s-.07-.03-.07-.07v-.15s.02-.06.05-.06h3.24l-.11.28H.21ZM5.34,6.26l.26-.05c.43-.11.78-.39.99-.79h.01v-.1h2.51c.18-.01.36-.01.53,0h6.55v.03h.03c.15.38.44.68.81.85.05,0,.1.02.13.04.03.01.04-.01.04.04l-11.86-.02ZM19.21,4.29c-.16-.42-.44-.81-.87-1.01-.44-.2-.95-.19-1.39,0-.44.2-.77.61-1,1.01l.02-.07c-.1-.01-.2,0-.3,0-.53-.02-1.06-.01-1.59-.01-2.11-.02-4.23-.05-6.34-.07h-.9l.03.15c-.12-.33-.31-.63-.6-.84-.54-.37-1.54-.35-2.1-.03-.36.21-.54.48-.71.85-.01.01.01.03-.03.02.16-.58.63-1.01,1.22-1.14.79-.17,1.72-.01,2.1.77.05,0,.11.02.16.02.41.02.86,0,1.27,0,2.62.02,5.23.06,7.85.08.08,0,.12-.13.16-.19.25-.33.54-.58.94-.71.78-.24,1.59.08,1.96.8.06.02.18-.01.22.02.04.03.15.29.16.35h-.26ZM21.62,2.96s.02.04.02.06c0,.07-.14.38-.18.47-.02.05-.16.35-.19.37-.01.02-.02.03-.05.02.14-.29.27-.58.36-.89l.04-.03ZM21.21,3.27v-.19s.09.01.09.01l-.06.09-.03.09ZM20.68,3.23c.07-.09.2-.21.32-.21h.49v.04h-.49c-.1,0-.23.11-.29.19-.12.18-.21.4-.3.59h.76v.04h-.81c.09-.21.19-.46.32-.65ZM20.96,3.58c-.03.07-.07.17-.05.24h-.09l.31-.73h.04c-.07.16-.15.32-.21.49ZM21.17,3.77c-.02.06-.06.05-.11.05.02-.07.05-.06.11-.05ZM21.04,3.69v.13s-.1-.01-.1-.01l.1-.12ZM21.94,4.31l-2.32-.03-.13-.31,1.88.04s.57.02.57.07v.23ZM.9,3.29c.03-.06-.06-.45-.11-.5-.05-.06-.1-.04-.17-.04l-.11.61h.35s.04-.06.04-.07Z"/>
</svg>