<?xml version="1.0" encoding="UTF-8"?>
<svg id="Layer_1" data-name="Layer 1" xmlns="http://www.w3.org/2000/svg" viewBox="0 0 21.99 6.57">
  <path d="M1.06,3.91v.02h.54v-.02h-.54ZM1.06,3.91v.02h.54v-.02h-.54ZM1.06,3.91v.02h.54v-.02h-.54ZM1.06,3.91v.02h.54v-.02h-.54ZM1.06,3.91v.02h.54v-.02h-.54ZM1.06,3.91v.02h.54v-.02h-.54ZM.74,2.83c-.05-.06-.1-.04-.17-.04l-.1.58h.35s.03-.03.03-.04c.03-.06-.06-.45-.11-.5ZM1.06,3.91v.02h.54v-.02h-.54ZM1.06,3.91v.02h.54v-.02h-.54ZM.74,2.83c-.05-.06-.1-.04-.17-.04l-.1.58h.35s.03-.03.03-.04c.03-.06-.06-.45-.11-.5ZM.74,2.83c-.05-.06-.1-.04-.17-.04l-.1.58h.35s.03-.03.03-.04c.03-.06-.06-.45-.11-.5ZM1.06,3.91v.02h.54v-.02h-.54ZM8.81.21c-.42.02-.85-.01-1.26.1-.55.14-1.36.68-1.79,1.05-.17.14-.27.25-.07.43.43.39.81.31,1.34.32.25,0,.51.02.77.02.36.01.72.01,1.07.02l-.06-1.94ZM13.02,1.07c-.25-.17-.53-.36-.8-.52-.6-.36-1.08-.31-1.77-.33-.02,0-.05-.01-.08-.01h-1.38l.26,1.95c.48,0,.95,0,1.43.01.86.01,1.71.03,2.57.04.29,0,.59.03.89.01.03,0,.29-.05.29-.08-.45-.37-.92-.73-1.41-1.07ZM1.06,3.91v.02h.54v-.02h-.54ZM.74,2.83c-.05-.06-.1-.04-.17-.04l-.1.58h.35s.03-.03.03-.04c.03-.06-.06-.45-.11-.5ZM13.02,1.07c-.25-.17-.53-.36-.8-.52-.6-.36-1.08-.31-1.77-.33-.02,0-.05-.01-.08-.01h-1.38l.26,1.95c.48,0,.95,0,1.43.01.86.01,1.71.03,2.57.04.29,0,.59.03.89.01.03,0,.29-.05.29-.08-.45-.37-.92-.73-1.41-1.07ZM8.81.21c-.42.02-.85-.01-1.26.1-.55.14-1.36.68-1.79,1.05-.17.14-.27.25-.07.43.43.39.81.31,1.34.32.25,0,.51.02.77.02.36.01.72.01,1.07.02l-.06-1.94ZM.74,2.83c-.05-.06-.1-.04-.17-.04l-.1.58h.35s.03-.03.03-.04c.03-.06-.06-.45-.11-.5ZM1.06,3.91v.02h.54v-.02h-.54ZM8.81.21c-.42.02-.85-.01-1.26.1-.55.14-1.36.68-1.79,1.05-.17.14-.27.25-.07.43.43.39.81.31,1.34.32.25,0,.51.02.77.02.36.01.72.01,1.07.02l-.06-1.94ZM13.02,1.07c-.25-.17-.53-.36-.8-.52-.6-.36-1.08-.31-1.77-.33-.02,0-.05-.01-.08-.01h-1.38l.26,1.95c.48,0,.95,0,1.43.01.86.01,1.71.03,2.57.04.29,0,.59.03.89.01.03,0,.29-.05.29-.08-.45-.37-.92-.73-1.41-1.07ZM1.06,3.91v.02h.54v-.02h-.54ZM.74,2.83c-.05-.06-.1-.04-.17-.04l-.1.58h.35s.03-.03.03-.04c.03-.06-.06-.45-.11-.5ZM13.02,1.07c-.25-.17-.53-.36-.8-.52-.6-.36-1.08-.31-1.77-.33-.02,0-.05-.01-.08-.01h-1.38l.26,1.95c.48,0,.95,0,1.43.01.86.01,1.71.03,2.57.04.29,0,.59.03.89.01.03,0,.29-.05.29-.08-.45-.37-.92-.73-1.41-1.07ZM8.81.21c-.42.02-.85-.01-1.26.1-.55.14-1.36.68-1.79,1.05-.17.14-.27.25-.07.43.43.39.81.31,1.34.32.25,0,.51.02.77.02.36.01.72.01,1.07.02l-.06-1.94ZM.74,2.83c-.05-.06-.1-.04-.17-.04l-.1.58h.35s.03-.03.03-.04c.03-.06-.06-.45-.11-.5ZM1.06,3.91v.02h.54v-.02h-.54ZM8.81.21c-.42.02-.85-.01-1.26.1-.55.14-1.36.68-1.79,1.05-.17.14-.27.25-.07.43.43.39.81.31,1.34.32.25,0,.51.02.77.02.36.01.72.01,1.07.02l-.06-1.94ZM13.02,1.07c-.25-.17-.53-.36-.8-.52-.6-.36-1.08-.31-1.77-.33-.02,0-.05-.01-.08-.01h-1.38l.26,1.95c.48,0,.95,0,1.43.01.86.01,1.71.03,2.57.04.29,0,.59.03.89.01.03,0,.29-.05.29-.08-.45-.37-.92-.73-1.41-1.07ZM1.06,3.91v.02h.54v-.02h-.54ZM.74,2.83c-.05-.06-.1-.04-.17-.04l-.1.58h.35s.03-.03.03-.04c.03-.06-.06-.45-.11-.5ZM13.02,1.07c-.25-.17-.53-.36-.8-.52-.6-.36-1.08-.31-1.77-.33-.02,0-.05-.01-.08-.01h-1.38l.26,1.95c.48,0,.95,0,1.43.01.86.01,1.71.03,2.57.04.29,0,.59.03.89.01.03,0,.29-.05.29-.08-.45-.37-.92-.73-1.41-1.07ZM8.81.21c-.42.02-.85-.01-1.26.1-.55.14-1.36.68-1.79,1.05-.17.14-.27.25-.07.43.43.39.81.31,1.34.32.25,0,.51.02.77.02.36.01.72.01,1.07.02l-.06-1.94ZM.74,2.83c-.05-.06-.1-.04-.17-.04l-.1.58h.35s.03-.03.03-.04c.03-.06-.06-.45-.11-.5ZM1.06,3.91v.02h.54v-.02h-.54ZM8.81.21c-.42.02-.85-.01-1.26.1-.55.14-1.36.68-1.79,1.05-.17.14-.27.25-.07.43.43.39.81.31,1.34.32.25,0,.51.02.77.02.36.01.72.01,1.07.02l-.06-1.94ZM13.02,1.07c-.25-.17-.53-.36-.8-.52-.6-.36-1.08-.31-1.77-.33-.02,0-.05-.01-.08-.01h-1.38l.26,1.95c.48,0,.95,0,1.43.01.86.01,1.71.03,2.57.04.29,0,.59.03.89.01.03,0,.29-.05.29-.08-.45-.37-.92-.73-1.41-1.07ZM1.06,3.91v.02h.54v-.02h-.54ZM.74,2.83c-.05-.06-.1-.04-.17-.04l-.1.58h.35s.03-.03.03-.04c.03-.06-.06-.45-.11-.5ZM13.02,1.07c-.25-.17-.53-.36-.8-.52-.6-.36-1.08-.31-1.77-.33-.02,0-.05-.01-.08-.01h-1.38l.26,1.95c.48,0,.95,0,1.43.01.86.01,1.71.03,2.57.04.29,0,.59.03.89.01.03,0,.29-.05.29-.08-.45-.37-.92-.73-1.41-1.07ZM8.81.21c-.42.02-.85-.01-1.26.1-.55.14-1.36.68-1.79,1.05-.17.14-.27.25-.07.43.43.39.81.31,1.34.32.25,0,.51.02.77.02.36.01.72.01,1.07.02l-.06-1.94ZM.74,2.83c-.05-.06-.1-.04-.17-.04l-.1.58h.35s.03-.03.03-.04c.03-.06-.06-.45-.11-.5ZM1.06,3.91v.02h.54v-.02h-.54ZM8.81.21c-.42.02-.85-.01-1.26.1-.55.14-1.36.68-1.79,1.05-.17.14-.27.25-.07.43.43.39.81.31,1.34.32.25,0,.51.02.77.02.36.01.72.01,1.07.02l-.06-1.94ZM13.02,1.07c-.25-.17-.53-.36-.8-.52-.6-.36-1.08-.31-1.77-.33-.02,0-.05-.01-.08-.01h-1.38l.26,1.95c.48,0,.95,0,1.43.01.86.01,1.71.03,2.57.04.29,0,.59.03.89.01.03,0,.29-.05.29-.08-.45-.37-.92-.73-1.41-1.07ZM1.06,3.91v.02h.54v-.02h-.54ZM.74,2.83c-.05-.06-.1-.04-.17-.04l-.1.58h.35s.03-.03.03-.04c.03-.06-.06-.45-.11-.5ZM13.02,1.07c-.25-.17-.53-.36-.8-.52-.6-.36-1.08-.31-1.77-.33-.02,0-.05-.01-.08-.01h-1.38l.26,1.95c.48,0,.95,0,1.43.01.86.01,1.71.03,2.57.04.29,0,.59.03.89.01.03,0,.29-.05.29-.08-.45-.37-.92-.73-1.41-1.07ZM8.81.21c-.42.02-.85-.01-1.26.1-.55.14-1.36.68-1.79,1.05-.17.14-.27.25-.07.43.43.39.81.31,1.34.32.25,0,.51.02.77.02.36.01.72.01,1.07.02l-.06-1.94ZM.74,2.83c-.05-.06-.1-.04-.17-.04l-.1.58h.35s.03-.03.03-.04c.03-.06-.06-.45-.11-.5ZM1.06,3.91v.02h.54v-.02h-.54ZM8.81.21c-.42.02-.85-.01-1.26.1-.55.14-1.36.68-1.79,1.05-.17.14-.27.25-.07.43.43.39.81.31,1.34.32.25,0,.51.02.77.02.36.01.72.01,1.07.02l-.06-1.94ZM13.02,1.07c-.25-.17-.53-.36-.8-.52-.6-.36-1.08-.31-1.77-.33-.02,0-.05-.01-.08-.01h-1.38l.26,1.95c.48,0,.95,0,1.43.01.86.01,1.71.03,2.57.04.29,0,.59.03.89.01.03,0,.29-.05.29-.08-.45-.37-.92-.73-1.41-1.07ZM1.06,3.91v.02h.54v-.02h-.54ZM.74,2.83c-.05-.06-.1-.04-.17-.04l-.1.58h.35s.03-.03.03-.04c.03-.06-.06-.45-.11-.5ZM13.02,1.07c-.25-.17-.53-.36-.8-.52-.6-.36-1.08-.31-1.77-.33-.02,0-.05-.01-.08-.01h-1.38l.26,1.95c.48,0,.95,0,1.43.01.86.01,1.71.03,2.57.04.29,0,.59.03.89.01.03,0,.29-.05.29-.08-.45-.37-.92-.73-1.41-1.07ZM8.81.21c-.42.02-.85-.01-1.26.1-.55.14-1.36.68-1.79,1.05-.17.14-.27.25-.07.43.43.39.81.31,1.34.32.25,0,.51.02.77.02.36.01.72.01,1.07.02l-.06-1.94ZM.74,2.83c-.05-.06-.1-.04-.17-.04l-.1.58h.35s.03-.03.03-.04c.03-.06-.06-.45-.11-.5ZM1.06,3.91v.02h.54v-.02h-.54ZM8.81.21c-.42.02-.85-.01-1.26.1-.55.14-1.36.68-1.79,1.05-.17.14-.27.25-.07.43.43.39.81.31,1.34.32.25,0,.51.02.77.02.36.01.72.01,1.07.02l-.06-1.94ZM13.02,1.07c-.25-.17-.53-.36-.8-.52-.6-.36-1.08-.31-1.77-.33-.02,0-.05-.01-.08-.01h-1.38l.26,1.95c.48,0,.95,0,1.43.01.86.01,1.71.03,2.57.04.29,0,.59.03.89.01.03,0,.29-.05.29-.08-.45-.37-.92-.73-1.41-1.07ZM1.06,3.91v.02h.54v-.02h-.54ZM.74,2.83c-.05-.06-.1-.04-.17-.04l-.1.58h.35s.03-.03.03-.04c.03-.06-.06-.45-.11-.5ZM13.02,1.07c-.25-.17-.53-.36-.8-.52-.6-.36-1.08-.31-1.77-.33-.02,0-.05-.01-.08-.01h-1.38l.26,1.95c.48,0,.95,0,1.43.01.86.01,1.71.03,2.57.04.29,0,.59.03.89.01.03,0,.29-.05.29-.08-.45-.37-.92-.73-1.41-1.07ZM8.81.21c-.42.02-.85-.01-1.26.1-.55.14-1.36.68-1.79,1.05-.17.14-.27.25-.07.43.43.39.81.31,1.34.32.25,0,.51.02.77.02.36.01.72.01,1.07.02l-.06-1.94ZM.74,2.83c-.05-.06-.1-.04-.17-.04l-.1.58h.35s.03-.03.03-.04c.03-.06-.06-.45-.11-.5ZM1.06,3.91v.02h.54v-.02h-.54ZM8.81.21c-.42.02-.85-.01-1.26.1-.55.14-1.36.68-1.79,1.05-.17.14-.27.25-.07.43.43.39.81.31,1.34.32.25,0,.51.02.77.02.36.01.72.01,1.07.02l-.06-1.94ZM13.02,1.07c-.25-.17-.53-.36-.8-.52-.6-.36-1.08-.31-1.77-.33-.02,0-.05-.01-.08-.01h-1.38l.26,1.95c.48,0,.95,0,1.43.01.86.01,1.71.03,2.57.04.29,0,.59.03.89.01.03,0,.29-.05.29-.08-.45-.37-.92-.73-1.41-1.07ZM1.06,3.91v.02h.54v-.02h-.54ZM.74,2.83c-.05-.06-.1-.04-.17-.04l-.1.58h.35s.03-.03.03-.04c.03-.06-.06-.45-.11-.5ZM13.02,1.07c-.25-.17-.53-.36-.8-.52-.6-.36-1.08-.31-1.77-.33-.02,0-.05-.01-.08-.01h-1.38l.26,1.95c.48,0,.95,0,1.43.01.86.01,1.71.03,2.57.04.29,0,.59.03.89.01.03,0,.29-.05.29-.08-.45-.37-.92-.73-1.41-1.07ZM7.55.31c-.55.14-1.36.68-1.79,1.05-.17.14-.27.25-.07.43.43.39.81.31,1.34.32.25,0,.51.02.77.02.36.01.72.01,1.07.02l-.06-1.94c-.42.02-.85-.01-1.26.1ZM21.98,4.02c-.06-.02-.12-.02-.18-.04-.08-.02-.44-.04-.46-.06.04-.18.38-.82.35-.96,0-.03-.04-.08-.07-.1-.3-.21-1.5-.42-1.91-.48-1.37-.24-2.77-.37-4.17-.42h-.23c-.06,0-.09-.06-.15-.02-.88-.58-1.78-1.13-2.69-1.64-.01-.01-.01-.04-.01-.04-.16-.17-1.89-.23-2.19-.23-1.12-.03-2.65-.12-3.68.38-.86.39-1.67.93-2.5,1.38-.19.01-.39.08-.58.08-.08,0-.13-.08-.16,0-.75.08-1.51.24-2.27.24-.21,0-.4,0-.6-.04-.02.12.09.18.15.27-.02.1-.13.21-.11.32,0,.03-.02.02-.02.04,0,.03-.03.2-.05.27-.03.09-.07.54-.09.56,0,.01-.09.02-.12.03-.03.02-.05.04-.08.06-.05.03-.11.01-.13.07-.03.09-.04.36-.03.46.02.15.06.11.16.18.11.08.31.2.4.31.04.05.11.11.11.18.52.08.77.07,1.29.19l.03.15c.11.03.23.06.36.08.4.05.53.08.9.07.17,0,.37-.03.51,0,.05.01.11.18.14.24.26.41.7.68,1.19.72,0,.03-.08.03-.1.03-.4.03-.82,0-1.22,0-.85,0-1.73.03-2.58.07-.25.02-.52.01-.77.03-.03.01-.03,0-.03.04.17.01.33.04.49.04.63.03,1.28.02,1.92.03,4.48.09,8.98.07,13.47.04,1.49-.01,2.98-.01,4.46-.07.28-.01.56-.01.85-.04.03-.03,0-.04-.03-.04-.25-.03-.49-.02-.74-.03-.53-.03-1.06-.05-1.58-.06-.41,0-.82.02-1.21-.03.49-.11.91-.5,1.07-.98l.39-.02v.21h.49c.42,0,.99-.03,1.39-.1.36-.07.08-.17.08-.31,0-.07.15-.41.19-.47.02-.02.05-.04.05-.04l.25-.03s.05-.03.05-.06c.02-.15,0-.31,0-.46ZM21.61,2.97s.02.03.02.05c-.01.08-.14.38-.18.47-.03.06-.16.35-.19.38-.02.02-.03.02-.05.02.13-.29.27-.59.36-.89l.04-.03ZM21.2,3.28v-.19h.08l-.05.1-.03.09ZM20.67,3.24c.06-.09.2-.21.32-.21h.48v.04h-.48c-.1,0-.23.11-.29.19-.13.17-.21.39-.3.59h.76v.04h-.81c.09-.22.18-.46.32-.65ZM20.94,3.59c-.02.07-.06.17-.05.24h-.08l.31-.73h.04c-.07.16-.16.32-.22.49ZM21.16,3.78c-.02.06-.06.05-.11.05.02-.07.05-.06.11-.05ZM21.03,3.7v.13s-.1-.01-.1-.01l.1-.12ZM15.58,3.76h.22l-.13.19h-.65s.03-.06.06-.09v.04s.38,0,.38,0l.07-.11h-.41l.02-.03h.44ZM15.17,2.3h-.63l-.05-.11.05-.02v-.02l-.71-.59c.3.18.57.48.91.56.11.03.26.03.36.05.04.01.13.13.07.13ZM12.33.31c.88.52,1.79,1.02,2.66,1.56.02.01.05.03.06.05l-2.87-1.62h.15ZM9.17.16c.67,0,1.38,0,2.04.04.75.05,1.18.39,1.78.8.52.36,1.03.74,1.52,1.15-.1.05-.23.1-.34.11-.36.03-.75-.01-1.12-.01-1.84-.02-3.67-.06-5.5-.09-.38-.01-.78.01-1.15-.01-.19-.02-.36-.08-.52-.18-.19-.11-.48-.31-.26-.54.07-.09.24-.2.33-.28.45-.33,1.11-.77,1.65-.9.46-.1,1.09-.08,1.57-.09ZM5.47,1.34c.13-.12.38-.28.54-.38.4-.26.83-.49,1.28-.65l-.31.15c-.31.18-.62.36-.9.57-.12.09-.4.28-.49.39-.2.25.06.45.25.56l.24.13c-.19-.03-.39-.14-.54-.26-.17-.13-.26-.34-.07-.51ZM.53,2.74c.27-.04.29.12.34.33.02.08.06.23.01.3-.01.02-.06.05-.08.05h-.37l.1-.68ZM.43,3.45h.08v.11h-.09s-.01-.09.01-.11ZM.91,3.6s.03.03.03.05H.28s-.03-.04-.02-.05h.65ZM.13,3.66h.82c0,.06-.02.04-.05.04H.13v-.04ZM.1,3.73h.85v.03H.1v-.03ZM.06,3.79h.89v.05H.06v-.05ZM.96,4.13c-.26-.01-.55.02-.8-.01-.09,0-.13-.03-.11-.18l.02-.06s.41-.02.48-.02c.74.02,1.47.03,2.21.04.16.01.33,0,.49,0v.04h-1.44s.04,0,.04,0h1.37s.02.04.02.04l-.08.2-2.2-.05ZM3.15,4.26l.13-.36h.24c-.06.11-.11.23-.13.36h-.24ZM5.34,6.26l.26-.05c.43-.11.78-.39.99-.79h.01v-.1h2.51c.18-.01.36-.01.53,0h6.55v.03h.03c.15.38.44.68.81.85.05.01.1.02.13.04.03,0,.04-.01.04.04l-11.86-.02ZM19.21,4.29c-.16-.42-.44-.81-.87-1.01-.44-.2-.95-.19-1.39,0-.44.2-.77.61-1,1.01l.02-.07c-.1-.01-.2,0-.3,0-.53-.02-1.06-.01-1.59-.01-2.11-.02-4.23-.05-6.34-.07h-.9l.03.15c-.12-.33-.31-.63-.6-.84-.54-.37-1.54-.35-2.1-.03-.36.21-.54.48-.71.85,0,.01.01.03-.03.02.16-.58.63-1.01,1.22-1.14.79-.17,1.72-.01,2.1.77.05,0,.11.02.16.02.41.02.86,0,1.27,0,2.62.02,5.23.06,7.85.08.08-.01.12-.13.16-.19.25-.33.54-.58.94-.71.78-.24,1.59.08,1.96.8.06.02.18-.01.22.02.04.03.15.29.16.35h-.26ZM21.95,4.29s-.42,0-.49-.01l-1.91-.02-.1-.23h.46s.07.01.1.01c.13.01.27.01.4,0,.01,0,.04.01.04-.01l-1.02-.03-.02-.05,1.97.02c.06,0,.54.03.56.07.03.06.02.18.01.25ZM10.68,2.17c.86.01,1.71.03,2.57.04.29,0,.59.03.89.01.03,0,.29-.05.29-.08-.45-.37-.92-.73-1.41-1.07-.25-.17-.53-.36-.8-.52-.6-.36-1.08-.31-1.77-.33-.02,0-.05-.01-.08-.01h-1.38l.26,1.95c.48,0,.95,0,1.43.01ZM5.69,1.79c.43.39.81.31,1.34.32.25,0,.51.02.77.02.36.01.72.01,1.07.02l-.06-1.94c-.42.02-.85-.01-1.26.1-.55.14-1.36.68-1.79,1.05-.17.14-.27.25-.07.43ZM1.06,3.93h.54v-.02h-.54v.02ZM.85,3.33c.03-.06-.06-.45-.11-.5-.05-.06-.1-.04-.17-.04l-.1.58h.35s.03-.03.03-.04ZM8.81.21c-.42.02-.85-.01-1.26.1-.55.14-1.36.68-1.79,1.05-.17.14-.27.25-.07.43.43.39.81.31,1.34.32.25,0,.51.02.77.02.36.01.72.01,1.07.02l-.06-1.94ZM13.02,1.07c-.25-.17-.53-.36-.8-.52-.6-.36-1.08-.31-1.77-.33-.02,0-.05-.01-.08-.01h-1.38l.26,1.95c.48,0,.95,0,1.43.01.86.01,1.71.03,2.57.04.29,0,.59.03.89.01.03,0,.29-.05.29-.08-.45-.37-.92-.73-1.41-1.07ZM.74,2.83c-.05-.06-.1-.04-.17-.04l-.1.58h.35s.03-.03.03-.04c.03-.06-.06-.45-.11-.5ZM1.06,3.91v.02h.54v-.02h-.54ZM13.02,1.07c-.25-.17-.53-.36-.8-.52-.6-.36-1.08-.31-1.77-.33-.02,0-.05-.01-.08-.01h-1.38l.26,1.95c.48,0,.95,0,1.43.01.86.01,1.71.03,2.57.04.29,0,.59.03.89.01.03,0,.29-.05.29-.08-.45-.37-.92-.73-1.41-1.07ZM8.81.21c-.42.02-.85-.01-1.26.1-.55.14-1.36.68-1.79,1.05-.17.14-.27.25-.07.43.43.39.81.31,1.34.32.25,0,.51.02.77.02.36.01.72.01,1.07.02l-.06-1.94ZM1.06,3.91v.02h.54v-.02h-.54ZM.74,2.83c-.05-.06-.1-.04-.17-.04l-.1.58h.35s.03-.03.03-.04c.03-.06-.06-.45-.11-.5ZM8.81.21c-.42.02-.85-.01-1.26.1-.55.14-1.36.68-1.79,1.05-.17.14-.27.25-.07.43.43.39.81.31,1.34.32.25,0,.51.02.77.02.36.01.72.01,1.07.02l-.06-1.94ZM13.02,1.07c-.25-.17-.53-.36-.8-.52-.6-.36-1.08-.31-1.77-.33-.02,0-.05-.01-.08-.01h-1.38l.26,1.95c.48,0,.95,0,1.43.01.86.01,1.71.03,2.57.04.29,0,.59.03.89.01.03,0,.29-.05.29-.08-.45-.37-.92-.73-1.41-1.07ZM.74,2.83c-.05-.06-.1-.04-.17-.04l-.1.58h.35s.03-.03.03-.04c.03-.06-.06-.45-.11-.5ZM1.06,3.91v.02h.54v-.02h-.54ZM13.02,1.07c-.25-.17-.53-.36-.8-.52-.6-.36-1.08-.31-1.77-.33-.02,0-.05-.01-.08-.01h-1.38l.26,1.95c.48,0,.95,0,1.43.01.86.01,1.71.03,2.57.04.29,0,.59.03.89.01.03,0,.29-.05.29-.08-.45-.37-.92-.73-1.41-1.07ZM8.81.21c-.42.02-.85-.01-1.26.1-.55.14-1.36.68-1.79,1.05-.17.14-.27.25-.07.43.43.39.81.31,1.34.32.25,0,.51.02.77.02.36.01.72.01,1.07.02l-.06-1.94ZM1.06,3.91v.02h.54v-.02h-.54ZM.74,2.83c-.05-.06-.1-.04-.17-.04l-.1.58h.35s.03-.03.03-.04c.03-.06-.06-.45-.11-.5ZM8.81.21c-.42.02-.85-.01-1.26.1-.55.14-1.36.68-1.79,1.05-.17.14-.27.25-.07.43.43.39.81.31,1.34.32.25,0,.51.02.77.02.36.01.72.01,1.07.02l-.06-1.94ZM13.02,1.07c-.25-.17-.53-.36-.8-.52-.6-.36-1.08-.31-1.77-.33-.02,0-.05-.01-.08-.01h-1.38l.26,1.95c.48,0,.95,0,1.43.01.86.01,1.71.03,2.57.04.29,0,.59.03.89.01.03,0,.29-.05.29-.08-.45-.37-.92-.73-1.41-1.07ZM.74,2.83c-.05-.06-.1-.04-.17-.04l-.1.58h.35s.03-.03.03-.04c.03-.06-.06-.45-.11-.5ZM1.06,3.91v.02h.54v-.02h-.54ZM13.02,1.07c-.25-.17-.53-.36-.8-.52-.6-.36-1.08-.31-1.77-.33-.02,0-.05-.01-.08-.01h-1.38l.26,1.95c.48,0,.95,0,1.43.01.86.01,1.71.03,2.57.04.29,0,.59.03.89.01.03,0,.29-.05.29-.08-.45-.37-.92-.73-1.41-1.07ZM8.81.21c-.42.02-.85-.01-1.26.1-.55.14-1.36.68-1.79,1.05-.17.14-.27.25-.07.43.43.39.81.31,1.34.32.25,0,.51.02.77.02.36.01.72.01,1.07.02l-.06-1.94ZM1.06,3.91v.02h.54v-.02h-.54ZM.74,2.83c-.05-.06-.1-.04-.17-.04l-.1.58h.35s.03-.03.03-.04c.03-.06-.06-.45-.11-.5ZM8.81.21c-.42.02-.85-.01-1.26.1-.55.14-1.36.68-1.79,1.05-.17.14-.27.25-.07.43.43.39.81.31,1.34.32.25,0,.51.02.77.02.36.01.72.01,1.07.02l-.06-1.94ZM13.02,1.07c-.25-.17-.53-.36-.8-.52-.6-.36-1.08-.31-1.77-.33-.02,0-.05-.01-.08-.01h-1.38l.26,1.95c.48,0,.95,0,1.43.01.86.01,1.71.03,2.57.04.29,0,.59.03.89.01.03,0,.29-.05.29-.08-.45-.37-.92-.73-1.41-1.07ZM.74,2.83c-.05-.06-.1-.04-.17-.04l-.1.58h.35s.03-.03.03-.04c.03-.06-.06-.45-.11-.5ZM1.06,3.91v.02h.54v-.02h-.54ZM13.02,1.07c-.25-.17-.53-.36-.8-.52-.6-.36-1.08-.31-1.77-.33-.02,0-.05-.01-.08-.01h-1.38l.26,1.95c.48,0,.95,0,1.43.01.86.01,1.71.03,2.57.04.29,0,.59.03.89.01.03,0,.29-.05.29-.08-.45-.37-.92-.73-1.41-1.07ZM8.81.21c-.42.02-.85-.01-1.26.1-.55.14-1.36.68-1.79,1.05-.17.14-.27.25-.07.43.43.39.81.31,1.34.32.25,0,.51.02.77.02.36.01.72.01,1.07.02l-.06-1.94ZM1.06,3.91v.02h.54v-.02h-.54ZM.74,2.83c-.05-.06-.1-.04-.17-.04l-.1.58h.35s.03-.03.03-.04c.03-.06-.06-.45-.11-.5ZM8.81.21c-.42.02-.85-.01-1.26.1-.55.14-1.36.68-1.79,1.05-.17.14-.27.25-.07.43.43.39.81.31,1.34.32.25,0,.51.02.77.02.36.01.72.01,1.07.02l-.06-1.94ZM13.02,1.07c-.25-.17-.53-.36-.8-.52-.6-.36-1.08-.31-1.77-.33-.02,0-.05-.01-.08-.01h-1.38l.26,1.95c.48,0,.95,0,1.43.01.86.01,1.71.03,2.57.04.29,0,.59.03.89.01.03,0,.29-.05.29-.08-.45-.37-.92-.73-1.41-1.07ZM.74,2.83c-.05-.06-.1-.04-.17-.04l-.1.58h.35s.03-.03.03-.04c.03-.06-.06-.45-.11-.5ZM1.06,3.91v.02h.54v-.02h-.54ZM13.02,1.07c-.25-.17-.53-.36-.8-.52-.6-.36-1.08-.31-1.77-.33-.02,0-.05-.01-.08-.01h-1.38l.26,1.95c.48,0,.95,0,1.43.01.86.01,1.71.03,2.57.04.29,0,.59.03.89.01.03,0,.29-.05.29-.08-.45-.37-.92-.73-1.41-1.07ZM8.81.21c-.42.02-.85-.01-1.26.1-.55.14-1.36.68-1.79,1.05-.17.14-.27.25-.07.43.43.39.81.31,1.34.32.25,0,.51.02.77.02.36.01.72.01,1.07.02l-.06-1.94ZM1.06,3.91v.02h.54v-.02h-.54ZM.74,2.83c-.05-.06-.1-.04-.17-.04l-.1.58h.35s.03-.03.03-.04c.03-.06-.06-.45-.11-.5ZM8.81.21c-.42.02-.85-.01-1.26.1-.55.14-1.36.68-1.79,1.05-.17.14-.27.25-.07.43.43.39.81.31,1.34.32.25,0,.51.02.77.02.36.01.72.01,1.07.02l-.06-1.94ZM13.02,1.07c-.25-.17-.53-.36-.8-.52-.6-.36-1.08-.31-1.77-.33-.02,0-.05-.01-.08-.01h-1.38l.26,1.95c.48,0,.95,0,1.43.01.86.01,1.71.03,2.57.04.29,0,.59.03.89.01.03,0,.29-.05.29-.08-.45-.37-.92-.73-1.41-1.07ZM.74,2.83c-.05-.06-.1-.04-.17-.04l-.1.58h.35s.03-.03.03-.04c.03-.06-.06-.45-.11-.5ZM1.06,3.91v.02h.54v-.02h-.54ZM13.02,1.07c-.25-.17-.53-.36-.8-.52-.6-.36-1.08-.31-1.77-.33-.02,0-.05-.01-.08-.01h-1.38l.26,1.95c.48,0,.95,0,1.43.01.86.01,1.71.03,2.57.04.29,0,.59.03.89.01.03,0,.29-.05.29-.08-.45-.37-.92-.73-1.41-1.07ZM8.81.21c-.42.02-.85-.01-1.26.1-.55.14-1.36.68-1.79,1.05-.17.14-.27.25-.07.43.43.39.81.31,1.34.32.25,0,.51.02.77.02.36.01.72.01,1.07.02l-.06-1.94ZM1.06,3.91v.02h.54v-.02h-.54ZM.74,2.83c-.05-.06-.1-.04-.17-.04l-.1.58h.35s.03-.03.03-.04c.03-.06-.06-.45-.11-.5ZM8.81.21c-.42.02-.85-.01-1.26.1-.55.14-1.36.68-1.79,1.05-.17.14-.27.25-.07.43.43.39.81.31,1.34.32.25,0,.51.02.77.02.36.01.72.01,1.07.02l-.06-1.94ZM13.02,1.07c-.25-.17-.53-.36-.8-.52-.6-.36-1.08-.31-1.77-.33-.02,0-.05-.01-.08-.01h-1.38l.26,1.95c.48,0,.95,0,1.43.01.86.01,1.71.03,2.57.04.29,0,.59.03.89.01.03,0,.29-.05.29-.08-.45-.37-.92-.73-1.41-1.07ZM.74,2.83c-.05-.06-.1-.04-.17-.04l-.1.58h.35s.03-.03.03-.04c.03-.06-.06-.45-.11-.5ZM1.06,3.91v.02h.54v-.02h-.54ZM13.02,1.07c-.25-.17-.53-.36-.8-.52-.6-.36-1.08-.31-1.77-.33-.02,0-.05-.01-.08-.01h-1.38l.26,1.95c.48,0,.95,0,1.43.01.86.01,1.71.03,2.57.04.29,0,.59.03.89.01.03,0,.29-.05.29-.08-.45-.37-.92-.73-1.41-1.07ZM8.81.21c-.42.02-.85-.01-1.26.1-.55.14-1.36.68-1.79,1.05-.17.14-.27.25-.07.43.43.39.81.31,1.34.32.25,0,.51.02.77.02.36.01.72.01,1.07.02l-.06-1.94ZM1.06,3.91v.02h.54v-.02h-.54ZM.74,2.83c-.05-.06-.1-.04-.17-.04l-.1.58h.35s.03-.03.03-.04c.03-.06-.06-.45-.11-.5ZM8.81.21c-.42.02-.85-.01-1.26.1-.55.14-1.36.68-1.79,1.05-.17.14-.27.25-.07.43.43.39.81.31,1.34.32.25,0,.51.02.77.02.36.01.72.01,1.07.02l-.06-1.94ZM13.02,1.07c-.25-.17-.53-.36-.8-.52-.6-.36-1.08-.31-1.77-.33-.02,0-.05-.01-.08-.01h-1.38l.26,1.95c.48,0,.95,0,1.43.01.86.01,1.71.03,2.57.04.29,0,.59.03.89.01.03,0,.29-.05.29-.08-.45-.37-.92-.73-1.41-1.07ZM.74,2.83c-.05-.06-.1-.04-.17-.04l-.1.58h.35s.03-.03.03-.04c.03-.06-.06-.45-.11-.5ZM1.06,3.91v.02h.54v-.02h-.54ZM13.02,1.07c-.25-.17-.53-.36-.8-.52-.6-.36-1.08-.31-1.77-.33-.02,0-.05-.01-.08-.01h-1.38l.26,1.95c.48,0,.95,0,1.43.01.86.01,1.71.03,2.57.04.29,0,.59.03.89.01.03,0,.29-.05.29-.08-.45-.37-.92-.73-1.41-1.07ZM8.81.21c-.42.02-.85-.01-1.26.1-.55.14-1.36.68-1.79,1.05-.17.14-.27.25-.07.43.43.39.81.31,1.34.32.25,0,.51.02.77.02.36.01.72.01,1.07.02l-.06-1.94ZM1.06,3.91v.02h.54v-.02h-.54ZM.74,2.83c-.05-.06-.1-.04-.17-.04l-.1.58h.35s.03-.03.03-.04c.03-.06-.06-.45-.11-.5ZM1.06,3.91v.02h.54v-.02h-.54ZM1.06,3.91v.02h.54v-.02h-.54ZM1.06,3.91v.02h.54v-.02h-.54ZM1.06,3.91v.02h.54v-.02h-.54ZM1.06,3.91v.02h.54v-.02h-.54ZM1.06,3.91v.02h.54v-.02h-.54ZM1.06,3.91v.02h.54v-.02h-.54ZM1.06,3.91v.02h.54v-.02h-.54Z"/>
</svg>