<?xml version="1.0" encoding="UTF-8"?>
<svg id="Layer_1" data-name="Layer 1" xmlns="http://www.w3.org/2000/svg" viewBox="0 0 23.22 6.91">
  <path d="M13.15.27s0,.04.02.05c.96.54,1.91,1.12,2.83,1.73.07-.04.1.02.16.02s.18,0,.25,0c1.47.05,2.95.19,4.4.44.43.07,1.7.29,2.01.51.03.02.08.07.08.1.03.15-.33.83-.37,1.02.02.02.4.04.48.06.07.02.13.02.19.04,0,.16.02.33,0,.49,0,.03-.02.06-.05.06l-.26.03s-.04.03-.06.05c-.04.06-.2.42-.2.49,0,.15.3.26-.08.33-.42.07-1.03.1-1.47.11-.07,0-.48,0-.5,0l-.02-.23-.41.02c-.17.51-.61.92-1.13,1.04.42.05.85.02,1.28.03.55.01,1.11.03,1.67.06.26.01.52,0,.78.04.03,0,.06.01.03.04-.3.03-.6.03-.9.04-1.56.06-3.13.06-4.7.07-4.74.04-9.49.06-14.22-.04-.68-.01-1.36,0-2.03-.03-.17,0-.34-.03-.52-.04,0-.04,0-.03.03-.04.27-.03.55-.02.82-.04.9-.04,1.82-.06,2.72-.07.42,0,.87.03,1.29,0,.02,0,.1,0,.1-.03-.51-.04-.98-.33-1.25-.76-.03-.06-.1-.24-.15-.25-.15-.04-.54,0-.72,0-.25-.01-.52-.04-.77-.08-.13-.02-.26-.05-.38-.08l-.03-.16c-.46-.18-.94-.14-1.42-.12,0-.07-.02-.22-.06-.27-.09-.12-.3-.24-.42-.33-.11-.07-.15-.03-.17-.19-.01-.1,0-.39.03-.48.02-.07.09-.05.14-.08.03-.02.05-.04.09-.06.03-.01.12-.02.12-.03.02-.03.07-.5.1-.6.02-.07.1-.2.1-.23s-.03-.06-.03-.09c-.02-.12.1-.23.12-.34-.07-.09-.18-.16-.16-.28.21.04.41.04.63.04.8,0,1.61-.17,2.4-.26.03-.08.08,0,.17,0,.2,0,.41-.07.61-.08.87-.48,1.73-1.05,2.64-1.46C8.05-.1,9.66,0,10.84.03c.32,0,2.15.07,2.31.24ZM17.13,5.65c-.32-.02-.63.09-.95.11-.93.05-1.9-.04-2.83,0-.08,0-.09.09-.18.09-.23,0-.51-.02-.75-.04-1.03-.06-2-.26-3.05-.18-.37.03-.67.19-1.05.16-.12,0-.25-.06-.36-.07-.24-.02-.52,0-.76,0-.07,0-.18-.05-.24,0-.22.42-.59.72-1.05.84l-.27.05,12.52.02c0-.05-.01-.03-.04-.04-.04-.02-.09-.03-.14-.05-.39-.18-.7-.49-.86-.89Z"/>
</svg>