<?xml version="1.0" encoding="UTF-8"?>
<svg id="Layer_1" data-name="Layer 1" xmlns="http://www.w3.org/2000/svg" viewBox="0 0 24 23.89">
  <path d="M8.92.74s-.01,0-.01-.01c0,0,0,0,0,0,.46-.54,1.06-.75,1.78-.65.01,0,.02,0,0,.02-.55.45-1.04.71-1.78.65ZM15.85.76c-.74-.02-1.18-.18-1.75-.66-.01-.01-.01-.02,0-.02.71-.1,1.3.11,1.76.64.01.01,0,.03,0,.04,0,0-.01,0-.02,0ZM7.52,1.42c.24-.68.67-.94,1.32-1.17,0,0,.01,0,.01,0,0,0,0,0,0,0-.26.59-.7.98-1.31,1.18-.01,0-.02,0-.03-.01,0,0,0,0,0-.01ZM15.95.25c.62.17,1.12.53,1.32,1.18,0,.01,0,.02-.01.01-.63-.19-1.03-.6-1.32-1.17,0,0,0-.01,0-.02,0,0,0,0,0,0h0Z"/>
  <path d="M8.23,1.47c-.06,0-.11,0-.14,0-.04,0-.04-.01-.02-.04.41-.38.91-.53,1.48-.43.02,0,.02.01,0,.03-.36.32-.81.47-1.33.45ZM16.72,1.42s.02.04-.01.04c-.56.06-1.05-.08-1.48-.45,0,0,0-.01,0-.02,0,0,0,0,0,0,.57-.1,1.07.04,1.48.42ZM7.37,1.04c-.17.37-.33.71-.62,1-.16.16-.35.33-.58.51-.02.01-.02,0-.02-.01.14-.71.53-1.22,1.19-1.52.03-.01.03,0,.02.02h0ZM18.64,2.57c-.55-.45-.95-.85-1.21-1.53,0,0,0,0,0-.01,0,0,0,0,0,0,.67.3,1.07.81,1.21,1.54,0,.02,0,.02-.01,0ZM6.86,2.21c.37-.42.84-.6,1.41-.53.02,0,.02.01,0,.02-.39.38-.86.55-1.41.52-.01,0-.01,0,0-.01h0ZM16.53,1.68c.52-.07,1.06.1,1.4.52.01.01,0,.02-.01.02-.54.02-1-.15-1.39-.52,0,0,0-.01,0-.02,0,0,0,0,0,0ZM5.28,2.92c.16-.32.38-.48.57-.74,0,0,.02,0,.03,0,0,0,0,.01,0,.02-.06.68-.3,1.29-.72,1.83,0,0-.01,0-.02,0-.1-.39-.05-.75.12-1.1ZM19.65,4.04s0,.02-.02,0c-.42-.54-.67-1.16-.73-1.85,0-.01,0-.02.02-.02,0,0,.01,0,.02,0,.38.45.72.74.75,1.37,0,.15-.03.33-.04.49h0ZM5.91,3.31c.36-.59.79-.83,1.47-.84.02,0,.02,0,0,.02-.43.49-.84.66-1.46.84-.02,0-.03,0-.02-.02ZM17.42,2.49c.65-.03,1.15.26,1.46.82,0,.01,0,.02-.01.01-.58-.11-1.06-.39-1.45-.83,0,0,0,0,0-.01ZM16.61,5.65h1.46s.03,0,.01.03c-.48.52-.96,1.03-1.43,1.54-.04.05-.07.09-.07.16,0,1.06,0,2.12,0,3.18,0,.99-.28,1.38-1.29,1.5-.65.08-1.31.15-1.96.22-.39.04-.64.28-.91.58-.01.01-.02.01-.03,0-.27-.37-.66-.57-1.16-.6-.38-.02-.98-.09-1.82-.2-.53-.07-.93-.23-1.11-.74-.05-.14-.07-.38-.08-.73,0-1.08,0-2.16,0-3.24,0-.02,0-.05-.03-.07l-1.48-1.58s-.01-.03.01-.03h1.47s.02,0,.02-.02v-.86s0-.03-.02-.04c-.59-.36-.22-1.25.47-1.07.2.05.33.19.38.42,0,.02.02.03.04.02l.14-.06s.02-.02.01-.04c-.47-.9,1-1.28,1.07-.34,0,.02.01.02.03.02l.15-.04s.02-.02.02-.03c-.29-.95,1.14-1.13,1.12-.17,0,.02,0,.02.02.02h.15s.03-.03.02-.05c-.19-.92,1.28-.99,1.14,0,0,.02,0,.03.02.03h.15s.03,0,.02-.01c-.04-.96,1.44-.75,1.12.18,0,.02,0,.03.02.03l.15.04s.03,0,.03-.02c.12-.98,1.57-.49,1.08.34,0,.02,0,.03.01.04l.14.07s.03,0,.03-.01c.09-.28.26-.43.52-.45.64-.06.88.76.35,1.08-.01,0-.02.02-.02.04v.88s0,.02.02.02ZM12.75,3.26c0-.19-.16-.35-.35-.35-.19,0-.35.16-.35.35s.16.35.35.35.35-.16.35-.35ZM11.4,3.37c0-.19-.16-.35-.35-.35h0c-.19,0-.35.16-.35.35h0c0,.19.16.35.35.35h0c.19,0,.35-.16.35-.35h0ZM14.1,3.37c0-.19-.16-.35-.35-.35-.19,0-.35.16-.35.35s.16.35.35.35c.19,0,.35-.16.35-.35ZM10.09,3.69c0-.19-.16-.35-.35-.35h0c-.19,0-.35.16-.35.35h0c0,.19.16.35.35.35h0c.19,0,.35-.16.35-.35h0ZM15.42,3.69c0-.19-.16-.35-.35-.35s-.35.16-.35.35.16.35.35.35.35-.16.35-.35ZM14.74,4.63l-.19-.65s-.02-.03-.03-.03l-.38-.1s-.04,0-.05.01l-.47.49s-.02,0-.03,0c0,0,0,0,0,0l-.29-.62s-.02-.02-.03-.02l-.4-.04s-.03,0-.04.02l-.39.57s-.02.02-.03,0l-.39-.57s-.02-.02-.04-.02l-.4.04s-.03.01-.04.03l-.28.61s-.02.02-.04.01c0,0,0,0,0,0l-.47-.49s-.03-.02-.05-.01l-.39.09s-.02.01-.03.02l-.18.63s-.03.04-.05.03c0,0,0,0-.01,0l-.52-.4s-.03-.01-.05,0l-.37.15s-.02.02-.03.03l-.08.68s-.01.02-.02.02c0,0,0,0,0,0l-.44-.24s-.03,0-.03.02v.72s0,.03.03.02c2.4-1.51,5.41-1.5,7.81,0,.02.01.03,0,.03-.01v-.71s-.01-.03-.03-.02l-.43.23s-.03,0-.03-.02l-.08-.67s-.02-.04-.03-.04l-.37-.16s-.03,0-.04,0l-.54.41s-.03,0-.04,0c0,0,0,0,0,0h0ZM8.84,4.21c0-.19-.16-.35-.35-.35h0c-.19,0-.35.16-.35.35h0c0,.19.16.35.35.35h0c.19,0,.35-.16.35-.35h0ZM16.67,4.21c0-.19-.16-.35-.35-.35s-.35.16-.35.35.16.35.35.35.35-.16.35-.35ZM15.77,5.61c-2.12-1.13-4.65-1.14-6.77.02,0,0,0,.01,0,.02,0,0,0,0,.01,0h6.77s0,0,.01,0c0,0,0,0,.01-.01,0,0,0-.01,0-.02-.01,0-.02,0-.02-.01ZM17.34,5.97H7.44s-.02,0,0,.02c.13.14,1.09,1.11,1.09,1.19,0,1.13,0,2.26,0,3.39,0,.66.13,1.08.86,1.16.73.08,1.45.16,2.18.25.27.03.54.16.81.39.01.01.03.01.04,0,.32-.27.61-.36,1.05-.41.53-.06,1.06-.12,1.59-.18.38-.04.6-.08.67-.1.56-.2.56-.75.56-1.27,0-1.08,0-2.15,0-3.23,0-.02,0-.03.02-.04l1.05-1.12s0-.02,0-.03c0,0,0,0-.01,0h0Z"/>
  <path d="M5.12,4.82c.19-.69.68-1.19,1.37-1.4,0,0,0,0,.01,0,0,0,0,0,0,0-.33.66-.76.98-1.36,1.4,0,0,0,0-.01,0,0,0,0,0,0,0ZM18.33,3.42c.66.21,1.16.71,1.35,1.38,0,.02,0,.02-.02.01-.59-.39-1.04-.74-1.34-1.38,0-.01,0-.02.01-.01ZM19.94,3.69c.11.17.22.38.34.64.23.5.14.89,0,1.43,0,.02,0,.02-.02,0-.31-.67-.48-1.33-.35-2.07,0-.03.02-.03.03,0h0ZM4.89,3.7c.02.06.04.14.04.22.03.67-.1,1.28-.4,1.84,0,.02-.01.02-.02,0-.05-.25-.13-.55-.14-.77-.02-.48.25-.88.48-1.29.01-.02.02-.02.03,0h0Z"/>
  <path d="M4.7,6.68c-.07-.76.29-1.44.95-1.8.02,0,.02,0,.02.01-.14.52-.38.99-.7,1.42-.1.13-.17.24-.25.37,0,.02-.02.01-.02,0ZM19.15,4.86c.54.31.89.8.94,1.43,0,.13.02.26.03.38,0,0,0,.01-.01.01,0,0,0,0-.01,0-.2-.3-.44-.6-.59-.89-.16-.29-.28-.6-.38-.92,0,0,0-.02,0-.02,0,0,0,0,.01,0ZM4.15,5.3s0,0,0,0c0,0,0,0,0,0,.34.76.26,1.41.13,2.21,0,.01,0,.01-.01,0-.2-.29-.31-.48-.34-.56-.19-.58.02-1.1.21-1.65h0ZM20.65,5.34c.2.41.29.85.29,1.31,0,.28-.26.62-.4.86-.01.02-.02.02-.02,0-.14-.78-.2-1.42.12-2.16,0-.02.01-.02.02,0h0Z"/>
  <path d="M12.34,6.12v.89s-.01.03-.03.03h-3.71s-.02,0-.02-.01l-.84-.89s-.01-.03,0-.04c0,0,.01,0,.02,0h4.55s.03.02.03.03ZM12.24,6.22s0-.01-.01-.01h-4.25s-.01,0-.01.02c0,0,0,0,0,.01l.65.69s0,0,.01,0h3.59s.01,0,.01-.01v-.69Z"/>
  <rect x="12.47" y="6.09" width="1.76" height="1.3" rx=".26" ry=".26" transform="translate(-.01 .02) rotate(-.1)"/>
  <path d="M9.23,6.54c.12-.06.25-.08.38-.05.01,0,.03,0,.04,0,.03-.02.07-.03.11-.03.02,0,.02.01.02.03-.05.15-.12.29-.29.32-.1.02-.42.07-.47-.07-.02-.06.02-.18.03-.26,0-.02,0-.03-.02-.04l-.06-.02s-.03-.02,0-.04c.06-.07.13-.11.18-.12.15-.02.07.19.06.25,0,.03,0,.04.03.02h0ZM11.21,6.54c.12-.05.25-.07.38-.05.01,0,.03,0,.04,0,.04-.02.08-.03.12-.03.02,0,.02,0,.02.02-.1.34-.32.37-.64.35-.22-.01-.1-.24-.11-.36,0-.02,0-.03-.02-.03l-.05-.02s-.03-.02,0-.04c.06-.06.13-.1.21-.11.03,0,.06.01.07.04,0,0,0,.01,0,.02l-.03.19s0,.03.02.02h0ZM4.59,8.16c-.09-.76.21-1.3.76-1.81.02-.02.03-.01.02.01-.05.24-.1.48-.15.72-.09.43-.38.72-.61,1.08-.01.02-.02.02-.02,0ZM20.22,8.17s0,.02-.02,0c-.26-.41-.51-.65-.63-1.2-.04-.21-.09-.42-.15-.62,0,0,0-.01,0-.01,0,0,0,0,.01,0,.57.51.84,1.05.78,1.83h0ZM14.39,6.56h2.23s.02,0,.02.02c0,0,0,0,0,.01l-.34.35s0,0-.01,0h-1.9s-.02,0-.02-.02h0s0-.35,0-.35c0,0,0-.02.02-.02h0ZM3.97,8.83c-.41-.48-.26-1.2-.28-1.79,0-.02,0-.03.02,0,.5.67.69,1.47.71,2.3,0,0,0,.01-.01.01,0,0,0,0-.01,0-.14-.17-.28-.34-.42-.51h0ZM21.08,7.05s.03-.02.03,0c0,.32,0,.64,0,.97,0,.59-.35.89-.69,1.3-.01.02-.02.01-.02,0-.01-.84.21-1.6.68-2.28h0Z"/>
  <rect x="10.18" y="5.63" width=".62" height="3.68" rx=".28" ry=".28" transform="translate(3.01 17.95) rotate(-89.9)"/>
  <rect x="14.38" y="7.54" width="1.76" height="1.3" rx=".26" ry=".26"/>
  <path d="M12.34,8.8s-.02.04-.04.04h-3.61s-.04-.02-.04-.04v-.85s.02-.04.04-.04h3.61s.04.02.04.04h0v.85ZM12.24,8.03s-.01-.03-.03-.03h-3.43s-.03.01-.03.03v.68s.01.03.03.03h3.43s.03-.01.03-.03v-.68h0ZM19.69,8.18c0-.05.01-.11.01-.18,0-.03,0-.03.02,0,.46.66.49,1.35.1,2.06-.01.02-.02.02-.03,0-.02-.16-.03-.31-.07-.47-.1-.46-.12-.93-.05-1.41h0ZM5.06,8.02s.03-.02.03,0c.06.42.1.86.02,1.29-.04.25-.08.5-.11.75,0,.01,0,.01-.01,0-.39-.7-.37-1.38.08-2.05Z"/>
  <rect x="12.47" y="7.99" width="1.77" height=".38" rx=".17" ry=".17"/>
  <path d="M10.32,8.35l.2-.06s.03,0,.04,0c.09.02.17.02.25-.02.02,0,.04,0,.05.01,0,0,0,.01,0,.02-.08.4-.42.34-.72.33-.02,0-.03,0-.03-.02-.02-.09-.01-.19.02-.28,0-.02,0-.03-.01-.04l-.08-.05s-.01-.02,0-.03c.05-.06.22-.18.27-.07.02.05-.01.13-.02.2,0,.02,0,.03.03.02h0ZM3.8,9.06c.51.47,1,1.09,1.22,1.76,0,.02,0,.03-.02.01-.42-.25-.91-.55-1.12-1.01-.11-.23-.13-.57-.2-.85,0-.01,0-.02.01,0,.04.03.07.07.1.1h0Z"/>
  <rect x="8.66" y="8.96" width="1.76" height="1.31" rx=".28" ry=".28"/>
  <path d="M16.15,9.86s-.01.03-.03.03h-3.62s-.03-.01-.03-.03h0v-.87s.01-.03.03-.03h3.62s.03.01.03.03h0v.87ZM16.06,9.07s0-.01-.01-.01h-3.47s-.01,0-.01.01v.72s0,.01.01.01h3.47s.01,0,.01-.01v-.72ZM19.78,10.81c.28-.74.74-1.3,1.31-1.84,0,0,.02,0,.02,0,0,0,0,.01,0,.02-.07.27-.09.59-.19.81-.22.48-.64.74-1.12,1.04,0,0-.02,0-.03,0,0,0,0-.01,0-.02h0Z"/>
  <path d="M13.14,9.7c-.22-.05.08-.36-.14-.39-.03,0-.03-.02-.01-.03.06-.06.13-.1.21-.12.06-.01.09.01.08.08l-.03.17s0,.02.02.02c0,0,0,0,.01,0,.12-.07.24-.09.37-.05.01,0,.03,0,.04,0,.03-.02.07-.03.12-.03.02,0,.03.02.02.04-.06.12-.11.25-.25.3-.14.05-.29.05-.43.02h0ZM15.14,9.42c.11-.07.23-.09.35-.05.02,0,.03,0,.05,0l.12-.04s.03,0,.03.02c-.07.35-.31.36-.61.35-.24,0-.13-.23-.12-.35,0-.02,0-.03-.03-.03-.03,0-.06-.02-.07-.04-.01-.02,0-.03.01-.04.07-.04.22-.16.27-.03,0,.01,0,.03,0,.04l-.04.14s0,.05.04.03h0Z"/>
  <rect x="10.56" y="9.43" width="1.78" height=".38" rx=".17" ry=".17"/>
  <path d="M5.34,9.64s.01-.02.02,0c.17.51.48.86.47,1.44,0,.25.02.44.05.66,0,0,0,.01,0,.01,0,0,0,0-.01,0-.47-.64-.73-1.3-.52-2.11ZM19.45,9.64s0,0,.01,0c0,0,0,0,0,0,.22.79-.05,1.47-.51,2.1,0,0-.02.01-.03,0,0,0,0-.01,0-.02.05-.21.07-.43.07-.65-.01-.6.27-.94.46-1.44h0Z"/>
  <rect x="12.47" y="10.03" width="3.67" height=".61" rx=".27" ry=".27"/>
  <path d="M10.6,11.73s-.04-.02-.04-.04v-1.27s0-.02.02-.02h1.73s.02,0,.02.02v1.71s0,.02-.02.01c-.53-.35-1.11-.34-1.72-.41h0ZM4.21,10.72c.63.38,1.29.91,1.68,1.58,0,0,0,.02,0,.03,0,0,0,0-.01,0-.5-.17-1.03-.45-1.33-.89-.08-.12-.2-.35-.35-.71,0-.02,0-.02.02-.01h0ZM18.9,12.31c.36-.66,1.06-1.23,1.69-1.59.02-.01.02,0,.01.01-.1.22-.21.43-.32.64-.26.48-.88.81-1.38.96-.02,0-.02,0-.01-.02h0ZM16.14,10.8c.02.56-.31.76-.8.81-.62.07-1.25.14-1.87.21-.4.05-.67.11-.97.32,0,0-.02,0-.02,0,0,0,0,0,0-.01v-1.32s.01-.04.04-.04h3.61s.02,0,.02.02h0ZM15.53,11.47c.32-.04.49-.26.51-.57,0-.01,0-.02-.02-.02h-3.43s-.02,0-.02.02v1.03s.01.03.03.02c.22-.11.41-.18.58-.2.78-.09,1.57-.19,2.35-.29ZM8.73,11.23l-.07-.33s0-.03.02-.03c0,0,0,0,0,0h1.72s.03.01.03.02v.33s-.01.03-.03.03h-1.65s-.02-.01-.02-.02h0Z"/>
  <path d="M14.1,11.21l.54-.06s.02,0,.02.02c-.08.35-.35.37-.65.35-.18-.01-.1-.22-.09-.34,0-.02,0-.03-.02-.03l-.06-.02s-.03-.02-.01-.04c.06-.08.14-.12.24-.12.02,0,.04.01.03.04v.2s-.01.01,0,.01h0ZM7.08,13.09c-.59-.46-1.07-1.02-.95-1.82,0-.01,0-.02.02,0,.23.25.42.53.58.82.16.29.26.65.37.99,0,0,0,.01,0,.01,0,0,0,0,0,0ZM18.68,11.27c.11.76-.37,1.4-.96,1.81-.01,0-.02,0-.01,0,.12-.38.21-.63.26-.76.14-.37.4-.69.69-1.05.01-.01.02-.01.02,0h0ZM8.56,14.13c-.8-.31-1.33-1-1.46-1.84,0,0,0,0,0,0,0,0,0,0,0,0,.11.12.21.23.34.33.41.32.62.57.85,1.03.08.17.17.31.28.46.02.02.01.03-.01.02ZM17.7,12.29s0,0,0,0c-.16.89-.65,1.5-1.47,1.85,0,0-.02,0-.02,0,0,0,0-.01,0-.01.33-.45.44-.92.91-1.3.18-.15.37-.32.57-.53h0ZM17.57,13.55c.61-.63,1.29-.95,2.1-1.2.02,0,.02,0,.01.01-.15.23-.26.38-.32.46-.48.57-1.12.62-1.77.76-.03,0-.04,0-.02-.03h0ZM6.07,13.3c-.41-.15-.73-.57-.96-.93,0,0,0-.01,0-.01,0,0,0,0,0,0,.8.25,1.51.58,2.1,1.2.01.01,0,.02,0,.02-.44-.06-.82-.15-1.14-.27ZM10.29,14.92c-.83-.23-1.58-.85-1.9-1.63-.01-.03,0-.04.02-.02.52.3.99.39,1.35.94.16.25.34.48.54.7,0,0,0,0,0,0,0,0,0,0,0,0h0ZM15.37,13.84c.3-.27.71-.38,1.04-.58,0,0,.02,0,.02,0,0,0,0,.01,0,.02-.39.82-1.03,1.37-1.91,1.63,0,0-.01,0-.02,0,0,0,0,0,0-.01.33-.33.52-.76.85-1.06ZM6.04,13.66c.15.02.3.04.45.06.71.12,1.32.29,1.94.69,0,0,0,.01,0,.02,0,0,0,0-.01,0-.34-.03-.69-.05-1.04-.05-.61,0-.92-.33-1.35-.7-.02-.02-.02-.03.01-.02h0ZM16.42,14.43s-.03.01-.05,0c0,0,0,0,0-.02,0,0,0,0,0,0,.74-.49,1.54-.65,2.4-.76.02,0,.02,0,0,.01-.55.53-.82.69-1.57.71-.26,0-.53.02-.79.05h0Z"/>
  <path d="M13.44,15.29s.03.06.07.04c.77-.25,1.59-.08,2.35.19,0,0,.01.01,0,.02,0,0,0,0-.01,0-.72.15-1.28.55-2,.49-.46-.03-.85-.28-1.16-.6-.01-.01-.01-.02,0-.04.21-.2.41-.41.59-.64.23-.28.43-.46.75-.55.34-.1.61-.2.83-.3.02,0,.02,0,.01.01-.33.59-.81,1.03-1.42,1.32-.02,0-.03.03-.03.05h0Z"/>
  <path d="M12.36,15.94c-.8-.12-1.51.33-2.31.05-.36-.13-.73-.26-1.1-.38-.02,0-.02-.01,0-.02.7-.32,1.64-.45,2.35-.19.02,0,.04,0,.05-.02,0,0,0-.02,0-.02,0-.02-.04-.06-.05-.07-.58-.3-1.03-.73-1.37-1.28,0-.02,0-.02.01-.01.17.06.33.11.5.16.47.13.71.25,1.05.56.24.22.48.44.73.65.93.83,2.06,1.21,3.26,1.28.01,0,.02,0,.02.02,0,0,0,0,0,0-.11.21-.24.28-.49.22-.66-.16-1.29-.38-1.9-.67-.27-.13-.5-.23-.74-.27h0Z"/>
  <path d="M7.9,15.09c-.22-.12-.45-.24-.67-.36,0,0,0,0,0-.01.02-.01.04-.02.07,0,.01,0,.03,0,.05,0,.89-.07,1.7,0,2.53.3.02,0,.02.01,0,.02-.09.01-.19,0-.27.03-.69.2-1.07.36-1.7.02ZM15.06,15.04s-.09,0-.12,0c-.03,0-.03,0,0-.02.67-.25,1.37-.35,2.08-.32.19,0,.38.01.56,0,0,0,.02,0,.02.02,0,0,0,.01,0,.02-.49.25-.93.6-1.48.55-.35-.03-.77-.23-1.04-.25h0ZM9.47,16.89c-.07-.03-.13-.11-.2-.23,0-.01,0-.02.01-.02.83-.07,1.51-.29,2.26-.5.11-.03.24-.03.41-.01.02,0,.02,0,0,.02-.5.18-1.01.35-1.5.54-.03.01-.8.29-.97.22ZM24,20.94v.05c-.06.47-.48.77-.91.86-.02,0-.04,0-.05-.03l-.04-.17s0-.03.01-.04c.22-.14.62-.54.45-.8,0-.01-.02-.02-.04-.03-.59-.2-1.72,1.11-1.77,1.65-.02.31.2.49.51.49.6,0,1.2-.45,1.59-.87.01-.01.02-.01.03,0l.08.23s0,.03,0,.04c-.45.49-1.09.86-1.76.9-.65.04-1.08-.34-.98-1.04,0-.01,0-.02-.02-.02,0,0-.01,0-.02,0-.25.24-1.06,1.04-1.41.8-.22-.15-.15-.53-.04-.72,0,0,0-.02,0-.02,0,0-.01,0-.02,0-.25.23-1.56,1.35-1.69.43-.01-.1.01-.21.02-.32,0-.03,0-.03-.02-.01-.47.42-1.2,1.07-1.81.42-.01-.01-.02-.02-.02-.04,0-.03-.02-.05-.04-.07-.01-.02-.03-.02-.04,0-.57.35-1.58.67-2.04-.01,0-.01-.02-.02-.04,0-.33.19-1.02.56-1.38.34-.3-.19-.23-.47-.17-.78,0-.02,0-.03-.02-.01-.26.23-.97.94-1.34.85-.35-.08-.25-.55-.13-.77,0,0,0-.01,0-.02,0,0-.01,0-.02,0-.24.23-1.29,1.15-1.59.64-.09-.16-.06-.43,0-.61,0,0,0-.02-.01-.02,0,0-.01,0-.02,0-.2.2-.85.8-1.14.78-.44-.03-.36-.48-.23-.77.01-.03,0-.04-.02-.01-.32.29-.64.52-.95.68-.7.37-.89-.31-.6-.82,0,0,0-.02,0-.02,0,0-.01,0-.02,0-.59.45-1.22.85-1.87,1.2-.51.27-.95.45-1.33.54-.83.19-1.69-.01-1.95-.91-.23-.81.23-1.65.74-2.26.01-.02,0-.02-.01-.03-.67-.12-1.82-.39-1.88-1.23v-.06c.06-.6.54-.98,1.04-1.23,1.08-.53,2.36-.74,3.55-.7.02,0,.03,0,.03.02l.07.26s0,.03-.02.03c-1.06-.1-2.84.1-3.62.9-.29.29-.46.68-.26,1.06.23.43.86.63,1.34.68.02,0,.03,0,.04-.01,1.45-1.25,3.09-2.1,4.93-2.62.5-.14,2.35-.64,2.23.46-.09.8-1.16,1.41-1.81,1.69-1.4.61-2.97.85-4.5.86-.02,0-.03,0-.04.02-.51.46-1.44,1.59-1.16,2.32.26.67,1.29.45,1.82.23.82-.35,1.59-.79,2.31-1.32,1.2-.87,2.32-1.84,3.87-1.26,0,0,0,0,0,.01,0,0,0,0,0,0-.59.49-1.09,1.04-1.52,1.67-.04.06-.09.11-.07.19,0,.03.04.06.07.05,0,0,.02,0,.02,0,1.19-.78,2.16-2.36,3.81-2.06.02,0,.03,0,.05-.01l1.28-1.25s.02-.02.04-.02l.74-.02s.02,0,0,.02c-.25.24-3.37,3.2-3,3.34.02,0,.03,0,.05,0,.1-.05.21-.12.32-.21.83-.67,1.33-1.18,1.98-1.82.01-.01.02-.02.04-.02h.73s.02-.01,0,0c-.27.24-1.81,1.69-1.54,2.03.18.22.83-.15,1.02-.27.01,0,.02-.02.02-.04-.01-.39.08-.72.28-1,.5-.71,1.12-1.3,1.88-1.79.22-.14.68-.39.93-.29.28.11.17.51.04.72-.64,1.05-1.52,1.71-2.53,2.36-.01,0-.02.02-.02.03.05.68,1.18.15,1.48,0,.01,0,.02-.02.02-.04,0-.39.09-.72.28-1,.53-.74,1.17-1.35,1.94-1.82.22-.14.73-.42.95-.19.18.19.04.52-.09.71-.64,1.01-1.51,1.66-2.49,2.3-.01,0-.02.02-.02.03-.03.18.03.29.19.33.46.12,1.26-.76,1.65-1.13.86-.79,2.03-1.27,3.18-.85.02,0,.02.02,0,.03-.58.49-1.1,1.06-1.55,1.72-.03.05-.04.1-.03.14,0,.02.02.03.04.03.27-.02,1.19-.95,1.44-1.17.32-.29.57-.49.73-.59.41-.26,1.73-.84,1.83.05h0ZM8.97,18.26c.17-.34-.16-.47-.43-.47-.7,0-1.41.26-2.03.56-1.14.55-2.2,1.24-3.16,2.07-.01.01-.01.02,0,.02,1.38-.04,2.72-.49,3.99-1.06.56-.25,1.35-.56,1.62-1.11h0ZM16.7,19.48c-.82.52-1.89,1.55-2.21,2.48,0,.02,0,.03.02.02.1-.06.2-.14.29-.21.7-.58,1.34-1.22,1.9-1.94.05-.06.24-.33.07-.36-.03,0-.06,0-.08.02h0ZM17.95,20.13c-.5.46-.93.97-1.26,1.56-.05.09-.09.18-.11.27,0,.03,0,.04.03.02.79-.55,1.55-1.36,2.14-2.09.08-.09.14-.2.19-.32.01-.03,0-.07-.04-.09,0,0,0,0,0,0-.16-.04-.81.53-.94.65h0ZM11.84,20.88c-.26-.09-.43-.02-.68.15-.53.35-1,.78-1.4,1.29-.06.08-.1.17-.12.27,0,.03.02.06.05.07,0,0,0,0,.01,0,.5-.02,1.78-1.37,2.15-1.75,0,0,0-.02,0-.03,0,0,0,0,0,0h0ZM8.86,20.88c-.38-.11-.76.16-1.03.39-.38.3-.98.83-1.16,1.28,0,.01,0,.02,0,.03.11.49,2.08-1.54,2.21-1.67.01-.02.01-.03,0-.03h0ZM18.46,22.65c.13-.02.25-.06.35-.14.65-.44,1.25-1.04,1.79-1.61.01-.01,0-.02,0-.03-.21-.06-.4-.04-.57.06-.35.22-1.62,1.19-1.63,1.66,0,.03.02.05.05.06,0,0,0,0,0,0h0Z"/>
  <ellipse cx="14.43" cy="20.04" rx=".41" ry=".34" transform="translate(-9.1 12.56) rotate(-36.6)"/>
</svg>