<?xml version="1.0" encoding="UTF-8"?>
<svg id="Layer_1" data-name="Layer 1" xmlns="http://www.w3.org/2000/svg" viewBox="0 0 24 23.54">
  <path d="M7.33,1.62s-.01,0-.01-.02c0,0,0,0,0,0,.62-.72,1.42-1.01,2.39-.87.02,0,.02,0,0,.02-.74.61-1.39.95-2.39.88ZM16.64,1.64c-1-.03-1.58-.24-2.35-.89-.02-.02-.02-.03,0-.03.95-.13,1.74.15,2.37.86.01.02.01.04,0,.05,0,0-.02.01-.03,0ZM5.45,2.52c.33-.91.9-1.27,1.77-1.57,0,0,.02,0,.02,0,0,0,0,0,0,.01-.35.79-.94,1.32-1.75,1.59-.01,0-.03,0-.04-.02,0,0,0-.01,0-.02ZM16.78.96c.83.22,1.51.71,1.77,1.58,0,.02,0,.02-.02.02-.85-.25-1.38-.8-1.78-1.57,0,0,0-.02,0-.02,0,0,0,0,.01,0h0Z"/>
  <path d="M6.4,2.59c-.08,0-.14,0-.18,0-.05,0-.06-.02-.02-.05.56-.52,1.22-.71,1.98-.58.03,0,.03.02,0,.03-.49.43-1.08.63-1.79.6ZM17.81,2.53s.03.05-.02.06c-.75.09-1.41-.11-1.98-.6,0,0,0-.02,0-.02,0,0,0,0,0,0,.77-.13,1.43.05,1.99.57ZM5.25,2.03c-.22.5-.45.96-.83,1.34-.21.21-.47.44-.77.69-.02.02-.03.01-.03-.02.18-.96.72-1.64,1.6-2.04.03-.02.04,0,.03.03h0ZM20.38,4.07c-.74-.61-1.28-1.15-1.62-2.06,0,0,0-.01,0-.02,0,0,0,0,0,0,.9.4,1.44,1.09,1.62,2.06,0,.02,0,.02-.02.01ZM4.57,3.59c.49-.57,1.12-.81,1.89-.71.03,0,.03.01.01.03-.52.5-1.15.74-1.89.7-.01,0-.02,0,0-.02h0ZM17.55,2.88c.7-.1,1.43.14,1.87.69.02.02.01.03-.01.03-.73.03-1.35-.2-1.87-.7,0,0,0-.02,0-.02,0,0,0,0,0,0ZM2.45,4.54c.22-.43.51-.65.77-.99,0-.01.03-.01.04,0,0,0,.01.01,0,.02-.08.92-.4,1.73-.96,2.46,0,.01-.02.01-.02,0-.13-.52-.07-1.01.16-1.48ZM21.74,6.05s0,.03-.02,0c-.57-.73-.89-1.56-.98-2.49,0-.01,0-.03.02-.03,0,0,.02,0,.02,0,.51.6.97.99,1.01,1.84,0,.2-.04.44-.05.66h0ZM3.29,5.07c.48-.79,1.06-1.11,1.97-1.13.02,0,.03,0,.01.03-.58.66-1.12.88-1.96,1.13-.03,0-.04,0-.02-.03ZM18.74,3.96c.87-.04,1.55.35,1.96,1.11,0,.02,0,.02-.01.02-.78-.15-1.42-.52-1.95-1.11,0,0,0-.01,0-.01ZM17.65,8.21h1.97s.04.01.02.04c-.64.69-1.28,1.38-1.93,2.06-.06.06-.09.12-.09.22,0,1.42,0,2.85,0,4.27,0,1.33-.38,1.85-1.73,2.01-.88.1-1.76.2-2.64.29-.53.05-.86.38-1.23.77-.02.02-.03.02-.05,0-.37-.49-.88-.76-1.55-.81-.51-.03-1.32-.12-2.44-.27-.71-.09-1.25-.31-1.49-1-.07-.19-.1-.52-.1-.98,0-1.45,0-2.9,0-4.35,0-.03-.01-.07-.04-.09l-1.98-2.12s-.02-.04.02-.04h1.97s.03-.01.03-.03v-1.16s0-.04-.03-.05c-.79-.49-.29-1.68.63-1.43.27.07.44.26.51.56,0,.03.03.04.06.03l.19-.08s.03-.03.02-.05c-.63-1.21,1.34-1.72,1.44-.46,0,.02.01.03.04.03l.21-.05s.03-.02.02-.04c-.39-1.27,1.53-1.52,1.51-.23,0,.02.01.03.03.03l.2-.02s.04-.02.03-.04c-.25-1.24,1.72-1.33,1.53,0,0,.02,0,.03.03.04h.2s.03,0,.03-.02c-.05-1.29,1.94-1.01,1.5.24,0,.02,0,.04.03.05l.2.05s.04,0,.04-.03c.16-1.31,2.1-.66,1.44.46-.01.02,0,.04.01.05l.19.09s.04,0,.04-.02c.12-.37.35-.57.69-.6.86-.08,1.18,1.02.47,1.44-.02.01-.03.03-.03.05v1.18s.01.03.03.03ZM12.48,5.01c0-.26-.21-.47-.47-.47-.26,0-.47.21-.47.47s.21.47.47.47.47-.21.47-.47ZM10.66,5.15c0-.26-.21-.47-.47-.47h0c-.26,0-.47.21-.47.47h0c0,.26.21.47.47.47h0c.26,0,.47-.21.47-.47h0ZM14.29,5.15c0-.26-.21-.47-.47-.47-.26,0-.47.21-.47.47s.21.47.47.47c.26,0,.47-.21.47-.47ZM8.9,5.58c0-.26-.21-.47-.47-.47h0c-.26,0-.47.21-.47.47h0c0,.26.21.47.47.47h0c.26,0,.47-.21.47-.47h0ZM16.06,5.58c0-.26-.21-.47-.47-.47s-.47.21-.47.47.21.47.47.47.47-.21.47-.47ZM15.14,6.84l-.26-.87s-.02-.04-.04-.04l-.51-.13s-.05,0-.07.02l-.64.66s-.03.01-.04,0c0,0,0,0,0,0l-.39-.83s-.02-.03-.04-.03l-.54-.05s-.04,0-.06.03l-.52.76s-.03.02-.05,0l-.52-.76s-.03-.03-.05-.03l-.53.05s-.04.02-.06.04l-.38.81s-.03.03-.05.02c0,0,0,0-.01,0l-.63-.66s-.04-.03-.07-.02l-.52.13s-.03.02-.03.03l-.25.85s-.04.05-.07.04c0,0-.01,0-.02,0l-.69-.53s-.04-.02-.07,0l-.5.2s-.03.02-.04.05l-.11.92s-.02.03-.03.02c0,0,0,0,0,0l-.59-.32s-.03,0-.03.02v.96s.01.04.04.02c3.22-2.03,7.26-2.01,10.48,0,.02.01.03,0,.03-.02v-.95s-.02-.04-.05-.03l-.57.31s-.04,0-.04-.02l-.11-.9s-.02-.05-.04-.06l-.49-.21s-.03,0-.05,0l-.72.55s-.04,0-.06,0c0,0,0,0,0-.01h0ZM7.22,6.28c0-.26-.21-.47-.47-.47h0c-.26,0-.47.21-.47.47h0c0,.26.21.47.47.47h0c.26,0,.47-.21.47-.47h0ZM17.73,6.28c0-.26-.21-.47-.47-.47s-.47.21-.47.47.21.47.47.47.47-.21.47-.47ZM16.53,8.15c-2.85-1.52-6.24-1.53-9.09.03,0,0-.01.02,0,.02,0,0,0,0,.01,0h9.09s.01,0,.02,0c0,0,0,0,.01-.01.01-.01,0-.02,0-.02-.02,0-.03,0-.03-.01ZM18.63,8.64H5.34s-.03,0-.01.02c.17.18,1.46,1.49,1.46,1.59,0,1.52,0,3.04,0,4.56,0,.89.17,1.45,1.16,1.56.98.11,1.95.22,2.93.33.36.04.72.21,1.09.52.02.02.04.02.05,0,.42-.36.81-.48,1.41-.55.71-.08,1.43-.16,2.14-.24.51-.06.81-.1.9-.14.75-.27.75-1.01.75-1.7,0-1.44,0-2.89,0-4.34,0-.02,0-.04.02-.06l1.41-1.51s0-.03,0-.04c0,0-.01,0-.02,0h0Z"/>
  <path d="M2.23,7.09c.26-.92.92-1.6,1.83-1.89,0,0,.01,0,.01,0,0,0,0,0,0,0-.44.89-1.03,1.32-1.83,1.88,0,0-.01,0-.02,0,0,0,0,0,0-.01ZM19.96,5.21c.89.29,1.56.95,1.81,1.86,0,.03,0,.03-.02.02-.79-.52-1.39-.99-1.8-1.86,0-.02,0-.03.02-.02ZM22.12,5.58c.14.22.3.51.46.86.31.67.19,1.2,0,1.92,0,.02-.01.02-.02,0-.42-.9-.65-1.79-.48-2.77,0-.04.02-.04.04,0h0ZM1.92,5.59c.03.08.05.18.05.3.04.9-.13,1.72-.53,2.47-.01.02-.02.02-.02,0-.06-.34-.17-.74-.18-1.04-.02-.65.34-1.19.65-1.73.02-.03.03-.02.04,0h0Z"/>
  <path d="M1.67,9.59c-.1-1.02.38-1.93,1.27-2.42.02-.01.03,0,.02.02-.19.7-.51,1.33-.94,1.91-.13.18-.23.33-.34.5-.01.02-.02.02-.02,0ZM21.07,7.16c.72.42,1.2,1.07,1.26,1.92.01.18.03.35.04.52,0,0,0,.02-.02.02,0,0-.01,0-.01,0-.27-.4-.59-.81-.8-1.19-.21-.39-.38-.8-.5-1.23,0-.01,0-.02.01-.02,0,0,.01,0,.01,0ZM.93,7.74s0,0,0,0c0,0,0,0,0,0,.46,1.03.35,1.89.18,2.97,0,.02,0,.02-.02,0-.26-.39-.41-.64-.45-.76-.25-.77.03-1.48.28-2.21h0ZM23.07,7.79c.27.56.39,1.14.39,1.75,0,.37-.35.84-.54,1.15-.02.03-.03.02-.03,0-.18-1.05-.27-1.9.16-2.9,0-.02.02-.02.03,0h0Z"/>
  <path d="M11.92,8.84v1.19s-.02.04-.04.04h-4.98s-.02,0-.03-.02l-1.12-1.19s-.01-.04,0-.06c0,0,.02-.01.03-.01h6.11s.04.02.04.04ZM11.79,8.97s0-.02-.02-.02h-5.7s-.02.01-.02.02c0,0,0,0,0,.01l.88.93s0,0,.01,0h4.82s.02,0,.02-.02v-.93Z"/>
  <rect x="12.1" y="8.8" width="2.37" height="1.75" rx=".26" ry=".26" transform="translate(-.02 .02) rotate(-.1)"/>
  <rect x="6.99" y="10.23" width="4.93" height=".83" rx=".26" ry=".26" transform="translate(-.02 .02) rotate(-.1)"/>
  <path d="M7.75,9.4c.16-.08.34-.1.52-.07.02,0,.04,0,.05-.01.05-.03.1-.04.15-.04.02,0,.03.02.02.04-.07.2-.16.39-.39.43-.14.03-.57.09-.63-.09-.03-.09.03-.24.04-.35,0-.02,0-.04-.03-.05l-.08-.03s-.03-.03-.01-.06c.09-.09.17-.15.24-.16.2-.03.1.25.08.34,0,.04,0,.05.04.03h0ZM10.41,9.4c.16-.07.33-.09.51-.06.02,0,.04,0,.05,0,.05-.03.1-.04.16-.04.02,0,.03.01.02.03-.14.45-.44.5-.86.47-.29-.02-.14-.32-.15-.49,0-.02-.01-.03-.03-.04l-.07-.02s-.04-.03-.01-.05c.08-.08.17-.13.28-.15.04,0,.08.02.09.06,0,0,0,.02,0,.03l-.04.25s0,.04.03.03h0ZM1.51,11.58c-.12-1.02.29-1.75,1.02-2.43.03-.02.03-.02.03.02-.07.32-.14.64-.2.96-.12.58-.51.97-.81,1.45-.01.02-.02.02-.03,0ZM22.51,11.6s-.01.03-.03,0c-.35-.55-.69-.87-.84-1.61-.06-.28-.13-.56-.2-.84,0,0,0-.02.01-.02,0,0,.01,0,.01,0,.76.68,1.13,1.42,1.04,2.46h0ZM14.68,9.44h2.99s.02.01.02.02c0,0,0,.01,0,.01l-.45.47s0,0-.01,0h-2.55s-.02,0-.02-.02h0s0-.48,0-.48c0-.01,0-.02.02-.02h0ZM.68,12.49c-.55-.65-.35-1.61-.38-2.4,0-.03,0-.03.03,0,.67.91.93,1.97.95,3.09,0,0,0,.02-.02.02,0,0-.01,0-.01,0-.18-.23-.37-.46-.57-.68h0ZM23.66,10.09s.04-.03.04.01c0,.42,0,.86,0,1.31.01.79-.47,1.2-.93,1.75-.02.02-.03.02-.03,0-.02-1.12.29-2.14.92-3.06h0Z"/>
  <rect x="14.66" y="10.74" width="2.37" height="1.74" rx=".26" ry=".26"/>
  <path d="M11.92,12.43s-.02.05-.05.05h-4.85s-.05-.02-.05-.05v-1.15s.02-.05.05-.05h4.85s.05.02.05.05h0v1.15ZM11.79,11.41s-.02-.04-.04-.04h-4.61s-.04.02-.04.04v.91s.02.04.04.04h4.61s.04-.02.04-.04v-.91h0ZM21.8,11.61c.01-.07.01-.15.02-.24,0-.04.01-.04.03,0,.61.89.66,1.81.14,2.77-.02.03-.03.03-.03,0-.03-.21-.04-.41-.09-.63-.14-.62-.16-1.25-.06-1.89h0ZM2.14,11.39s.04-.03.04,0c.08.57.13,1.15.03,1.73-.06.33-.11.67-.15,1,0,.02,0,.02-.02,0-.53-.94-.49-1.86.1-2.75Z"/>
  <rect x="12.09" y="11.35" width="2.38" height=".52" rx=".17" ry=".17"/>
  <path d="M9.22,11.83l.27-.08s.04,0,.06,0c.12.03.23.02.33-.03.02-.01.05,0,.06.02,0,0,0,.02,0,.03-.1.53-.56.46-.96.44-.02,0-.04-.01-.04-.03-.03-.13-.02-.25.03-.37,0-.02,0-.04-.02-.06l-.1-.07s-.02-.03,0-.04c.07-.08.29-.24.36-.09.03.07-.02.18-.02.26,0,.03.01.04.04.03h0ZM.45,12.78c.68.63,1.34,1.46,1.63,2.36,0,.03,0,.03-.02.02-.57-.34-1.22-.74-1.5-1.36-.14-.31-.17-.77-.27-1.14,0-.02,0-.02.02-.01.06.04.1.1.14.14h0Z"/>
  <rect x="6.99" y="12.66" width="2.37" height="1.76" rx=".28" ry=".28"/>
  <path d="M17.04,13.86s-.02.04-.04.04h-4.86s-.04-.02-.04-.04h0v-1.16s.02-.04.04-.04h4.86s.04.02.04.04h0v1.16ZM16.91,12.81s0-.02-.02-.02h-4.65s-.02,0-.02.02v.96s0,.02.02.02h4.65s.02,0,.02-.02v-.96ZM21.91,15.14c.37-.99,1-1.75,1.76-2.47,0,0,.02,0,.03,0,0,0,0,.01,0,.02-.09.36-.12.79-.25,1.09-.29.64-.86.99-1.5,1.39-.01,0-.03,0-.04,0,0,0,0-.01,0-.02h0Z"/>
  <path d="M13,13.64c-.29-.06.1-.49-.19-.53-.03,0-.04-.02-.02-.05.08-.08.17-.14.28-.16.08-.02.12.02.1.1l-.04.23s0,.03.02.03c0,0,.01,0,.02,0,.16-.09.33-.12.5-.07.02,0,.04,0,.05,0,.05-.03.1-.04.16-.04.03,0,.04.02.03.05-.08.17-.15.34-.34.4-.19.06-.38.07-.58.03h0ZM15.69,13.27c.15-.09.31-.12.47-.07.02,0,.04,0,.06,0l.16-.05s.04,0,.03.03c-.09.47-.42.48-.82.47-.32,0-.17-.3-.16-.47,0-.03,0-.04-.04-.04-.04,0-.07-.02-.1-.06-.01-.02,0-.04.01-.05.09-.05.3-.21.36-.04,0,.02,0,.04,0,.06l-.05.19c-.01.05,0,.07.05.04h0Z"/>
  <rect x="9.53" y="13.29" width="2.38" height=".52" rx=".17" ry=".17"/>
  <path d="M2.52,13.57s.01-.03.02,0c.23.68.65,1.16.63,1.93,0,.34.02.59.07.89,0,0,0,.02-.01.02,0,0-.01,0-.01,0-.63-.86-.98-1.75-.7-2.83ZM21.46,13.57s0,0,.01,0c0,0,0,0,0,0,.29,1.07-.07,1.97-.69,2.82,0,.01-.02.01-.04,0,0,0-.01-.02,0-.03.07-.29.1-.57.09-.87-.01-.8.37-1.26.62-1.94h0Z"/>
  <rect x="12.1" y="14.09" width="4.93" height=".82" rx=".27" ry=".27"/>
  <path d="M9.59,16.38s-.05-.02-.05-.06v-1.7s.01-.03.03-.03h2.32s.03.01.03.03v2.29s0,.03-.03.02c-.72-.47-1.49-.46-2.3-.55h0ZM1.01,15.01c.84.51,1.74,1.22,2.26,2.13,0,.01,0,.03,0,.03,0,0-.01,0-.02,0-.67-.22-1.38-.6-1.78-1.2-.11-.16-.26-.47-.47-.95-.01-.03,0-.03.02-.02h0ZM20.73,17.15c.48-.88,1.43-1.65,2.28-2.14.02-.01.03,0,.02.02-.13.29-.28.58-.43.86-.35.64-1.18,1.08-1.85,1.28-.02,0-.03,0-.02-.02h0ZM17.02,15.12c.03.75-.41,1.02-1.08,1.09-.84.09-1.67.19-2.51.29-.54.06-.89.15-1.3.43-.01,0-.03,0-.03,0,0,0,0,0,0-.01v-1.77s.02-.05.05-.05h4.85s.03.01.03.03h0ZM16.2,16.03c.42-.05.66-.35.69-.77,0-.02,0-.03-.02-.03h-4.61s-.03.01-.03.03v1.39s.01.04.04.03c.3-.15.56-.24.78-.27,1.05-.12,2.11-.25,3.16-.38ZM7.08,15.7l-.1-.44s0-.04.03-.04c0,0,0,0,0,0h2.31s.03.01.03.03v.45s-.02.03-.03.03h-2.21s-.03-.02-.03-.03h0Z"/>
  <path d="M14.29,15.67l.72-.08s.03,0,.03.03c-.11.47-.46.5-.87.47-.24-.02-.13-.29-.12-.46,0-.02,0-.04-.03-.04l-.08-.03s-.03-.03-.01-.05c.08-.1.19-.16.32-.16.03,0,.05.02.04.05l-.02.27s0,.02.02.02h0ZM4.86,18.19c-.79-.62-1.43-1.37-1.28-2.44,0-.02.01-.02.02,0,.3.34.57.71.78,1.11.21.39.35.88.5,1.32,0,0,0,.01,0,.02,0,0,0,0-.01,0ZM20.44,15.75c.15,1.02-.49,1.88-1.28,2.43-.02.01-.02,0-.02-.01.16-.51.28-.85.34-1.02.19-.5.54-.92.93-1.41.02-.02.02-.02.03,0h0ZM6.84,19.59c-1.07-.41-1.79-1.34-1.96-2.47,0,0,0,0,0,0,0,0,0,0,0,0,.14.16.28.31.46.45.55.43.84.76,1.14,1.38.11.23.23.42.37.62.02.03.01.04-.02.03ZM19.12,17.12s0,0,0,0c-.21,1.19-.87,2.02-1.97,2.48-.01,0-.02,0-.03-.01,0,0,0-.01,0-.02.45-.61.6-1.24,1.23-1.75.24-.2.5-.43.76-.71h0ZM18.95,18.82c.82-.85,1.74-1.28,2.83-1.62.02,0,.03,0,.01.02-.2.31-.35.51-.44.61-.65.77-1.51.83-2.38,1.02-.05,0-.05,0-.02-.04h0ZM3.51,18.48c-.55-.2-.99-.76-1.29-1.25,0,0,0-.01,0-.02,0,0,0,0,.01,0,1.08.33,2.03.78,2.81,1.61.02.02.01.03-.01.02-.59-.09-1.1-.21-1.53-.36ZM9.17,20.65c-1.11-.31-2.12-1.14-2.55-2.19-.02-.04,0-.05.03-.03.7.4,1.34.53,1.81,1.26.22.33.46.65.72.94,0,0,0,0,0,0,0,0,0,0,0,0h0ZM16,19.2c.4-.36.95-.52,1.4-.78.01,0,.03,0,.03,0,0,0,0,.01,0,.02-.53,1.11-1.38,1.84-2.56,2.19,0,0-.02,0-.02-.01,0,0,0-.01,0-.02.44-.44.69-1.01,1.14-1.42ZM3.47,18.96c.21.02.41.05.6.08.96.17,1.77.39,2.61.92,0,0,0,.01,0,.02,0,0,0,0-.02,0-.46-.04-.93-.07-1.4-.07-.81,0-1.24-.44-1.81-.94-.03-.02-.02-.03.01-.03h0ZM17.4,19.99s-.04.02-.07,0c0,0-.01-.01,0-.02,0,0,0,0,0,0,.99-.65,2.06-.88,3.22-1.02.02,0,.03,0,0,.02-.74.71-1.1.93-2.11.96-.35,0-.71.03-1.06.06h0Z"/>
  <path d="M13.4,21.15c0,.06.04.07.09.06,1.04-.33,2.14-.1,3.16.26,0,0,.01.01.01.02,0,0,0,.01-.01.01-.97.2-1.72.73-2.69.66-.62-.05-1.14-.37-1.56-.81-.02-.02-.01-.03,0-.05.28-.27.55-.55.79-.86.3-.38.58-.62,1.01-.74.45-.13.83-.26,1.11-.4.02-.01.03,0,.02.02-.45.79-1.08,1.38-1.9,1.77-.02.01-.04.04-.03.06h0Z"/>
  <path d="M11.95,22.02c-1.08-.16-2.03.44-3.11.06-.49-.17-.98-.34-1.48-.51-.02,0-.02-.02,0-.03.93-.43,2.21-.61,3.16-.26.03.01.06,0,.07-.03,0-.01,0-.02,0-.03,0-.02-.05-.08-.07-.09-.78-.4-1.39-.97-1.84-1.72-.01-.02,0-.03.02-.02.22.08.45.15.67.22.63.18.95.33,1.41.75.32.29.65.58.98.88,1.24,1.12,2.76,1.63,4.38,1.71.01,0,.03.01.02.03,0,0,0,0,0,.01-.15.29-.32.38-.65.3-.88-.21-1.74-.51-2.56-.9-.37-.17-.67-.31-1-.36h0Z"/>
</svg>