<svg width="24" height="24" viewBox="0 0 24 24" fill="none" xmlns="http://www.w3.org/2000/svg">
<path d="M15.3496 14.6998H16.6996V13.7998H15.3496V14.6998ZM16.6996 16.4998H15.3496V15.5998H16.6996V16.4998ZM15.3496 18.2998H16.6996V17.3998H15.3496V18.2998Z" fill="white"/>
<path fill-rule="evenodd" clip-rule="evenodd" d="M9.05 3L16.25 5.7V12H18.05C18.1693 12 18.2838 12.0474 18.3682 12.1318C18.4526 12.2162 18.5 12.3307 18.5 12.45V20.1H18.95C19.0693 20.1 19.1838 20.1474 19.2682 20.2318C19.3526 20.3162 19.4 20.4307 19.4 20.55C19.4 20.6693 19.3526 20.7838 19.2682 20.8682C19.1838 20.9526 19.0693 21 18.95 21H5.45C5.33065 21 5.21619 20.9526 5.1318 20.8682C5.04741 20.7838 5 20.6693 5 20.55C5 20.4307 5.04741 20.3162 5.1318 20.2318C5.21619 20.1474 5.33065 20.1 5.45 20.1H5.9V10.65C5.9 10.5307 5.94741 10.4162 6.0318 10.3318C6.11619 10.2474 6.23065 10.2 6.35 10.2H7.25V7.05H8.15V10.2H9.05V3ZM17.6 20.1H16.7V19.2H15.35V20.1H14.45V12.9H17.6V20.1ZM9.05 11.1H6.8V20.1H9.05V11.1ZM11.3 7.05H10.4V7.95H11.3V7.05ZM12.2 7.05H13.1V7.95H12.2V7.05ZM14.9 7.05H14V7.95H14.9V7.05ZM10.4 8.85H11.3V9.75H10.4V8.85ZM13.1 8.85H12.2V9.75H13.1V8.85ZM14 8.85H14.9V9.75H14V8.85ZM11.3 10.65H10.4V11.55H11.3V10.65ZM12.2 10.65H13.1V11.55H12.2V10.65ZM14.9 10.65H14V11.55H14.9V10.65ZM10.4 12.45H11.3V13.35H10.4V12.45ZM13.1 12.45H12.2V13.35H13.1V12.45ZM11.3 14.25H10.4V15.15H11.3V14.25ZM12.2 14.25H13.1V15.15H12.2V14.25ZM10.4 16.05H11.3V16.95H10.4V16.05ZM13.1 16.05H12.2V16.95H13.1V16.05ZM11.3 17.85H10.4V18.75H11.3V17.85ZM12.2 17.85H13.1V18.75H12.2V17.85Z" fill="white"/>
</svg>
