<svg width="24" height="24" viewBox="0 0 24 24" fill="none" xmlns="http://www.w3.org/2000/svg">
<path d="M9.22706 0.662109L8.81691 0.798328L6.79097 1.42833L6.62691 1.48247L6.54487 1.62019L1.44141 9.68405L0.785156 10.6699L1.03566 11.3804L1.94531 14.4595L2.05519 14.7877L2.41116 14.7598L5.88722 14.5401L6.18895 14.5137L6.27098 14.2397L9.88481 3.01617L9.939 2.87845L9.88486 2.74223L9.36337 1.07231L9.26822 0.786656L9.26672 0.774937H9.26522L9.22716 0.662203L9.22706 0.662109ZM15.0308 0.908203L14.8945 1.18214L14.0449 3.09811L13.9629 3.26217L14.0186 3.45408L17.9604 12.8438L18.0425 13.062L18.2608 13.1177L21.3003 13.7753L21.6562 13.8296V13.8281L21.7925 13.5L23.0522 10.6537L23.1343 10.4619L23.0522 10.27L18.2886 1.34475L18.1788 1.12645L17.9327 1.0987L15.3325 0.934641L15.0308 0.908203ZM8.65284 1.75641L9.00731 2.87841L8.96484 3.01172L4.76512 11.1738L5.87255 12.6314L5.55033 13.6303L4.01377 11.6381L2.01862 11.5986L1.78125 10.7901L1.82812 10.7168L3.98878 10.7608L8.61188 1.76953L8.65284 1.75641ZM15.5508 1.83844L16.3228 1.87941L19.9014 9.06159L21.6123 9.45413L22.1528 10.4722L19.8809 9.97266L19.5424 12.4776L18.6782 12.2974L19.0825 9.42188L15.4483 2.07562L15.5507 1.83844H15.5508ZM11.8272 5.83594L11.5811 6L9.82913 7.17628L9.66506 7.28616L9.63722 7.47802L7.80328 19.5234L7.77684 19.7695L7.9673 19.9336L11.5546 22.9175L11.8549 23.1651L12.1289 22.9175L15.6606 19.7974L15.8525 19.6597L15.8247 19.4414L14.4829 7.66992L14.4564 7.47802L14.2646 7.36823L12.0746 5.9722L11.8271 5.83598L11.8272 5.83594ZM11.8535 6.89203L12.7676 7.45898L13.3418 16.9468L14.7876 18.1143L14.9209 19.2774L14.8799 19.314L12.977 17.7715L9.45408 20.0303L8.74655 19.4458L12.4702 17.0699L11.8535 6.89212V6.89203ZM16.9365 13.8457L16.585 15.6065L18.0952 20.0127L19.67 20.7143L20.5811 18.8686L18.3267 14.877L16.9365 13.8457ZM5.0918 16.4297L3.70022 16.9365L1.5 20.2252L1.62305 21.8467L3.08498 21.249L5.28516 17.959L5.0918 16.4297Z" fill="white"/>
</svg>
