<?xml version="1.0" encoding="UTF-8"?>
<svg id="Layer_1" data-name="Layer 1" xmlns="http://www.w3.org/2000/svg" viewBox="0 0 24 5.87">
  <g>
    <g>
      <polygon points="14.07 5.02 14.08 5.01 14.09 5.01 14.09 5.02 14.09 5.02 14.08 5.02 14.07 5.02"/>
      <polygon points="14.12 5.01 14.13 5.01 14.14 5.01 14.13 5.02 14.12 5.02 14.12 5.01"/>
      <polygon points="14.22 5.01 14.22 5.02 14.24 5.02 14.24 5.01 14.23 5.01 14.22 5.01"/>
      <polygon points="14.22 4.93 14.22 4.91 14.21 4.9 14.21 4.89 14.22 4.89 14.22 4.9 14.23 4.91 14.23 4.93 14.22 4.93"/>
      <rect x="14.5" y="4.89" width="0" height=".02"/>
      <polygon points="14.23 5.03 14.24 5.05 14.25 5.05 14.25 5.03 14.23 5.03"/>
      <polygon points="14.26 5.01 14.28 5.01 14.28 5.02 14.27 5.02 14.26 5.01 14.26 5.01"/>
      <polygon points="14.49 5.01 14.5 5.01 14.5 5.01 14.5 5.02 14.49 5.03 14.49 5.03 14.49 5.01"/>
      <polygon points="14.5 4.97 14.5 4.96 14.5 4.95 14.51 4.95 14.51 4.97 14.5 4.97"/>
      <rect x="14.79" y="4.9" width="0" height="0"/>
      <polygon points="14.81 4.89 14.83 4.89 14.84 4.9 14.83 4.92 14.83 4.92 14.81 4.92 14.81 4.89"/>
      <polygon points="14.72 5.02 14.72 5.01 14.72 5.01 14.73 5.01 14.73 5.02 14.72 5.02"/>
      <polygon points="14.75 5.02 14.75 5.01 14.76 5.01 14.77 5.01 14.76 5.02 14.75 5.02"/>
      <rect x="14.77" y="5.03" width="0" height="0"/>
      <rect x="14.81" y="5.04" width=".01" height=".01" transform="translate(-.09 9.83) rotate(-36.61)"/>
      <polygon points="14.86 5.01 14.87 5.01 14.88 5.02 14.88 5.03 14.87 5.04 14.86 5.03 14.86 5.01"/>
      <polygon points="14.9 5.01 14.91 5.01 14.92 5.01 14.93 5.01 14.94 5.01 14.95 5.01 14.97 5.01 14.98 5.01 14.98 5.02 14.97 5.03 14.96 5.03 14.96 5.02 14.94 5.02 14.92 5.05 14.91 5.03 14.9 5.03 14.9 5.01"/>
      <polygon points="15.01 5.01 15.01 5.01 15.02 5.01 15.02 5.02 15.01 5.02 15.01 5.01"/>
      <polygon points="15.1 4.89 15.13 4.89 15.13 4.9 15.13 4.91 15.12 4.91 15.12 4.92 15.11 4.92 15.1 4.92 15.1 4.91 15.11 4.9 15.1 4.9 15.1 4.89"/>
      <rect x="14.98" y="4.9" width="0" height=".01" transform="translate(2.45 14.48) rotate(-55.49)"/>
      <polygon points="15.08 4.91 15.08 4.9 15.09 4.9 15.09 4.91 15.08 4.91 15.08 4.91"/>
      <rect x="15.16" y="4.92" width=".01" height=".02" transform="translate(-.63 7.1) rotate(-25.82)"/>
      <polygon points="15.18 4.93 15.18 4.93 15.19 4.92 15.2 4.92 15.2 4.93 15.2 4.94 15.18 4.94 15.18 4.93"/>
      <rect x="15.13" y="4.96" width=".01" height="0"/>
      <polygon points="15.17 4.95 15.18 4.95 15.2 4.96 15.21 4.97 15.18 4.97 15.17 4.96 15.17 4.95"/>
      <polygon points="15.28 5.01 15.29 5.01 15.3 5.01 15.3 5.02 15.29 5.02 15.28 5.03 15.28 5.01"/>
      <polygon points="15.1 5.01 15.12 5.01 15.12 5.03 15.11 5.02 15.1 5.02 15.1 5.01"/>
      <polygon points="15.14 5.01 15.16 5.01 15.17 5.03 15.17 5.04 15.16 5.04 15.16 5.02 15.14 5.02 15.14 5.01"/>
      <polygon points="15.35 5.01 15.35 5.01 15.35 5.02 15.36 5.02 15.35 5.01"/>
    </g>
    <path d="M16.43,4.78h-.26l-.26.26h-.08s0,0,0,0h0s-.07,0-.07,0h0s0,0,0,0h-.03s0,0,0,0h-.02s0,0,0,0h-.02,0v-.02h0v-.02h-.02v.02s0,.02,0,.02h0s0,0,0,0h-.03s0,0,0,0h-.14,0v-.02h0v.02h0s-.51,0-.51,0h0s0,0,0,0v.02h-.25s0,0,0,0h0s0,0,0,0h-.02s.02,0,.02,0h0s.02,0,.02,0h0s0-.02,0-.02h0s.1-.13.1-.13v-.02s.02,0,.02,0l.1-.13s.02-.05.03-.1c0,0,.01-.14-.12-.2,0,0-.06-.03-.11-.03,0,0-.07,0-.15.08h0s0,.02,0,.02h0s-.02.02-.02.02c0,0-.03.04-.02.07v.04s.11,0,.11,0c0,0,.01-.11.12-.1,0,0,.08,0,.09.11,0,0,0,.03-.02.06l-.18.23h.02,0s-.02,0-.02,0l-.09.11h0s.02,0,.02,0h0s0,0,0,0h0s-.02,0-.02,0h0s0,.1,0,.1h.42v-.11h.07s0,0,0,0h.03s0,0,0,0h0s.41,0,.41,0h0s0,0,0,0h.04s0,0,0,0h0s.31,0,.31,0h0s.08,0,.08,0h0s.06-.07.06-.07h0s0,0,0,0l.06-.06h0s0,0,0,0l.12-.12h0s0,.02,0,.02h0s0-.02,0-.02h.23s0,.03,0,.03v.02s0-.09,0-.09v.03Z"/>
    <g>
      <polygon points="15.46 4.91 15.46 4.9 15.47 4.9 15.47 4.91 15.47 4.92 15.47 4.92 15.46 4.92 15.46 4.91"/>
      <polygon points="15.56 5.02 15.57 5.01 15.57 5.01 15.6 5.01 15.61 5.01 15.62 5.01 15.61 5.02 15.57 5.02 15.56 5.03 15.56 5.03 15.56 5.02"/>
      <polygon points="15.73 5.02 15.74 5.01 15.76 5.01 15.78 5.01 15.81 5.01 15.81 5.01 15.82 5.01 15.83 5.01 15.83 5.02 15.73 5.02 15.73 5.02"/>
      <polygon points="15.2 5.04 15.21 5.02 15.22 5.03 15.22 5.04 15.2 5.04"/>
      <rect x="15.87" y="5.02" width="0" height="0" transform="translate(.78 12.05) rotate(-42.51)"/>
      <polygon points="15.99 5.01 16.01 5.01 16.02 5.01 16.02 5.01 16.01 5.02 16 5.02 15.99 5.01 15.99 5.01"/>
      <polygon points="16.2 4.82 16.2 4.83 16.2 4.83 16.2 4.84 16.21 4.83 16.21 4.82 16.2 4.82"/>
      <polygon points="16.11 4.91 16.1 4.92 16.1 4.92 16.11 4.93 16.11 4.93 16.11 4.92 16.11 4.91"/>
      <polygon points="16.16 4.9 16.17 4.9 16.17 4.89 16.21 4.89 16.22 4.9 16.21 4.91 16.21 4.91 16.21 4.92 16.21 4.93 16.2 4.93 16.2 4.92 16.19 4.92 16.17 4.91 16.17 4.91 16.16 4.91 16.16 4.9"/>
      <polygon points="16.22 4.94 16.21 4.95 16.21 4.96 16.22 4.96 16.22 4.96 16.22 4.95 16.22 4.94"/>
      <polygon points="16.25 4.92 16.25 4.92 16.25 4.93 16.25 4.92 16.25 4.92"/>
      <polygon points="16.27 4.92 16.28 4.91 16.29 4.91 16.29 4.92 16.29 4.92 16.29 4.92 16.3 4.92 16.31 4.92 16.34 4.92 16.35 4.92 16.35 4.93 16.34 4.93 16.33 4.92 16.32 4.93 16.31 4.93 16.27 4.93 16.27 4.92 16.28 4.92 16.27 4.92"/>
      <rect x="16.36" y="4.94" width="0" height="0" transform="translate(1.04 12.53) rotate(-43.15)"/>
      <polygon points="16.39 4.94 16.4 4.93 16.4 4.92 16.4 4.93 16.41 4.94 16.41 4.95 16.4 4.96 16.39 4.95 16.39 4.94"/>
      <polygon points="16.41 4.96 16.4 4.97 16.41 4.98 16.41 4.97 16.41 4.96"/>
      <polygon points="16.25 5 16.26 4.99 16.27 4.98 16.29 4.99 16.31 4.99 16.33 4.99 16.38 4.98 16.39 4.99 16.39 4.99 16.39 5 16.39 5 16.35 5 16.35 4.99 16.34 4.99 16.34 4.99 16.34 5 16.33 5.01 16.3 5.01 16.29 5.01 16.27 5.01 16.26 5 16.25 5"/>
    </g>
    <g>
      <polygon points="16.54 4.91 16.55 4.92 16.56 4.93 16.57 4.92 16.58 4.92 16.59 4.92 16.6 4.92 16.61 4.92 16.61 4.92 16.62 4.91 16.63 4.92 16.63 4.92 16.62 4.93 16.62 4.94 16.63 4.94 16.63 4.95 16.62 4.96 16.61 4.95 16.61 4.95 16.6 4.95 16.6 4.94 16.61 4.94 16.61 4.93 16.58 4.93 16.58 4.93 16.57 4.93 16.57 4.93 16.57 4.93 16.57 4.94 16.56 4.95 16.56 4.95 16.55 4.94 16.55 4.93 16.54 4.93 16.54 4.91"/>
      <polygon points="16.62 4.86 16.63 4.86 16.63 4.87 16.63 4.87 16.62 4.86 16.62 4.86"/>
      <polygon points="16.68 4.83 16.68 4.83 16.68 4.85 16.68 4.85 16.68 4.84 16.68 4.83"/>
      <polygon points="16.68 4.81 16.68 4.8 16.68 4.81 16.68 4.82 16.68 4.82 16.68 4.81"/>
      <polygon points="16.65 4.93 16.65 4.94 16.66 4.95 16.66 4.96 16.67 4.95 16.68 4.94 16.67 4.94 16.67 4.93 16.65 4.93"/>
      <polygon points="16.69 4.92 16.7 4.92 16.7 4.92 16.7 4.93 16.69 4.93 16.69 4.92"/>
      <polygon points="16.73 4.92 16.73 4.92 16.73 4.92 16.73 4.93 16.73 4.93 16.73 4.92"/>
      <polygon points="16.56 4.96 16.58 4.96 16.58 4.95 16.58 4.96 16.6 4.96 16.6 4.97 16.56 4.97 16.56 4.96"/>
    </g>
    <path d="M16.65,4.42c-.11,0-.21.09-.21.2v.37s0,.07.03.09h.03s-.03,0-.03,0c0,0,0,.01.01.02h.01s0,0,0,0h.02s0,0,0,0h0s0,0,0,0h0s0,0,0,0h.02s0,0,0,0h0s0,.02,0,.02h0s-.02,0-.02,0h0s0,.01,0,.01c.04.03.08.04.13.04.11,0,.21-.09.21-.2v-.37c0-.11-.1-.2-.21-.2ZM16.74,4.79h0v.18s0,.04-.02.06v.02s-.02,0-.02,0c-.02.01-.04.02-.06.02-.01,0-.03,0-.04,0h0s-.02.02-.02.02h0s0,.01,0,.01v-.02s.02,0,.02,0h0s0,0,0,0h0s-.05-.05-.05-.09v-.17h0v-.18c0-.05.05-.09.1-.09s.1.04.1.09v.17Z"/>
    <polygon points="16.84 4.77 16.88 4.77 16.9 4.78 17.19 4.78 17.2 4.77 17.21 4.78 17.53 4.78 17.55 4.77 17.7 4.77 17.71 4.78 17.71 4.77 17.73 4.78 17.73 4.79 17.73 4.8 17.11 4.8 17.1 4.82 17.09 4.83 17.08 4.83 17.07 4.83 17.08 4.82 17.08 4.8 17.07 4.8 16.97 4.79 16.97 4.8 16.88 4.8 16.87 4.8 16.87 4.8 16.84 4.8 16.84 4.77"/>
    <path d="M17.81,4.88c-.05,0-.09-.04-.09-.09s.04-.09.09-.09.09.04.09.09-.04.09-.09.09ZM17.81,4.72s-.07.03-.07.07.03.07.07.07.07-.03.07-.07-.03-.07-.07-.07Z"/>
    <g>
      <polygon points="17.89 4.8 17.91 4.8 17.96 4.8 18.02 4.8 18.01 4.81 17.99 4.81 17.9 4.82 17.88 4.82 17.88 4.81 17.89 4.8"/>
      <polygon points="18.08 4.78 17.96 4.78 17.94 4.78 17.96 4.77 18.08 4.77 18.08 4.78"/>
      <polygon points="18.09 4.79 18.1 4.77 18.13 4.77 18.13 4.77 18.14 4.78 18.14 4.78 18.13 4.79 18.09 4.79 18.09 4.79"/>
      <polygon points="18.18 4.79 18.19 4.78 18.21 4.77 18.22 4.78 18.22 4.78 18.2 4.8 18.2 4.81 18.19 4.8 18.18 4.8 18.18 4.79"/>
      <polygon points="18.25 4.78 18.27 4.77 18.28 4.77 18.29 4.77 18.34 4.77 18.35 4.77 18.36 4.77 18.37 4.77 18.37 4.78 18.36 4.79 18.31 4.79 18.3 4.79 18.29 4.79 18.28 4.79 18.26 4.79 18.25 4.78"/>
      <polygon points="18.26 4.87 18.27 4.86 18.3 4.86 18.31 4.87 18.3 4.88 18.28 4.89 18.28 4.89 18.27 4.88 18.26 4.88 18.26 4.87"/>
      <polygon points="18.22 4.9 18.24 4.89 18.26 4.89 18.27 4.9 18.31 4.9 18.32 4.89 18.35 4.89 18.37 4.9 18.37 4.91 18.33 4.91 18.32 4.9 18.32 4.91 18.28 4.91 18.27 4.92 18.24 4.92 18.24 4.91 18.23 4.91 18.22 4.9"/>
      <polygon points="18.38 4.87 18.38 4.88 18.38 4.89 18.38 4.88 18.38 4.87"/>
      <polygon points="18.41 4.87 18.41 4.88 18.42 4.89 18.43 4.89 18.43 4.88 18.42 4.87 18.41 4.87"/>
      <polygon points="17.99 4.91 17.97 4.92 17.97 4.93 17.99 4.93 17.99 4.92 17.99 4.91 17.99 4.91"/>
      <rect x="17.84" y="4.92" width="0" height="0"/>
      <polygon points="17.7 4.93 17.72 4.91 17.73 4.91 17.74 4.92 17.78 4.92 17.79 4.91 17.8 4.92 17.81 4.92 17.81 4.93 17.8 4.93 17.76 4.93 17.75 4.93 17.74 4.93 17.73 4.93 17.7 4.93 17.7 4.93"/>
      <rect x="17.69" y="4.84" width="0" height="0"/>
      <polygon points="17.67 5.01 17.68 5 17.74 5 17.75 5.01 17.8 5.01 17.8 5.01 17.79 5.01 17.71 5.01 17.71 5.01 17.7 5.01 17.67 5.01 17.67 5.01"/>
      <polygon points="17.63 4.95 17.64 4.93 17.64 4.92 17.65 4.91 17.66 4.92 17.65 4.93 17.65 4.93 17.64 4.95 17.63 4.95"/>
      <polygon points="17.53 4.93 17.55 4.92 17.57 4.92 17.57 4.92 17.58 4.91 17.59 4.92 17.58 4.93 17.55 4.93 17.54 4.94 17.53 4.93"/>
      <rect x="17.48" y="4.95" width="0" height=".01" transform="translate(-.6 6.76) rotate(-21.52)"/>
      <polygon points="17.41 4.95 17.43 4.94 17.43 4.92 17.44 4.92 17.45 4.93 17.45 4.94 17.43 4.95 17.42 4.96 17.41 4.95"/>
      <polygon points="17.29 5.01 17.32 5 17.35 5 17.42 5 17.45 5 17.46 5 17.45 5.01 17.31 5.01 17.29 5.01"/>
      <polygon points="17.25 4.93 17.26 4.92 17.27 4.92 17.27 4.93 17.26 4.94 17.25 4.93"/>
      <polygon points="17.32 4.92 17.33 4.92 17.34 4.92 17.33 4.93 17.32 4.92"/>
      <polygon points="17.17 4.95 17.19 4.92 17.19 4.94 17.2 4.95 17.2 4.96 17.19 4.96 17.17 4.95"/>
      <polygon points="17.12 4.92 17.13 4.92 17.15 4.94 17.14 4.95 17.13 4.95 17.13 4.94 17.13 4.93 17.12 4.93 17.12 4.92"/>
      <polygon points="17.08 4.92 17.1 4.92 17.09 4.94 17.08 4.93 17.08 4.92"/>
      <polygon points="17.07 4.95 17.08 4.95 17.09 4.95 17.09 4.96 17.08 4.96 17.07 4.95"/>
      <polygon points="17.11 4.87 17.11 4.87 17.12 4.87 17.12 4.87 17.11 4.87"/>
      <polygon points="17.12 4.84 17.13 4.83 17.14 4.83 17.14 4.84 17.14 4.85 17.13 4.84 17.12 4.84"/>
      <polygon points="17.17 4.86 17.18 4.87 17.18 4.87 17.15 4.87 17.14 4.87 17.14 4.86 17.15 4.84 17.16 4.84 17.17 4.83 17.18 4.85 17.17 4.85 17.16 4.84 17.16 4.85 17.15 4.86 17.17 4.86"/>
      <polygon points="16.87 4.92 16.88 4.92 16.9 4.92 16.9 4.92 16.93 4.92 16.94 4.92 16.96 4.93 16.95 4.94 16.95 4.95 16.95 4.96 16.94 4.95 16.94 4.94 16.93 4.93 16.91 4.93 16.9 4.94 16.9 4.95 16.89 4.96 16.88 4.96 16.88 4.95 16.88 4.94 16.87 4.92"/>
      <polygon points="16.97 4.95 16.98 4.95 16.99 4.95 16.98 4.96 16.97 4.95"/>
      <polygon points="16.98 4.92 16.99 4.92 16.99 4.92 16.99 4.93 16.98 4.92"/>
      <polygon points="17.06 4.82 17.06 4.81 17.07 4.82 17.06 4.82 17.06 4.82"/>
      <polygon points="16.95 4.82 16.96 4.81 16.97 4.82 16.96 4.82 16.95 4.82"/>
    </g>
    <path d="M18.54,4.42h0s0,.02,0,.02h0s-.04,0-.04,0h-.01s-.13,0-.13,0v.22h.12s0-.11,0-.11h.13s0,0,0,0h0s.04,0,.04,0l-.13.32h0s0,.02,0,.02h0s0,.01,0,.01h0s-.11.28-.11.28h.03s.02,0,.02,0h0s.08,0,.08,0l.25-.63v-.12h-.23ZM18.6,4.48h0s0,0,0,0h0s0,0,0,0Z"/>
    <path d="M20.26,4.42v.15h.01s-.01.01-.01.01v.06h.06s0,0,0,0h0s.05.01.05.01v-.11h.18l-.19.49h.01s-.02.02-.02.02l-.05.13h.07s0,0,0,0h.06l.12-.3h-.02s.02-.02.02-.02h0s.13-.32.13-.32v-.12h-.43ZM20.47,4.91h-.02s0-.01,0-.01h0Z"/>
    <polygon points="18.66 4.77 19.49 4.77 19.51 4.77 19.52 4.77 19.52 4.77 19.53 4.77 19.54 4.77 19.54 4.77 19.55 4.77 19.63 4.77 19.64 4.77 19.65 4.77 19.67 4.77 19.7 4.77 19.71 4.77 19.73 4.77 19.74 4.77 19.75 4.77 19.76 4.77 19.76 4.78 19.75 4.78 19.74 4.79 19.71 4.79 19.7 4.79 19.5 4.79 19.49 4.79 19.46 4.79 19.46 4.79 19.43 4.79 19.42 4.79 19.39 4.79 19.38 4.79 19.31 4.79 19.29 4.79 19.28 4.79 19.25 4.78 19.22 4.78 19.19 4.79 19.18 4.79 19.17 4.79 19.13 4.79 19.12 4.79 18.64 4.79 18.66 4.77"/>
    <polygon points="18.94 4.75 18.95 4.74 18.96 4.74 18.96 4.75 18.95 4.75 18.94 4.75"/>
    <polygon points="19.03 4.75 19.04 4.74 19.05 4.74 19.05 4.75 19.05 4.75 19.04 4.75 19.03 4.75"/>
    <polygon points="19.14 4.74 19.14 4.75 19.46 4.75 19.48 4.76 19.49 4.75 19.57 4.75 19.58 4.76 19.59 4.75 19.6 4.75 19.62 4.76 19.63 4.75 19.63 4.75 19.64 4.75 19.63 4.74 19.14 4.74"/>
    <polygon points="19.66 4.75 19.67 4.74 19.68 4.75 19.67 4.76 19.66 4.75"/>
    <polygon points="18.62 4.9 18.65 4.9 18.66 4.9 18.67 4.91 18.66 4.92 18.65 4.92 18.64 4.91 18.62 4.91 18.62 4.9"/>
    <polygon points="18.77 4.91 18.78 4.9 18.8 4.9 18.81 4.91 18.8 4.92 18.78 4.92 18.77 4.91"/>
    <polygon points="18.88 4.91 18.89 4.9 18.9 4.91 18.89 4.92 18.88 4.92 18.88 4.91"/>
    <polygon points="19 4.9 19.04 4.9 19.04 4.92 19.02 4.92 19 4.91 19 4.9"/>
    <polygon points="19.07 4.91 19.08 4.91 19.09 4.91 19.09 4.92 19.08 4.92 19.07 4.91"/>
    <polygon points="19.1 4.91 19.1 4.9 19.11 4.9 19.12 4.91 19.11 4.92 19.1 4.91"/>
    <rect x="19.13" y="4.91" width="0" height="0"/>
    <polygon points="19.16 4.91 19.17 4.91 19.18 4.91 19.17 4.92 19.16 4.92 19.16 4.91"/>
    <polygon points="19.2 4.91 19.21 4.9 19.22 4.9 19.23 4.91 19.3 4.91 19.3 4.9 19.31 4.9 19.32 4.91 19.39 4.91 19.4 4.9 19.41 4.9 19.42 4.91 19.54 4.91 19.54 4.91 19.54 4.92 19.53 4.92 19.52 4.92 19.5 4.92 19.29 4.92 19.28 4.92 19.27 4.92 19.27 4.92 19.22 4.92 19.2 4.92 19.2 4.91"/>
    <polygon points="18.68 4.91 18.69 4.9 18.7 4.91 18.69 4.92 18.68 4.91"/>
    <polygon points="19.58 4.91 19.62 4.91 19.62 4.92 19.63 4.91 19.63 4.91 19.64 4.91 19.65 4.91 19.72 4.91 19.74 4.91 19.77 4.91 19.78 4.91 19.83 4.91 19.84 4.92 19.87 4.92 19.87 4.91 19.93 4.91 19.94 4.92 19.98 4.91 19.98 4.91 20.01 4.91 20.02 4.91 20.07 4.91 20.08 4.91 20.09 4.91 20.1 4.91 20.11 4.92 20.11 4.92 20.1 4.93 20.08 4.92 20.05 4.92 20.04 4.93 20.03 4.92 19.93 4.92 19.91 4.93 19.89 4.93 19.88 4.92 19.86 4.92 19.85 4.93 19.85 4.92 19.84 4.92 19.83 4.91 19.83 4.92 19.81 4.92 19.81 4.92 19.8 4.92 19.79 4.92 19.79 4.92 19.78 4.91 19.77 4.92 19.69 4.92 19.68 4.92 19.67 4.92 19.66 4.92 19.64 4.92 19.64 4.91 19.63 4.92 19.63 4.92 19.61 4.92 19.6 4.92 19.58 4.91 19.58 4.91"/>
    <polygon points="20.14 4.89 20.15 4.88 20.16 4.89 20.15 4.9 20.14 4.89"/>
    <polygon points="20.21 4.92 20.23 4.91 20.24 4.92 20.25 4.92 20.24 4.93 20.22 4.93 20.21 4.92"/>
    <polygon points="20.23 4.89 20.24 4.88 20.25 4.89 20.24 4.9 20.23 4.89"/>
    <polygon points="20.26 4.92 20.27 4.91 20.28 4.91 20.31 4.91 20.31 4.92 20.31 4.92 20.3 4.92 20.29 4.93 20.27 4.92 20.26 4.92 20.26 4.92"/>
    <polygon points="20.31 4.89 20.33 4.88 20.34 4.89 20.33 4.9 20.31 4.89"/>
    <polygon points="20.32 4.92 20.35 4.92 20.36 4.91 20.39 4.91 20.4 4.91 20.41 4.92 20.4 4.93 20.39 4.93 20.32 4.93 20.32 4.92"/>
    <rect x="20.12" y="5.01" width=".02" height="0"/>
    <rect x="20.11" y="5.06" width="0" height="0" transform="translate(.85 12.74) rotate(-35.84)"/>
    <rect x="20.13" y="5.06" width="0" height="0"/>
    <polygon points="20.16 5.06 20.17 5.05 20.17 5.06 20.17 5.06 20.16 5.06 20.16 5.06"/>
    <rect x="20.27" y="4.98" width="0" height="0" transform="translate(3.96 18.02) rotate(-52.43)"/>
    <path d="M19.84,4.87c-.05,0-.09-.04-.09-.09s.04-.09.09-.09.09.04.09.09-.04.09-.09.09ZM19.84,4.71s-.07.03-.07.07.03.07.07.07.07-.03.07-.07-.03-.07-.07-.07Z"/>
    <polygon points="19.91 4.74 19.94 4.74 19.99 4.75 20.48 4.74 20.47 4.76 19.99 4.76 19.98 4.75 19.92 4.75 19.91 4.74"/>
    <polygon points="19.93 4.77 20.02 4.77 20.09 4.78 20.34 4.78 20.47 4.78 20.48 4.78 20.47 4.79 20.46 4.79 20.09 4.79 20.03 4.78 20.02 4.78 20.01 4.79 19.97 4.78 19.95 4.78 19.93 4.78 19.93 4.77"/>
    <polygon points="20.59 4.75 20.61 4.75 20.62 4.76 20.63 4.75 20.65 4.75 20.66 4.74 20.67 4.75 20.68 4.75 20.68 4.76 20.69 4.75 20.75 4.75 20.75 4.74 20.76 4.75 20.77 4.76 20.78 4.75 20.8 4.75 20.82 4.76 20.85 4.75 20.88 4.75 21.06 4.75 21.07 4.76 21.08 4.76 21.09 4.75 21.1 4.76 21.1 4.76 21.11 4.76 21.11 4.75 21.14 4.75 21.14 4.76 21.47 4.76 21.51 4.77 21.44 4.77 21.29 4.77 21.29 4.77 21.28 4.77 21.26 4.77 21.25 4.77 21.24 4.77 21.2 4.77 21.19 4.77 21.18 4.77 21.15 4.77 21.14 4.77 21.14 4.77 21.11 4.77 21.1 4.77 20.95 4.77 20.94 4.77 20.93 4.77 20.92 4.77 20.57 4.77 20.59 4.75"/>
    <polygon points="20.55 4.84 20.57 4.84 20.53 4.85 20.55 4.84"/>
    <polygon points="20.52 4.91 20.55 4.92 20.53 4.93 20.51 4.93 20.52 4.91"/>
    <polygon points="20.57 4.78 20.72 4.78 20.72 4.79 20.7 4.79 20.69 4.8 20.68 4.8 20.67 4.79 20.61 4.79 20.6 4.8 20.59 4.79 20.57 4.79 20.57 4.78"/>
    <rect x="20.82" y="4.78" width=".31" height=".02"/>
    <polygon points="21.15 4.79 21.17 4.79 21.18 4.78 21.18 4.78 21.18 4.8 21.18 4.8 21.16 4.8 21.15 4.79"/>
    <polygon points="21.22 4.8 21.23 4.79 21.23 4.79 21.24 4.79 21.24 4.8 21.23 4.8 21.22 4.8"/>
    <rect x="21.4" y="4.72" width="0" height=".16" transform="translate(13.68 25.32) rotate(-82)"/>
    <polygon points="21.53 4.73 21.55 4.72 21.56 4.72 21.8 4.72 21.8 4.73 21.77 4.74 21.76 4.74 21.75 4.74 21.67 4.74 21.66 4.74 21.66 4.74 21.65 4.74 21.56 4.73 21.55 4.73 21.54 4.74 21.53 4.73"/>
    <rect x="21.75" y="4.77" width="0" height=".02"/>
    <polygon points="21.81 4.74 21.81 4.73 21.82 4.72 21.86 4.72 21.86 4.73 21.86 4.74 21.81 4.74"/>
    <rect x="22.09" y="4.92" width=".02" height="0"/>
    <polygon points="22.5 4.8 22.51 4.79 22.52 4.8 22.51 4.81 22.5 4.8"/>
    <polygon points="22.7 4.8 22.72 4.79 22.73 4.8 22.72 4.81 22.7 4.8"/>
    <polygon points="22.89 4.8 22.9 4.8 22.91 4.8 22.9 4.81 22.89 4.8"/>
    <polygon points="20.63 4.92 20.65 4.92 20.65 4.91 20.66 4.92 20.7 4.92 20.7 4.92 20.7 4.92 20.71 4.92 20.73 4.92 20.74 4.92 20.75 4.91 20.77 4.92 20.8 4.92 20.81 4.92 20.82 4.92 20.87 4.92 20.89 4.92 20.9 4.92 20.92 4.92 20.95 4.92 20.96 4.92 21.03 4.92 21.04 4.92 21.05 4.92 21.06 4.93 21.05 4.93 20.85 4.93 20.84 4.93 20.81 4.93 20.8 4.93 20.79 4.93 20.78 4.93 20.76 4.93 20.76 4.93 20.72 4.93 20.72 4.93 20.7 4.93 20.69 4.93 20.68 4.93 20.67 4.93 20.66 4.93 20.63 4.93 20.63 4.92"/>
    <rect x="20.65" y="5" width=".01" height=".01" transform="translate(2.34 15.78) rotate(-44.09)"/>
    <rect x="20.73" y="4.89" width=".02" height="0"/>
    <polygon points="20.86 4.83 20.87 4.82 20.87 4.83 20.87 4.84 20.86 4.83"/>
    <polygon points="20.92 4.9 20.93 4.89 20.94 4.9 20.93 4.91 20.92 4.9"/>
    <rect x="20.95" y="4.89" width="0" height="0"/>
    <rect x="20.98" y="4.89" width=".03" height="0"/>
  </g>
  <g>
    <path d="M5.61.93l-.11-.07v-.02s-.25-.15-.25-.15h-.03l-.21.09-.03-.02h-.01s-.23.14-.36.18c0,0-.3.14-.4.21,0,0-.07.04-.11.07,0,0-.01.01-.11.07,0,0-.25.12-.34.17,0,0-.7.34-.81.38l-1.14.52-.07.03h.06l-.28.16s-.04,0-.05.02v.02s.03,0,.03,0c0,0,0,.04.04.05h.07s.01,0,.01,0h.05s0,0,0,0h.02s0,0,0,0h.03l.02.02h.02l.02.02h.04s0-.02,0-.02h0s0,0,0,0h.04s.01.02.01.02h.04v-.02s.07,0,.07,0v.02h.05v-.02s.06,0,.06,0l.02.02h.02s.03,0,.03,0v-.02h.04l.02.02h0s0,0,0,0h.02v.04h.15v-.02s0,0,0,0h.06s0,.04,0,.04h.14v-.03s.01,0,.01,0h.16s.04-.01.04-.01h0s-.17,0-.17,0h-.34s0,0,0,0l.32-.17v-.03s.02,0,.02,0v.02s0,0,0,0l2.28-1.24.29.05h.03s.57-.28.57-.28c0,0,0-.03-.11-.09ZM1.54,2.5h0s0,0,0,0h0ZM1.64,2.5h0v-.02h0v.02ZM1.76,2.5h-.02v-.02h0s.02,0,.02,0v.02h0v.02ZM1.77,2.46h-.02s.02,0,.02,0h0ZM1.8,2.51h-.02s.02,0,.02,0h0ZM1.87,2.5h-.02v-.02h0v.02h0ZM1.91,2.51h-.03s.03,0,.03,0h0ZM1.98,2.5h-.02s.02,0,.02,0h0ZM1.99,2.45h0s0,0,0,0h0s0,0,0,0ZM2.02,2.51h-.04s.04,0,.04,0h0ZM2.12,2.51h-.02s.02,0,.02,0h0ZM2.16,2.46h0s0,0,0,0h0ZM2.22,2.51h-.01s-.01,0-.01,0v-.03h.02v.03h0ZM2.25,2.49h0s0,0,0,0h0ZM2.3,2.52h0v-.02h.02v.02ZM2.36,2.48h-.02s0-.02,0-.02h.02s0,.02,0,.02ZM2.41,2.53h-.02s.02,0,.02,0h0ZM2.46,2.46h0s0,0,0,0h0ZM2.51,2.46h0s0,0,0,0h0ZM2.57,2.46h-.02s.02,0,.02,0h0Z"/>
    <polygon points="3.76 3.23 3.91 3.23 3.81 3.24 3.76 3.24 3.76 3.23"/>
    <polygon points="5.08 3.18 5.1 3.18 5.1 3.19 5.11 3.19 5.11 3.18 5.15 3.18 5.13 3.21 5.11 3.21 5.08 3.18"/>
    <path d="M5.37,2.75h-.14s-.07-.05-.07-.05c-.12-.13-.2-.17-.2-.17-.03-.02-.08,0-.08,0-.14.07-.3.08-.3.08l-1.33.05v.02h.04s.12,0,.12,0l.02.02h.06s.03,0,.03,0h0s.02,0,.02,0h0s.03,0,.03,0h0s.02,0,.02,0h0s.02,0,.02,0h.02s.02,0,.02,0h0s.04,0,.04,0h0s0,0,0,0l.02-.02h.02l.02.02h.02s0,0,0,0h.04s.03-.02.03-.02h.02l.02.02h.05s.03-.02.03-.02h.02v.02s.07,0,.07,0v-.02h.05s.02,0,.02,0h0s.04,0,.04,0h0s.03,0,.03,0l.02.02h.02s.02-.02.02-.02h.05s0,.01,0,.01h.06s.04-.02.04-.02v.02s.08,0,.08,0h0s.02,0,.02,0l.04.03h.02l.03.02h.07s0,.02,0,.02h-.12v.02h-.07s-.03,0-.03,0h-.08s-.02.02-.02.02h0s0,0,0,0h-.06s-.03,0-.03,0h-.02v.02h-.04s0,0,0,0h-.06s-.03,0-.03,0h0s-.04,0-.04,0h0s-.12,0-.12,0h0s0,0,0,0h0s-.11,0-.11,0h0s-.02,0-.02,0h-.05s0,0,0,0h0s-.07,0-.07,0h0s-.07,0-.07,0h0s-.02,0-.02,0h0s-.04,0-.04,0h-.23s-.01.02-.01.02h-.02s0-.02,0-.02h-.04s-.02,0-.02,0h-.02s-.02,0-.02,0h-.02s0,.02,0,.02h0s-.06-.02-.06-.02h-.08s0,0,0,0h-.04s0,0,0,0h0s0,0,0,0h-.01s-.02.02-.02.02h0s-.05,0-.05,0h0s-.03,0-.03,0v-.04h-.03s0,.03,0,.03v.02s-.03,0-.03,0h0s-.08,0-.08,0v-.05h-.03l-.02.04h0s-.03,0-.03,0h0s-.03,0-.03,0h0s0,0,0,0h-.02s-.01,0-.01,0h0s-.1,0-.1,0v-.02s-.04,0-.04,0l-.02.03h-.06s-.03-.03-.03-.03h-.05s0,.03,0,.03h-.02v.02s0-.02,0-.02h-.09s0-.03,0-.03h-.02s0,.02,0,.02h0s0,0,0,0h0s-.05,0-.05,0h0s-.03,0-.03,0v-.04h-.04s0,.04,0,.04h-.02s-.07,0-.07,0h0s0,0,0,0h0s0-.08,0-.08h-.12s.02.02.02.02h-.15v-.02h-.18s-.02,0-.02,0h0s-.06,0-.06,0h0s-.02,0-.02,0l-.03.02h-.04v.03h0s-.02,0-.02,0h0s0-.02,0-.02h0s0-.02,0-.02l-.26.09c-.17.06-.23.09-.23.09-.14.06-.24.07-.24.07h-.2s-.16.07-.16.07c.3.16.8.36.8.36h.02s.46-.02.46-.02c.05,0,.58-.06.58-.06h.56l.69-.03v-.07s.32,0,.32,0h-.1v.03h0s0,0,0,0h-.13s-.05,0-.05,0v.02s.02,0,.02,0h.26s.35-.03.35-.03h0s-.09-.02-.09-.02h.14s.01-.01.01-.01v-.02h0s.01,0,.01,0h.01s0,.03,0,.03h.02s0,0,0,0h.01s.11,0,.11,0h0s.65-.02.65-.02h0s-.13,0-.13,0v-.02h.18s.5,0,.5,0l.21-.23-.03-.17ZM.71,2.84h.01v.02h-.01v-.02ZM.71,2.91h0s0,0,0,0h0ZM.63,3h0s0,0,0,0h0ZM.69,2.9h-.01s.01,0,.01,0h0ZM.71,3.03v-.02h.02v.02s-.02,0-.02,0ZM.76,2.96h0s0,0,0,0h0ZM.79,2.85h0s0-.01,0-.01h0ZM.82,2.9h-.01s.01,0,.01,0h0ZM1.01,2.81h0s0,0,0,0h0ZM1.01,2.84h.01s-.01,0-.01,0h0ZM.86,2.81h.01s-.01.01-.01.01h0ZM.88,2.84h0s0,0,0,0h0s0,0,0,0ZM.85,2.95h0s0,0,0,0h0ZM.83,2.84h0s0,0,0,0h0ZM.9,3.03h-.03l-.02-.02h.05v.02ZM.96,2.9h0s0-.01,0-.01h0ZM1.06,3.01h-.02v.02h-.02l-.02-.02h.03s.02,0,.02,0h0ZM1.13,2.9h0s-.02.01-.02.01h0s0,0,0,0h0s.02,0,.02,0h0ZM1.16,3.03v-.05s0,0,0,0v.02l.02.03h-.03ZM1.18,2.84v.02h0v-.02h0ZM1.17,2.82h0s0,0,0,0h0s0,0,0,0ZM1.2,2.92h0s0,0,0,0h0s0,0,0,0h0s.02,0,.02,0h0ZM1.24,3.02h-.02v-.02h.02v.02ZM1.22,2.96h0s0,0,0,0h0s0,0,0,0ZM1.2,2.77l-.03-.03h0s-.02,0-.02,0v-.02h.07l.02.02h0v.03h0s-.04,0-.04,0ZM1.29,2.9h0s-.02,0-.02,0h0s0,0,0,0h0s.03,0,.03,0h0ZM1.34,2.82h-.02s.02,0,.02,0h0ZM1.34,2.84v.02h0v-.02h0ZM1.33,2.91h0s0,0,0,0h0s0,0,0,0ZM1.32,2.87h-.02s.02,0,.02,0h0ZM1.35,3.03h-.03v-.02h.03v.02ZM1.38,3.01h0s0,0,0,0h0ZM1.4,2.76v.02h-.11v-.02h-.02v-.02h.02s.09,0,.09,0h.02s0,0,0,0h0ZM1.43,2.91h-.02v-.02h.02v.02ZM1.51,3.03h-.04v-.02s0-.04,0-.04h.02v.03s.02.01.02.01v.02s0,0,0,0ZM1.46,2.87h0s0-.01,0-.01h0s0,.01,0,.01ZM1.48,2.84v.02h0v-.02h0ZM1.48,2.82h0s0,0,0,0h0s0,0,0,0ZM1.5,2.92h-.01s0-.01,0-.01h.02-.01ZM1.53,2.98h0v-.02h0v.02ZM1.45,2.78h-.02v-.02h.09s.01-.02.01-.02h0l.03.03h-.11ZM1.58,2.91h-.01v-.02h.02s0,.02,0,.02ZM1.64,3.03h-.02,0s.02-.02.02-.02h0v.02ZM1.62,2.82h0s0,0,0,0h0ZM1.63,2.86h0s0,0,0,0h0s0,0,0,0ZM1.63,2.96v.02-.02s0,0,0,0ZM1.65,2.93h-.01s-.01,0-.01,0h0s.02,0,.02,0h0ZM1.68,3.01h-.02s.02,0,.02,0h0ZM1.68,2.78h-.09s0,0,0,0v-.02h.03s0-.02,0-.02h0s.03,0,.03,0h0s.02,0,.02,0v.02ZM1.72,2.91h-.02s0-.02,0-.02h.02v.02ZM1.75,2.86h.03s0,0,0,0h0s-.04,0-.04,0h0ZM1.77,2.91h0s0,0,0,0h0s0,0,0,0ZM1.78,3.03h-.03v-.02h0s.02,0,.02,0v.02ZM1.8,2.93h0s0,0,0,0h0ZM1.82,2.97v-.02h0v.02ZM1.88,2.92h0s-.02-.02-.02-.02h.02v.02ZM1.95,3.03h-.04v-.06h.02,0s0,.03,0,.03h.03v.02ZM1.95,2.93h-.02s.02,0,.02,0h0ZM1.91,2.87l.02-.02v-.03h0v.04s.02.01.02.01h-.04ZM1.98,3.01h0s0,0,0,0h0ZM1.98,2.98h0v-.02h0v.02ZM2.01,2.91h0v-.02h0v.02ZM2.02,2.83h0s0,0,0,0h0ZM2.06,2.82h.02s-.02,0-.02,0h0ZM2.06,2.86h.01s0,0,0,0h0v.02h-.03s0,0,0,0ZM2.07,2.98h-.01v-.02h0v.02ZM2.06,3.03v-.02s0,0,0,0h0s0-.01,0-.01h0s.02.02.02.02h0s-.03.01-.03.01ZM2.1,2.92h-.02s0,0,0,0h.02ZM2.12,2.98h0s0,0,0,0h0ZM2.22,2.82h.02s-.02,0-.02,0h0ZM2.19,2.92h-.02v-.02h.02v.02ZM2.21,2.86h0s.02,0,.02,0h0v.02h-.04,0ZM2.24,3.03h-.02v-.02h.02v.02ZM2.26,2.93h-.03s.03,0,.03,0h0ZM2.27,2.98v-.02s.01,0,.01,0v.02ZM2.38,2.82h0s0,0,0,0h0ZM2.37,2.86h.03s-.03,0-.03,0h0ZM2.32,2.9l.02.02h-.02v-.02ZM2.38,3.03h-.03s.03,0,.03,0h0ZM2.38,2.98h0s0,0,0,0h0ZM2.4,2.93h0s0,0,0,0h0s0,0,0,0ZM2.42,3.03h-.02s.02,0,.02,0h0ZM2.44,2.98h0v-.02s0,0,0,0h0ZM2.44,2.93h0s0,0,0,0h0ZM2.48,2.92v-.02.02s0,0,0,0ZM2.53,3.03h-.02s.02,0,.02,0h0ZM2.59,3.02h0v-.02s0,.02,0,.02ZM2.7,3.03h-.04,0s.03-.02.03-.02h.03l-.02.02h0ZM2.74,3.03h0s0,0,0,0h0ZM2.75,2.97h0s0,0,0,0h0ZM2.89,2.95h.01s-.01,0-.01,0h0ZM2.91,3.01h-.02v.02h-.07,0s.03-.02.03-.02h.06ZM3.07,3.01h-.03s-.05.01-.05.01v-.02h.04s.01,0,.01,0h.03s0,.02,0,.02ZM3.21,3.02h0s-.05,0-.05,0h0s.03-.02.03-.02h.04v.02ZM3.36,2.95h0s.01,0,.01,0h0s-.02,0-.02,0h0ZM3.37,3.01v.02h-.07,0s.02-.02.02-.02h.05,0ZM3.38,3.25h-.02s.02,0,.02,0h0ZM3.51,3.03h-.06s.02,0,.02,0l.03-.02h.02l-.02.02h0ZM3.53,2.96h-.02s.02,0,.02,0h0ZM3.66,3.01h0v.02h-.04,0s0-.02,0-.02h.06-.02ZM3.8,3.03h-.05v-.02h.05v.02ZM3.84,2.96h0s0,0,0,0h.02ZM3.86,3.18h0s.02,0,.02,0h-.02ZM3.98,3.01h-.02v.02h-.05,0s.03-.02.03-.02h.05-.02ZM4.11,3.02h0s-.04,0-.04,0h0s.03-.02.03-.02h.04l-.02.02ZM4.21,3.03v-.02h0s.02.02.02.02h-.02ZM4.28,2.98v-.02h0v.02ZM4.44,3.02h0s-.05,0-.05,0h0s0-.02,0-.02h.02s.02,0,.02,0h0s0,0,0,0ZM5.04,2.76h0s.02,0,.02,0h0s0,.02,0,.02h-.02ZM4.97,2.74h.02v.02h-.02v-.02ZM4.82,2.74h.02v.02h-.02v-.02ZM4.53,3.03v-.02h.05v.02s-.05,0-.05,0ZM4.66,3.03h0s.03,0,.03,0h0s-.04,0-.04,0ZM4.75,2.77h-.02v-.02h.02s0,.02,0,.02ZM4.81,3s.14-.02.29,0c0,0-.23.01-.29,0ZM5.14,2.75h0s0,0,0,0h0s.02,0,.02,0h0ZM5.21,2.77h-.01s-.01,0-.01,0h0s.02,0,.02,0h0v.02Z"/>
    <path d="M6.56,2.01l-.31.25c-.14.11-.43.36-.43.36h-.03s.03-.67.03-.67c-.03-.08-.06-.09-.06-.09-.05.01-.2.11-.2.11,0,0-.17.14-.17.14-.04.38.04.6.04.6l.02.03c.08.11.27.23.27.23l.28-.19c-.02.06-.32.38-.32.38h.23s.02.04.02.04h-.29l-.16.18c-.11.13-.38.48-.38.48l-.23.29h.55s.29-.35.29-.35l.39-.47h0s-.02,0-.02,0h-.05s0,0,0,0h.05v-.02s-.11,0-.11,0h0s.07,0,.07,0h.02s.07,0,.07,0l.4-.49h-.45v-.02h.46l.62-.75h0s-.64,0-.64,0ZM5.31,3.71h-.02s.02,0,.02,0h0ZM5.32,3.69h0s0,0,0,0h0ZM5.37,3.69h0s0,0,0,0h0ZM5.41,3.71h-.02l.02-.02v.02s0,0,0,0ZM6,3.32h.02v.02h-.02v-.02ZM5.98,3.32h0v.02h0v-.02ZM5.9,3.26h0s.02,0,.02,0v.02h-.02ZM5.93,3.54h-.02v-.02h.03v.02ZM6.04,3.21h0s0,0,0,0h0ZM6.09,3.21h-.02s.02,0,.02,0h0Z"/>
    <path d="M5.35,4.21h0s.03,0,.03,0l.03-.03h-.54s-.16.22-.16.22h.02s0,0,0,0h-.02s-.3.39-.3.39l-.47.58c-.06.06-.15.19-.15.19-.04.03-.08.08-.08.08l.14-.07.15-.19.13-.16s.18-.21.18-.21c.01-.02.06-.01.06-.01l.06-.08c.09,0,.13-.04.13-.04l.25-.15c.06,0,.14-.03.14-.03l.42-.5h-.02ZM4.89,4.39h-.06s.06,0,.06,0h0ZM4.95,4.21h-.07,0s.07,0,.07,0h0ZM5,4.39h0s.02,0,.02,0h0s-.03,0-.03,0ZM5.06,4.21h-.02s.02,0,.02,0h0ZM5.17,4.4h-.01s0,0,0,0h-.01s.02,0,.02,0h0s0,0,0,0h0ZM5.21,4.21h-.03s.03,0,.03,0h0ZM5.28,4.21h0s.04,0,.04,0h0s-.05,0-.05,0Z"/>
    <path d="M13.48,2.07s-.02-.02-.04-.02c0,0-1.43-.12-2.08-.13h-.34s-.04.06-.06.08l-1.72-.03s-.15.18-.16.22c0,0-.05.08-.07.1l-.12-.22-.9-.02.51-.63.45-.56s0-.13-.01-.21c0,0-.02-.16,0-.2,0,0,.07-.11.08-.15,0,0,.02-.03.05-.04,0,0,.02,0,.03-.04,0,0,.02-.04.04-.06,0,0,.1-.12.11-.14,0,0,0-.03-.02-.02l-.09.11h-.03s-.04.05-.06.07c0,0-.08.09-.08.13,0,0-.02.06-.09.12,0,0-.07.07-.11.13,0,0-.07.14-.1.15,0,0,0,.05-.05.06,0,0,0-.03.02-.03,0,0-.06,0-.1.06,0,0,0,.03-.05.03h-.06s-.48.55-.48.55l-.51.58-.49.6-.16.2h.61s.32-.38.32-.38l.54.04h0s-.47.34-.47.34h.59s0-.04,0-.04l.02.03h.07l.45-.33-.23.33h.1s.17.18.2.18h.04s.09,0,.09,0c0,0,.05-.1.09-.13l1.11-.11s.14-.25.19-.27l-1.11.04s.07-.16.08-.17h.53s.05-.1.08-.1h.62s.1.01.1.01c0,0,.08-.11.12-.11l-.43.96h.29l.38-.03h0s0,0,0,0h0s.05,0,.05,0h0s.06,0,.06,0h.45s.02.02.02.02v-.02h.01s.01.01.01.01h0s.02-.01.02-.01h0s.41,0,.41,0l-.25-.1v-.02s.03,0,.03,0l.27-.07h0s0,0,0,0h0s.11-.03.11-.03h0s0,0,0,0h0s.22-.05.22-.05l.64-.19s.38-.11.41-.21c0,0-.16-.22-.19-.28ZM9.08,2.7h.09,0s-.09,0-.09,0h0ZM9.06,2.69h0s0,0,0,0h0s.01,0,.01,0h0ZM9.24,2.74h-.17s.17,0,.17,0h0ZM11.43,2.94h0v-.02h0v.02ZM11.55,2.93l-.02.02v-.02h.02ZM11.65,2.93h-.02s0,0,0,0v-.02h0v.02ZM11.76,2.93h0v-.02h0v.02ZM11.87,2.93h0s0,0,0,0v-.02h0v-.02h0v.03ZM12.29,2.82h0v-.02h0v.02ZM12.29,2.77h-.01s.02,0,.02,0h0ZM12.32,2.77h0s0,0,0,0h0ZM12.13,2.49c-.12.02-.77.2-.77.2-.04-.03-.21-.09-.21-.09l.13-.33c.5-.02,1.48.03,1.48.03-.04.02-.63.18-.63.18Z"/>
    <path d="M8.38,2.83h-.36v-.03h-.27l-.55.37s-.18.12-.18.12h.01s-.03,0-.03,0l-.03.02v.02s-.03,0-.03,0h0s-.02,0-.02,0l.03-.05h-.05v.04s0,0,0,0v-.02s-.02,0-.02,0h0s.09,0,.09,0l.41-.5h-.61l-.38.5h.04s0,0,0,0h.02s.03,0,.03,0h0s0,0,0,0h0s.08,0,.08,0h.01s0,0,0,0h.14s-.01.01-.01.01v.03s-.02,0-.02,0h-.34s-.23.3-.23.3l.22.15c.08.06.36.24.36.24.03.02.03.01.03.01l.23-.17.28-.21h0s-.04,0-.04,0h-.02s0,0,0,0h-.07s-.1,0-.1,0v.02s-.03,0-.03,0v.06h-.15v-.02s-.03-.02-.03-.02h.02s0-.02,0-.02h-.05s-.02,0-.02,0h-.41s.02-.02.02-.02h.08s0,0,0,0h.02s.16,0,.16,0h0s.02,0,.02,0h0s.08,0,.08,0v-.02h.08,0s0-.02,0-.02h.21s0-.04,0-.04h-.03l.1-.03h.03s.03.03.03.03h.07v-.04s0,0,0,0h0s.07,0,.07,0h0s0,0,0,0h0s.02,0,.02,0h0s0-.02,0-.02h0s.02,0,.02,0v.02h.05l.05-.04h-.06,0s.04-.02.04-.02h.04l.14-.11h-.16s0,0,0,0h.17l.07-.05h-.02s-.14.01-.14.01l-.08.02h-.22s-.04-.04-.04-.04h-.05s.05-.02.05-.02h.09s.01,0,.01,0h.02s0,0,0,0h.03s.01,0,.01,0h0s.04,0,.04,0h.01s.31,0,.31,0l.08-.06h-.44s0,0,0,0l.02-.02h.3s.16,0,.16,0l.45-.34h-.32s.34-.01.34-.01l.02-.02ZM6.65,3.22h0s-.02,0-.02,0v-.02h0s.02,0,.02,0v.02ZM6.67,3.11h0v-.02h0v.02ZM6.31,3.48h0s0,0,0,0h0ZM6.33,3.7h0s0,0,0,0h0ZM6.85,3.78h.06s.06,0,.06,0h.02s0,0,0,0h0v.02h-.15ZM6.52,3.55h-.02s-.12,0-.12,0v-.02h.02s.11,0,.11,0v.02s0,0,0,0h0ZM6.55,3.55h0s.04,0,.04,0h0s-.05,0-.05,0ZM6.63,3.55h-.02,0s0,0,0,0h0ZM6.66,3.53h0s0,.02,0,.02l-.02-.02h0s.01,0,.01,0h0ZM6.82,3.29h.02s-.02,0-.02,0h0ZM6.8,3.33h.02s.02,0,.02,0v.02h-.03ZM6.76,3.55h-.04.01s0-.02,0-.02h.02v.02ZM6.78,3.3h-.02,0s0,0,0,0h0ZM6.79,3.55v-.02h.02s.02,0,.02,0h.01s.01,0,.01,0h-.07ZM6.86,3.34h0s0-.02,0-.02v.02ZM6.91,3.55h-.03v-.02s.01,0,.01,0h.02s0,0,0,0ZM6.96,3.55h-.02s.02,0,.02,0h0ZM7.05,3.34h-.02s.02,0,.02,0h0ZM7.29,3.48h.03v.02h-.04v-.02ZM7.29,3.51h0s-.02,0-.02,0h0ZM7.36,3.22h0s0,0,0,0h0ZM7.4,3.22h-.02s.03,0,.03,0h-.01Z"/>
    <path d="M8.65,2.83h.12s.06,0,.08.04l.12.13h.08s.05.01.05.01l-.02.04h-.02l-.02-.02h-.06s0,0,0,0h-.02s-.05.02-.05.02h-.03s0,0,0,0h-.2v.03s0,0,0,0h0v.03s-.02.01-.02.01h0s.02.01.02.01v.06s-.27,0-.27,0l.25-.36Z"/>
    <path d="M9.77,3.07h0s.02,0,.02,0h.51l.05-.13-.5.08-.45.08-.4.08v-.03s-.11,0-.11,0v.07s-.09,0-.09,0h-.01s-.01,0-.01,0h-.21s-.02,0-.02,0h-.2l-.02.03h0s.23,0,.23,0v.03h.03s.02,0,.02,0h.32v-.02l.02.02v.02h-.03s-.55,0-.55,0h0s-.11.02-.11.02l-.02.02h.04v.02h-.06s.32.26.32.26h.02s.17-.06.29-.08l.13-.03-.09-.02h-.11s0,0,0,0h.2s.02,0,.02,0h0s.09,0,.09,0l.16-.04.02-.03v-.06h.02s.06,0,.06,0h.03s-.03.03-.03.03v.04s.01,0,.01,0h.01l.08-.02h.02s.04,0,.04,0h-.02s-.07,0-.07,0v-.02s0-.03,0-.03h.07s0-.03,0-.03h-.01s.18,0,.18,0v.07s.17-.04.24-.04h0s-.03,0-.03,0v-.02h.01s.03,0,.03,0l.02.02v.02s.12-.02.25-.06h0s-.02-.02-.02-.02h-.03v-.02h.07s.04-.08.04-.08h-.17,0s0,.02,0,.02h-.01v-.02h-.16,0s-.22,0-.22,0v.02s-.03.02-.03.02v-.06h-.13v-.02h.12v-.03h.04,0s0,.03,0,.03h.02s.37.01.37.01h0s.16,0,.16,0l.04-.07h-.03s-.02,0-.02,0h0s-.03,0-.03,0h-.01s-.2,0-.2,0h0s-.03,0-.03,0h-.01s-.16,0-.16,0h0s-.02.02-.02.02h0s-.04,0-.04,0v-.02h.04ZM9.14,3.42h-.02v.03h-.04v-.02h.02v-.02h.02s0-.02,0-.02h.02v.03ZM9.22,3.37h0v.08h0s-.02,0-.02,0h0v-.1h.02ZM9.3,3.34h-.07s.02,0,.02,0h.01s.01,0,.01,0h.02v.02ZM9.3,3.3h-.03s0,0,0,0h-.04v-.02h.07ZM9.41,3.34h-.02v-.02h.02v.02ZM10.19,3.17h.02s0,.02,0,.02h-.02s0-.02,0-.02ZM10.1,3.24h.02v.02h-.01s-.01,0-.01,0h0ZM10.03,3.24h.02v.02h-.02s0,0,0,0v-.02ZM9.8,3.34h-.02s.02,0,.02,0h0ZM9.93,3.26h0s-.02,0-.02,0v-.02s0,0,0,0h0ZM9.88,3.21h.03s-.03,0-.03,0h0ZM9.78,3.2h0s.03,0,.03,0l-.02.02h0l-.02-.02v-.02s0,0,0,0ZM9.77,3.11h.04l-.02.02h-.02v-.02Z"/>
    <g>
      <path d="M13.08,3.36h-.04s0-.01,0-.01l-.22-.07h-.01s-.04,0-.04,0h-.03s0-.01,0-.01h.05s-.32-.12-.41-.16l-.13-.05h-1.23l-.11.02h0s-.04.01-.04.01h0s0,0,0,0h-.01s-.03,0-.03,0h0s-.03,0-.03,0h-.01s-.03,0-.03,0h0s-.04,0-.04,0h0s-.01,0-.01,0h0s-.04,0-.04,0h0s-.07,0-.07,0h0s0,0,0,0h-.06s0,0,0,0h.05v.02h-.06s0,.02,0,.02h.03s0,.02,0,.02h-.04s0,0,0,0h.04,0s-.04,0-.04,0l-.04.09h.04v.02s-.05,0-.05,0l-.03.06h.03v.02h-.03s-.01.02-.01.02c0,0-.24.48-.25.56,0,0,.06.06.18.2l.1.11h.02s.02,0,.02,0h.02s.15-.35.15-.35l.16-.35s.08-.18.09-.21c0,0,.01-.04.02-.04h0s-.04-.01-.04-.01h0s0,0,0,0h0s0,0,0,0v-.02h.03s.01,0,.01,0h.03s0,0,0-.02h-.02s0,0,0,0h.02s.03-.09.07-.1l.17.07.17.07h.11s-.03,0-.03,0h0s-.01,0-.01,0h-.02,0s.08.04.13.07l.12.06v-.02h0v.02s.39.18.9.33c0,0,.41.12.48.14,0,0,.37-.32.4-.41l-.29-.12ZM10.31,3.61h0s.02,0,.02,0h0s0,0,0,0h-.02ZM10.43,3.61h0s.01,0,.01,0h0s-.02,0-.02,0ZM10.44,3.39h-.02s0,0,0,0h0s0,0,0,0h0,0ZM10.78,3.22h.02s-.03,0-.03,0h0ZM10.72,3.17h.02s0,0,0,0h-.02s0,0,0,0ZM10.67,3.22h.02s0,0,0,0h-.02s0,0,0,0ZM10.63,3.17h0s-.02,0-.02,0h0s.02,0,.02,0ZM10.56,3.22h0s-.02,0-.02,0h0ZM10.52,3.17h0s-.02,0-.02,0h0s.02,0,.02,0ZM10.48,3.32h.03s0,.02,0,.02h-.03s0-.02,0-.02ZM10.53,3.61h0s0,0,0,0h0ZM10.53,3.38h0s-.02,0-.02,0h0s0,0,0,0h.01s0,0,0,0h0ZM10.5,3.27v-.02h.02s0,0,0,0h.07v.02h-.08ZM10.58,3.34v-.02h0l.03.02h0s-.03,0-.03,0ZM10.64,3.61h-.02,0s.02,0,.02,0h0ZM10.63,3.39h0s.02,0,.02,0h0s-.02,0-.02,0ZM10.73,3.34h-.04v-.02h.02s.02,0,.02,0h0ZM10.74,3.56h0s0,0,0,0h0ZM10.74,3.39h0s0,0,0,0h0s0,0,0,0ZM10.77,3.26h0s-.16,0-.16,0v-.02h.02s0,0,0,0h0s.14,0,.14,0h0s.02,0,.02,0h0s-.02,0-.02,0h0s0,0,0,0ZM10.83,3.33v.02s-.02,0-.02,0h-.01s0,0,0,0h0s0,0,0,0h.02ZM10.85,3.18h-.01s.02,0,.02,0h0ZM11.06,3.08v-.02h0s0,.02,0,.02h-.02ZM11.16,3.19h0v-.02h0v.02ZM11.17,3.08h0s.02,0,.02,0h0ZM11.28,3.19h-.02s.02,0,.02,0h0ZM11.29,3.08h-.02s0,0,0,0h0s0,0,0,0ZM11.31,3.23h0s0,0,0,0h.01s-.02,0-.02,0ZM11.37,3.19h-.02s0,0,0,0h0s0,0,0,0ZM11.37,3.08v-.02l.02.02h-.02ZM12.43,3.18h0v.02h0v-.02ZM12.38,3.23h0s-.02,0-.02,0h0s.02,0,.02,0ZM12.32,3.19h0s0,0,0,0h0s-.02.02-.02.02v-.02ZM12.23,3.18v.02s0-.02,0-.02h0ZM12.13,3.18h0s0,0,0,0h0ZM12.06,3.23h0s0,0,0,0h0s0,0,0,0ZM12.02,3.08h0s0,0,0,0h0s0,0,0,0v.02s0-.02,0-.02ZM12.01,3.18h.02s0,.01,0,.01h0ZM11.91,3.08h0s0,.01,0,.01h0ZM11.9,3.18h.02s-.02,0-.02,0h0ZM11.79,3.18h0s.02,0,.02,0v.02h0s0,0,0,0h0s0-.01,0-.01ZM11.58,3.18h0s0,0,0,0h0s0,0,0,0h0ZM11.49,3.27h-.02s0-.02,0-.02h.04v.02ZM11.48,3.09h0v-.02h.02l-.02.02ZM11.54,3.27h0s0,0,0,0h0ZM11.58,3.35h-.02s0,0,0,0h0s0,0,0,0v-.02h.03v.02ZM11.6,3.27h-.01s0,0,0,0h-.02s.03,0,.03,0v.02ZM11.6,3.08h0s-.02.02-.02.02v-.02l.02-.02h0s0,.02,0,.02ZM11.65,3.35v-.02h.02s0,.01,0,.01h0s-.04,0-.04,0ZM11.69,3.2h0v-.02h.02v.02ZM11.71,3.08h-.02s0,0,0,0h0s.02-.02.02-.02h0v.02ZM11.79,3.35h-.03s0-.02,0-.02c0,0,.01,0,.01,0h0s.02,0,.02,0h0ZM11.85,3.32h-.02s0-.02,0-.02h0v.02ZM11.85,3.27h-.06s-.01,0-.01,0h0s.02,0,.02,0h0s.04,0,.04,0h0ZM11.88,3.35h0s0,0,0,0h0s.03,0,.03,0h-.02ZM11.93,3.4h0s0,0,0,0h0ZM11.97,3.27h-.07s.07,0,.07,0h0ZM12.01,3.35h0s0,0,0,0h-.02s.03-.01.03-.01h0ZM12.08,3.27h-.07v-.02h.02s.05,0,.05,0h0ZM12.09,3.34h.01s-.02,0-.02,0h0ZM12.11,3.52h0s0,0,0,0h0s0,0,0,0ZM12.15,3.28v.02h0s-.02.02-.02.02h0s0,0,0,0h0v-.07l.03-.02h0s0,.04,0,.04h.04s-.03,0-.03,0h0ZM12.22,3.35h0s0,0,0,0h0v-.02h.02,0ZM12.26,3.61h-.02s.02,0,.02,0h0ZM12.23,3.39h0s.01,0,.01,0h0s0,0,0,0h0ZM12.24,3.27h0s0,0,0,0h-.02s.07,0,.07,0h0s-.03,0-.03,0ZM12.31,3.36h-.02s0-.02,0-.02h.02s0,.02,0,.02ZM12.34,3.61h0s0,0,0,0h0s0,0,0,0ZM12.42,3.37h-.02l-.02-.02h0s.03,0,.03,0v.02ZM12.45,3.27h0s0,0,0,0h-.09s0,0,0,0h0s-.02,0-.02,0h0s.02,0,.02,0h0s0,0,0,0h.16,0s-.05,0-.05,0ZM12.5,3.32h0s0,.02,0,.02h0v-.02ZM12.53,3.37l-.02-.02h0s.02,0,.02,0v.02ZM12.53,3.27h0s0,0,0,0h0ZM12.53,3.19h.01s0-.01,0-.01c0,0,0,.02,0,.02s-.02,0-.02,0h0ZM12.56,3.4h-.02s0,0,0,0h0s0-.02,0-.02h.01,0ZM12.57,3.28h-.02s0,0,0,0h0s.11,0,.11,0h0s-.07,0-.07,0h0ZM12.61,3.35h0s.03,0,.03,0l.02.02h0s-.04,0-.04,0v-.02ZM12.67,3.42h-.02s0-.02,0-.02h0s.02,0,.02,0h0ZM12.71,3.27h0s0,0,0,0h0s-.01,0-.01,0h0s-.01,0-.01,0h0v-.02h.06ZM12.76,3.37h-.02v-.02h.02v.02ZM12.83,3.34h.03v.02h-.03v-.02ZM12.89,3.42h-.02v-.02h.02v.02ZM12.97,3.36h-.01s-.02,0-.02,0v-.02h.03v.02ZM13,3.4h-.02s.02,0,.02,0h0ZM13.1,3.63h-.02v-.02h.02v.02Z"/>
      <polygon points="10.44 4.24 10.45 4.24 10.45 4.25 10.44 4.26 10.43 4.26 10.44 4.24"/>
    </g>
    <path d="M16.78,1.87s-.02.05-.24.04l-.39.03h-.09s-.08-.02-.08-.02h-.06s-.44.05-.62.05l-1.09.05-.19.4-.31.62h.44s.15-.18.15-.18h.08s.11-.23.14-.28c0,0,.06-.12.07-.14,0,0,.02-.06.05-.06l.76-.06.97-.06h0s-.45.16-.45.16l-.61.2-.82.24h1.24s.11-.05.19-.07l.15-.04-.02-.02h.02s.01.01.01.01l.99-.36.1-.55-.41.02ZM15.62,2.69h-.02s-.04,0-.04,0h0s0,0,0,0h0s-.24,0-.24,0h0s.3,0,.3,0h.02v.02ZM15.86,2.72h-.02s.02,0,.02,0h0ZM15.95,2.72h-.05s.05,0,.05,0h0ZM16.01,2.72h-.02s.02,0,.02,0h0Z"/>
    <path d="M14.42,2.88l-.04.02v-.02h-.06l-.15.17h-.46l-.45.16v.04s0,0,0,0v-.03s-.06.01-.06.01h0s.25.21.25.21v-.02s.13,0,.13,0l-.02.02h-.05v.02h.01s0,.07,0,.07h-.03s-.02.04-.02.04c0,0,.06,0,.06,0v.04h-.02s-.05-.02-.05-.02c-.02.03-.11.24-.22.47,0,.02-.04.06-.04.08,0,.01,0,.03,0,.05-.1.21-.19.38-.19.38l-.33.7-.28.58s.03-.01.03-.01c.03-.05.11-.08.11-.08.05-.03.06-.07.06-.07l.17-.36c.04-.08.08-.12.08-.12h.02s.07-.05.07-.05h.03s.15-.14.15-.14l.25-.16s.02-.03.02-.03l.17-.36.39-.79c.05-.1.15-.29.15-.29l.58-.19h.01s0,0,0,0l.48-.15c.23-.06.52-.18.52-.18h-1.27ZM13.34,4.43h0s0,0,0,0h0ZM13.57,4.42h0s0,0,0,0h0ZM14.54,3.03h-.02s.02,0,.02,0h0ZM14.8,3.11l.02-.04h0s.05,0,.05,0v.02s.04.02.04.02h-.11Z"/>
    <polygon points="16.06 2.82 16.29 2.7 16.29 2.73 16.31 2.74 16.46 2.69 16.45 2.86 16.04 2.86 16.06 2.82"/>
    <path d="M17.9,1.96c0-.05.06-.1.06-.1l-.03-.06.05-.15v-.05l-.03.02h-.05s-.02.01-.02.01l-.08.13-.37.59-.33.53-.05.05-.18.11-.33.23-.32.21h-.02v-.02l.04-.03v-.02s0-.01,0-.01l.21-.51h-.42l-.15.35h.11s-.02.03-.02.03h-.04s-.06-.01-.06-.01l-.18.45v.02l.09.08c.08.07.22.16.22.16.04-.02.21-.16.21-.16.02-.01.2-.12.2-.12l.32-.23c.07-.05.09-.05.09-.05-.01.04-.17.36-.17.36,0,.02.04.02.04.02.05,0,.15.08.15.08.19.12.19.1.19.1l.33-.62h-.32s0-.02,0-.02h.16s.04,0,.04,0h0s.11,0,.11,0h0s.02,0,.02,0l.07-.13h-.32s.02-.02.02-.02h.02s0,0,0,0h.05s.02,0,.02,0h0s.12,0,.12,0h.02s.07-.01.07-.01l.27-.49s.11-.21.11-.21c.02-.04.05-.06.05-.06,0-.02.13-.24.13-.24-.03-.03-.1-.22-.1-.22ZM16.26,3.02h.02s.02,0,.02,0h0s-.04,0-.04,0v-.02ZM16.07,3.02h.04s-.04,0-.04,0h0ZM16.15,3.25h-.07s-.05,0-.05,0h0s-.03,0-.03,0h0s0-.02,0-.02v-.03s-.02,0-.02,0h0s.09,0,.09,0h0s0,.02,0,.02h.03l.02.02h.02v.02ZM16.17,3.37h0s0,0,0,0h0ZM16.15,3.03h0s.08,0,.08,0h0s0,0,0,0h0s0,0,0,0h0s-.06,0-.06,0ZM16.49,3.37h-.01s0,0,0,0v-.02h.02ZM16.59,3.37h0s0,0,0,0h0ZM16.82,3.38v-.02s0,0,0,0v.02ZM16.9,3.41h0s0,.01,0,.01h0ZM16.9,3.47h0s0,.02,0,.02v.02h-.01v-.04ZM16.9,3.55h.02,0s0,0,0,0h0ZM17.01,3.63h-.03v.02s.02.02.02.02h0s-.03,0-.03,0h0s-.02,0-.02,0h0s-.02-.01-.02-.01v-.04h0s0-.05,0-.05h.02s.08.02.08.02h0v.02ZM17.08,3.74h-.02s.02,0,.02,0h0ZM17.07,3.56h-.14v-.02h.17l-.03.02ZM16.95,3.49h.06v.02s0,0,0,0h-.03l-.02-.02ZM17.23,3.47h-.01s-.03,0-.03,0h0s0,0,0,0h-.24s0-.02,0-.02h.3s-.01.02-.01.02ZM17.29,3.4l-.02.02h-.12s-.01,0-.01,0h-.02s-.02,0-.02,0h0s0,0,0,0h0s-.08,0-.08,0h0s0-.02,0-.02h.29Z"/>
    <path d="M18.31,1.96s-.17.29-.23.42c0,0-.15.29-.19.35l-.25.46h.06s0,0,0,0h.03s0,0,0,0h0s.11,0,.11,0h0s.04,0,.04,0h.01s.23,0,.23,0l.16-.26.06.27h.04s.1,0,.1,0h.01s.61,0,.61,0l.26-.48h-.05s-.09.02-.09.02h-.34s-.19.33-.19.33c0,0-.15-.68-.26-.96h-.14s0-.05-.03-.07h0s.03-.07.03-.07v-.03s-.02.02-.02.02Z"/>
    <path d="M19.6,2.06h-.13s-.17,0-.17,0c-.1.13-.37.64-.37.64h.06s.01,0,.01,0h.14s.01,0,.01,0h.14s.13-.02.13-.02l.35-.64h-.16ZM19.11,2.69h-.09s.09,0,.09,0h0Z"/>
    <path d="M17.63,3.21s-.19.35-.25.49h.03s.03,0,.03,0h.03s.2-.04.42-.06h.02s.14-.27.14-.27h-.18s-.02-.02-.02-.02h.22s.07-.12.07-.12h-.37s0,0,0,0h-.13Z"/>
    <path d="M18.96,3.52s.14-.26.16-.3h-.47s-.01,0-.01,0h-.04,0s0,0,0,0h0s-.02,0-.02,0h-.01s-.04,0-.04,0h0s-.04,0-.04,0h0s-.01,0-.01,0h-.08s.12.49.12.49h.36s.08-.16.08-.16h-.08s0,0,0,0c0,0,.03-.01.09-.02ZM18.84,3.55h0s0,0,0,0h0Z"/>
    <path d="M23.13,1.14l-.54.27-.45.21-.49.24-1.34.66h-.01s.35-.65.35-.65l-.46.02h-.04s-.03-.06-.03-.06h-.01s-.31.57-.31.57l-.16.3h.05s.01,0,.01,0h.07s0,0,0,0h.04s.04,0,.04,0h0s.02,0,.02,0h0s.21,0,.21,0l.06.04v.02s.04,0,.04,0l.04.02h.03s.06.04.06.04l.03.03h.03s.06.04.06.04v.02h-.03s-.18-.11-.18-.11h-.02s-.02-.02-.02-.02h-.02s0,0,0,0h-.02s0,0,0,0l-.02-.02h-.02s-.02-.03-.02-.03h-.03s-.05,0-.05,0h0s-.07,0-.07,0h0s-.02,0-.02,0h0s-.06,0-.06,0h-.01s-.21,0-.21,0l-.22.4h0s.02.06.02.06h.36s.02,0,.02,0h.01s.12,0,.12,0l.08-.14c.03-.05.08-.12.08-.12l.23.12c.13.07.26.15.26.15h.01s.02-.01.02-.01v-.03s.03.03.03.03h.33s.02,0,.02,0h0s.01,0,.01,0h0s.1,0,.1,0h.02s.02,0,.02,0h.05s.03,0,.03,0h0s.08,0,.08,0h0s.02-.05.02-.05c.04-.03.09-.05.09-.05h0s-.14-.1-.14-.1l-.21-.13-.13-.08-.14-.08h-.06v-.02s.03,0,.03,0l-.02-.03.66-.34.53-.28s.04-.03.04-.03c.03-.04.09-.07.09-.07l.12-.06.5-.25c.06-.03.09-.08.09-.08l.1-.16c.07-.12.17-.15.17-.15l.09-.12s-.02-.01-.02-.01ZM20.31,2.69h-.07s.07,0,.07,0h0ZM20.47,2.89h0s0,0,0,0h0s0,0,0,0h0s.02,0,.02,0h0s-.02,0-.02,0ZM20.89,2.88h.02s-.02,0-.02,0h0ZM20.89,2.92h.02v-.02h0v.02h.02v.02h-.06v-.02ZM20.85,2.89h0s0,0,0,0h0Z"/>
    <path d="M19.93,3.21h-.12s-.38,0-.38,0c.04.08.03.12.03.12h.01s.01,0,.01,0v.02s-.15.3-.15.3l-.02.02h0s.25.2.25.2h0s.1-.2.1-.2l.14-.25h-.02s-.22.01-.22.01h0s.22-.02.22-.02h.03l.03-.05h-.26v-.02s.27,0,.27,0l.07-.13ZM19.62,3.53h0s-.03,0-.03,0h0s-.02.01-.02.01v.02h-.12l.02-.02v-.03s0,0,0,0h.02s0,0,0,0h.03s0,0,0,0h.04s.02,0,.02,0v.02h.04s.02,0,.02,0h0s-.03,0-.03,0ZM19.6,3.46h0s.02,0,.02,0h0s.04,0,.04,0h0s.06,0,.06,0v.02h0s-.24,0-.24,0h.03s.07-.01.07-.01Z"/>
    <path d="M23.9,4.81l-.09-.05s-.2-.11-.2-.11h-.02s-.07.02-.07.02h-.04l-.24-.14h-.01s-.04,0-.04,0h0s-.01,0-.01,0h-.01s-.03-.01-.03-.01v-.04s.03,0,.03,0l-.52-.28h-.01s0,0,0,0l-.58-.31-.11-.06-.34-.19v-.02s-.05-.21-.05-.21h-.22,0s-.03,0-.03,0h0s-.02,0-.02,0h-.01s-.04,0-.04,0l-.02-.02h.07v-.02h-.33s.13,0,.13,0l.03-.04h.4l-.12-.07h-.2s-.29,0-.29,0h0s-.03,0-.03,0h0s0,0,0,0h0s-.24,0-.24,0l.12.06c.03.06.07.07.07.07l2.09,1.12h.05s-.02.01-.02.01l.05.03h0s0-.03,0-.03h-.02s0,0,0,0h.03s0,0,0,0h.02s-.02.03-.02.03h0s0,.02,0,.02h0s-.02,0-.02,0h0s.62.34.62.34h.02s.25,0,.25,0v-.02s0-.03,0-.03ZM23.06,4.45h-.02s.02,0,.02,0h0ZM23.07,4.48h.02s-.02,0-.02,0h0ZM23.1,4.53h-.02s0,0,0,0h0s0-.02,0-.02h.02Z"/>
    <path d="M23.66,4.87h.25s.03.03.05.04h0s0,.02,0,.02v.03s0,.03,0,.03v.02l.04.03h-.01l-.32-.17h0Z"/>
  </g>
</svg>