<?xml version="1.0" encoding="UTF-8"?>
<svg id="Layer_1" data-name="Layer 1" xmlns="http://www.w3.org/2000/svg" viewBox="0 0 24 15.3">
  <g>
    <g>
      <polygon points="8.76 13.83 8.77 13.82 8.78 13.82 8.78 13.83 8.78 13.84 8.77 13.83 8.76 13.83"/>
      <polygon points="8.84 13.82 8.86 13.82 8.87 13.83 8.85 13.84 8.84 13.84 8.84 13.82"/>
      <polygon points="9.01 13.82 9.01 13.84 9.04 13.84 9.04 13.83 9.03 13.82 9.01 13.82"/>
      <polygon points="9.01 13.69 9.01 13.64 9 13.63 9 13.62 9.01 13.62 9.01 13.63 9.03 13.65 9.03 13.69 9.01 13.69"/>
      <rect x="9.5" y="13.62" width=".01" height=".03"/>
      <polygon points="9.03 13.86 9.04 13.89 9.06 13.89 9.06 13.86 9.03 13.86"/>
      <polygon points="9.08 13.82 9.11 13.82 9.11 13.84 9.1 13.84 9.08 13.83 9.08 13.82"/>
      <polygon points="9.47 13.83 9.49 13.82 9.5 13.82 9.48 13.84 9.48 13.86 9.47 13.86 9.47 13.83"/>
      <polygon points="9.48 13.74 9.48 13.73 9.5 13.71 9.51 13.73 9.51 13.74 9.48 13.74"/>
      <rect x="9.99" y="13.63" width=".01" height=".02"/>
      <polygon points="10.03 13.62 10.06 13.62 10.07 13.63 10.05 13.66 10.05 13.67 10.03 13.67 10.03 13.62"/>
      <polygon points="9.87 13.84 9.87 13.83 9.88 13.82 9.88 13.83 9.88 13.84 9.87 13.84"/>
      <polygon points="9.93 13.84 9.93 13.83 9.94 13.82 9.95 13.83 9.94 13.84 9.93 13.84"/>
      <rect x="9.96" y="13.86" width=".01" height=".01"/>
      <polygon points="10.02 13.87 10.03 13.89 10.04 13.9 10.04 13.87 10.02 13.87"/>
      <polygon points="10.11 13.83 10.13 13.83 10.14 13.84 10.14 13.86 10.13 13.87 10.11 13.86 10.11 13.83"/>
      <polygon points="10.19 13.83 10.2 13.83 10.21 13.82 10.23 13.83 10.24 13.83 10.27 13.82 10.3 13.82 10.31 13.83 10.31 13.84 10.3 13.86 10.29 13.86 10.28 13.84 10.24 13.84 10.21 13.88 10.2 13.86 10.19 13.86 10.19 13.83"/>
      <polygon points="10.37 13.83 10.38 13.82 10.38 13.83 10.38 13.84 10.37 13.84 10.37 13.83"/>
      <polygon points="10.53 13.62 10.57 13.62 10.59 13.63 10.57 13.64 10.56 13.64 10.56 13.66 10.55 13.67 10.53 13.67 10.53 13.64 10.54 13.64 10.53 13.63 10.53 13.62"/>
      <rect x="10.32" y="13.63" width=".02" height=".02" transform="translate(-6.77 14.43) rotate(-55.49)"/>
      <polygon points="10.49 13.64 10.49 13.63 10.5 13.63 10.51 13.66 10.49 13.66 10.49 13.64"/>
      <polygon points="10.62 13.67 10.63 13.7 10.64 13.7 10.64 13.67 10.62 13.67"/>
      <polygon points="10.66 13.69 10.67 13.69 10.69 13.67 10.7 13.67 10.7 13.69 10.7 13.7 10.66 13.7 10.66 13.69"/>
      <polygon points="10.59 13.73 10.59 13.74 10.61 13.74 10.6 13.73 10.59 13.73"/>
      <polygon points="10.64 13.72 10.67 13.72 10.7 13.73 10.71 13.74 10.66 13.74 10.64 13.73 10.64 13.72"/>
      <polygon points="10.84 13.83 10.86 13.81 10.87 13.83 10.87 13.84 10.86 13.84 10.83 13.86 10.84 13.83"/>
      <polygon points="10.53 13.83 10.56 13.83 10.56 13.86 10.54 13.84 10.53 13.84 10.53 13.83"/>
      <polygon points="10.6 13.83 10.63 13.83 10.64 13.86 10.64 13.87 10.63 13.87 10.62 13.84 10.6 13.84 10.6 13.83"/>
      <polygon points="10.96 13.82 10.96 13.83 10.96 13.84 10.97 13.84 10.96 13.82"/>
    </g>
    <path d="M12.82,13.43h-.44l-.44.44h-.14s-.01-.01-.01-.01h-.01s-.12.01-.12.01h0s0,0,0,0h-.04v-.02.02h-.04s0,0,0,0h-.04.01v-.03h.01v-.03h-.03l-.02.03v.03h-.01s-.01,0-.01,0h-.05s-.01,0-.01,0h-.25,0v-.04h-.01v.04s-.9,0-.9,0h0s-.01,0-.01,0v.03h-.43s0,.01,0,.01h-.01s0-.01,0-.01h-.04s.04-.01.04-.01h0s.04-.01.04-.01h0s-.01-.03-.01-.03v-.02s.18-.21.18-.21v-.03s.03,0,.03,0l.17-.23s.04-.08.04-.17c0,0,.02-.24-.2-.34,0,0-.1-.05-.19-.04,0,0-.12-.01-.25.13h-.01s.01.03.01.03h0s-.04.03-.04.03c0,0-.05.07-.04.11v.07s.18,0,.18,0c0,0,.02-.19.21-.17,0,0,.14,0,.15.19,0,0,0,.05-.04.1l-.32.4h.03,0s-.04.01-.04.01l-.16.19h0s.04.01.04.01h0s-.01.01-.01.01h0s-.03.01-.03.01h-.01s0,.17,0,.17h.73v-.19h.12s0,0,0,0h.04s0,0,0,0h0s.71,0,.71,0h0s0,0,0,0h.07s0,0,0,0h0s.53,0,.53,0h.01s.14,0,.14,0h.02s.11-.12.11-.12h.01s0-.01,0-.01l.1-.1h.01s0-.01,0-.01l.2-.2h.01s0,.03,0,.03h.02s0-.03,0-.03h.4s0,.04,0,.04v.03s.01-.15.01-.15v.05Z"/>
    <g>
      <polygon points="11.14 13.64 11.14 13.63 11.16 13.64 11.17 13.64 11.17 13.66 11.16 13.67 11.14 13.66 11.14 13.64"/>
      <polygon points="11.32 13.84 11.33 13.83 11.34 13.82 11.39 13.82 11.4 13.82 11.41 13.83 11.4 13.84 11.34 13.84 11.33 13.86 11.32 13.85 11.32 13.84"/>
      <polygon points="11.61 13.84 11.63 13.82 11.66 13.82 11.69 13.83 11.74 13.83 11.76 13.82 11.77 13.82 11.79 13.83 11.79 13.84 11.62 13.84 11.61 13.84"/>
      <polygon points="10.7 13.87 10.71 13.84 10.73 13.85 10.73 13.87 10.7 13.87"/>
      <polygon points="11.86 13.84 11.87 13.83 11.87 13.84 11.87 13.84 11.86 13.84"/>
      <polygon points="12.06 13.82 12.1 13.82 12.12 13.82 12.12 13.83 12.1 13.84 12.07 13.84 12.06 13.83 12.06 13.82"/>
      <polygon points="12.43 13.49 12.42 13.5 12.42 13.52 12.43 13.53 12.44 13.52 12.44 13.5 12.43 13.49"/>
      <polygon points="12.26 13.65 12.24 13.66 12.24 13.67 12.26 13.69 12.27 13.69 12.27 13.66 12.26 13.65"/>
      <polygon points="12.36 13.63 12.37 13.63 12.38 13.62 12.44 13.62 12.46 13.63 12.44 13.64 12.44 13.66 12.44 13.67 12.44 13.69 12.43 13.68 12.43 13.67 12.41 13.66 12.37 13.66 12.37 13.64 12.36 13.64 12.36 13.63"/>
      <polygon points="12.45 13.71 12.44 13.72 12.44 13.73 12.45 13.74 12.46 13.73 12.46 13.72 12.45 13.71"/>
      <polygon points="12.51 13.66 12.5 13.67 12.51 13.69 12.52 13.67 12.51 13.66"/>
      <polygon points="12.54 13.66 12.56 13.64 12.57 13.64 12.57 13.66 12.58 13.67 12.59 13.67 12.6 13.66 12.62 13.66 12.66 13.66 12.69 13.67 12.67 13.69 12.66 13.69 12.65 13.67 12.62 13.68 12.62 13.69 12.55 13.69 12.54 13.67 12.56 13.67 12.54 13.66"/>
      <polygon points="12.7 13.71 12.71 13.7 12.72 13.71 12.71 13.73 12.7 13.71"/>
      <polygon points="12.75 13.71 12.76 13.69 12.77 13.67 12.77 13.69 12.79 13.7 12.79 13.72 12.77 13.73 12.76 13.72 12.75 13.71"/>
      <polygon points="12.78 13.74 12.77 13.76 12.78 13.77 12.79 13.76 12.78 13.74"/>
      <polygon points="12.52 13.8 12.53 13.79 12.55 13.77 12.58 13.79 12.62 13.79 12.64 13.79 12.73 13.77 12.75 13.79 12.76 13.79 12.76 13.8 12.76 13.8 12.69 13.81 12.69 13.79 12.67 13.79 12.66 13.79 12.66 13.8 12.66 13.82 12.6 13.82 12.59 13.82 12.55 13.82 12.53 13.8 12.52 13.8"/>
    </g>
    <g>
      <polygon points="13.01 13.66 13.03 13.67 13.04 13.68 13.06 13.67 13.07 13.66 13.1 13.66 13.11 13.67 13.13 13.67 13.13 13.66 13.14 13.65 13.16 13.67 13.16 13.67 13.15 13.69 13.15 13.7 13.16 13.71 13.16 13.72 13.15 13.73 13.14 13.71 13.13 13.72 13.12 13.72 13.12 13.7 13.13 13.69 13.13 13.69 13.09 13.69 13.07 13.69 13.06 13.68 13.06 13.68 13.06 13.69 13.06 13.7 13.05 13.72 13.04 13.72 13.03 13.7 13.03 13.69 13 13.69 13.01 13.66"/>
      <polygon points="13.15 13.56 13.17 13.56 13.17 13.59 13.16 13.57 13.15 13.56 13.15 13.56"/>
      <polygon points="13.25 13.52 13.26 13.52 13.26 13.54 13.25 13.54 13.25 13.53 13.25 13.52"/>
      <polygon points="13.25 13.47 13.25 13.46 13.26 13.47 13.26 13.49 13.25 13.49 13.25 13.47"/>
      <polygon points="13.2 13.69 13.2 13.7 13.22 13.72 13.23 13.73 13.23 13.72 13.25 13.71 13.23 13.7 13.23 13.69 13.2 13.69"/>
      <polygon points="13.27 13.67 13.28 13.66 13.29 13.67 13.29 13.69 13.27 13.69 13.27 13.67"/>
      <polygon points="13.33 13.67 13.34 13.66 13.35 13.67 13.35 13.69 13.33 13.69 13.33 13.67"/>
      <polygon points="13.05 13.73 13.07 13.73 13.08 13.72 13.09 13.73 13.12 13.73 13.12 13.74 13.05 13.74 13.05 13.73"/>
    </g>
    <path d="M13.2,12.8c-.2,0-.36.15-.36.34v.63c0,.06.02.11.04.16h.05s-.04.01-.04.01c0,.01.02.02.02.03h.02s0,.01,0,.01h.03s.01-.01.01-.01h0s.01,0,.01,0h0s0,0,0,0h.03s0,0,0,0v.02s0,.03,0,.03h0s-.03-.01-.03-.01h-.01s0,.02,0,.02c.06.04.14.07.22.07.2,0,.36-.15.36-.34v-.63c0-.19-.17-.34-.36-.34ZM13.36,13.44v.3s-.01.07-.03.1v.03s-.03,0-.03,0c-.03.02-.07.04-.11.04-.02,0-.05,0-.07-.01l-.02.02-.04.02v.02h-.02v-.04s.03,0,.03,0h0s.01-.01.01-.01h.01s-.08-.09-.08-.15v-.59c0-.09.08-.16.17-.16s.17.07.17.16v.29Z"/>
    <polygon points="13.53 13.42 13.6 13.42 13.63 13.42 14.13 13.42 14.15 13.42 14.17 13.42 14.73 13.42 14.75 13.42 15.02 13.42 15.03 13.43 15.03 13.41 15.06 13.42 15.06 13.45 15.06 13.46 13.99 13.46 13.97 13.49 13.96 13.52 13.95 13.52 13.93 13.51 13.95 13.49 13.95 13.47 13.93 13.45 13.76 13.45 13.75 13.46 13.59 13.46 13.58 13.45 13.57 13.46 13.53 13.46 13.53 13.42"/>
    <path d="M15.2,13.6c-.09,0-.16-.07-.16-.16s.07-.16.16-.16.16.07.16.16-.07.16-.16.16ZM15.2,13.33c-.06,0-.11.05-.11.11s.05.11.11.11.11-.05.11-.11-.05-.11-.11-.11Z"/>
    <g>
      <polygon points="15.33 13.46 15.38 13.46 15.45 13.46 15.56 13.46 15.55 13.47 15.51 13.48 15.36 13.49 15.33 13.49 15.33 13.47 15.33 13.46"/>
      <polygon points="15.66 13.43 15.46 13.43 15.42 13.42 15.45 13.41 15.66 13.4 15.66 13.43"/>
      <polygon points="15.68 13.44 15.71 13.42 15.75 13.42 15.76 13.4 15.78 13.42 15.78 13.43 15.75 13.44 15.69 13.44 15.68 13.44"/>
      <polygon points="15.85 13.45 15.86 13.42 15.88 13.4 15.91 13.42 15.91 13.43 15.88 13.46 15.87 13.47 15.86 13.46 15.85 13.46 15.85 13.45"/>
      <polygon points="15.96 13.43 15.99 13.4 16.02 13.4 16.03 13.42 16.12 13.41 16.13 13.4 16.15 13.42 16.16 13.42 16.18 13.42 16.15 13.44 16.06 13.44 16.05 13.44 16.03 13.44 16.02 13.44 15.98 13.44 15.96 13.43"/>
      <polygon points="15.98 13.58 16 13.56 16.05 13.57 16.06 13.58 16.05 13.6 16.02 13.62 16.01 13.62 15.99 13.6 15.98 13.6 15.98 13.58"/>
      <polygon points="15.92 13.64 15.94 13.62 15.98 13.62 15.99 13.63 16.06 13.63 16.08 13.62 16.13 13.62 16.16 13.63 16.16 13.64 16.09 13.64 16.09 13.63 16.08 13.64 16.01 13.64 15.99 13.66 15.95 13.66 15.94 13.64 15.92 13.64 15.92 13.64"/>
      <polygon points="16.18 13.59 16.18 13.6 16.19 13.62 16.19 13.6 16.18 13.59"/>
      <polygon points="16.24 13.59 16.24 13.6 16.25 13.62 16.26 13.62 16.28 13.6 16.26 13.59 16.24 13.59"/>
      <polygon points="15.51 13.65 15.48 13.66 15.48 13.69 15.51 13.69 15.52 13.67 15.52 13.65 15.51 13.65"/>
      <rect x="15.26" y="13.67" width=".01" height=".01"/>
      <polygon points="15.02 13.68 15.05 13.65 15.06 13.65 15.09 13.67 15.15 13.67 15.17 13.65 15.19 13.67 15.21 13.67 15.21 13.69 15.19 13.69 15.11 13.69 15.1 13.69 15.08 13.69 15.06 13.69 15.02 13.69 15.02 13.68"/>
      <rect x="14.99" y="13.53" width=".01" height=".01"/>
      <polygon points="14.96 13.82 14.99 13.8 15.08 13.8 15.1 13.82 15.18 13.82 15.19 13.83 15.18 13.83 15.03 13.83 15.02 13.82 15.01 13.83 14.96 13.83 14.96 13.82"/>
      <polygon points="14.89 13.72 14.9 13.69 14.9 13.67 14.92 13.65 14.94 13.67 14.93 13.68 14.92 13.69 14.92 13.72 14.89 13.72"/>
      <polygon points="14.72 13.69 14.75 13.67 14.79 13.67 14.79 13.66 14.8 13.65 14.82 13.67 14.81 13.69 14.75 13.69 14.73 13.7 14.72 13.69"/>
      <polygon points="14.63 13.72 14.64 13.72 14.66 13.72 14.65 13.73 14.63 13.72"/>
      <polygon points="14.52 13.72 14.55 13.7 14.55 13.67 14.56 13.66 14.58 13.68 14.58 13.7 14.55 13.72 14.54 13.73 14.52 13.72"/>
      <polygon points="14.3 13.82 14.35 13.8 14.4 13.8 14.53 13.8 14.58 13.8 14.61 13.81 14.58 13.83 14.33 13.83 14.3 13.82"/>
      <polygon points="14.23 13.69 14.26 13.66 14.28 13.67 14.28 13.69 14.25 13.7 14.23 13.69"/>
      <polygon points="14.36 13.67 14.37 13.66 14.39 13.67 14.38 13.68 14.36 13.67"/>
      <polygon points="14.1 13.72 14.13 13.67 14.13 13.7 14.15 13.72 14.15 13.73 14.13 13.73 14.1 13.72"/>
      <polygon points="14 13.67 14.03 13.67 14.06 13.7 14.05 13.72 14.03 13.72 14.03 13.7 14.02 13.69 14 13.69 14 13.67"/>
      <polygon points="13.95 13.67 13.98 13.67 13.95 13.7 13.95 13.69 13.95 13.67"/>
      <polygon points="13.93 13.72 13.95 13.72 13.96 13.72 13.96 13.73 13.94 13.73 13.93 13.72"/>
      <polygon points="13.99 13.58 14 13.57 14.02 13.58 14.01 13.59 13.99 13.58"/>
      <polygon points="14.02 13.53 14.02 13.52 14.05 13.52 14.05 13.53 14.04 13.54 14.03 13.53 14.02 13.53"/>
      <polygon points="14.1 13.56 14.12 13.57 14.12 13.59 14.06 13.59 14.05 13.57 14.05 13.56 14.06 13.53 14.07 13.53 14.1 13.52 14.12 13.54 14.1 13.54 14.08 13.54 14.08 13.54 14.06 13.56 14.1 13.56"/>
      <polygon points="13.59 13.67 13.6 13.67 13.62 13.66 13.64 13.67 13.68 13.66 13.7 13.66 13.73 13.68 13.72 13.7 13.72 13.73 13.71 13.73 13.7 13.72 13.7 13.7 13.69 13.69 13.65 13.69 13.63 13.71 13.63 13.72 13.62 13.73 13.6 13.73 13.6 13.72 13.59 13.7 13.59 13.67"/>
      <polygon points="13.76 13.72 13.77 13.72 13.79 13.72 13.77 13.73 13.76 13.72"/>
      <polygon points="13.77 13.67 13.78 13.66 13.79 13.67 13.78 13.69 13.77 13.67"/>
      <polygon points="13.9 13.49 13.91 13.47 13.92 13.49 13.91 13.5 13.9 13.49"/>
      <polygon points="13.72 13.49 13.73 13.47 13.75 13.49 13.73 13.5 13.72 13.49"/>
    </g>
    <path d="M16.47,12.8v.02s-.02,0-.02,0h-.01s-.07-.02-.07-.02h-.02s-.22-.01-.22-.01v.39h.2s0-.19,0-.19h.22s.01-.01.01-.01h0s.07.01.07.01l-.22.55h0s-.02.03-.02.03v.02s0,0,0,0h-.02s-.18.48-.18.48h.05s.03-.01.03-.01h.01s.14.01.14.01l.43-1.09v-.2h-.4ZM16.57,12.92h0s0-.01,0-.01h0s0,.01,0,.01Z"/>
    <path d="M19.42,12.8v.26h.02s-.02.02-.02.02v.11h.1s0-.02,0-.02v.02s.09,0,.09,0v-.19h.31l-.33.84h.02s-.03.03-.03.03l-.09.22h.12s0,0,0,0h.1l.2-.51h-.03s.03-.03.03-.03h0s.22-.54.22-.54v-.2h-.74ZM19.8,13.66h-.03s.01-.03.01-.03h.02v.03Z"/>
    <polygon points="16.67 13.4 18.11 13.41 18.13 13.4 18.15 13.4 18.16 13.41 18.17 13.4 18.18 13.4 18.19 13.41 18.2 13.4 18.34 13.4 18.36 13.41 18.39 13.41 18.41 13.4 18.47 13.4 18.48 13.42 18.52 13.42 18.54 13.4 18.55 13.4 18.57 13.41 18.56 13.43 18.55 13.43 18.54 13.44 18.48 13.44 18.47 13.44 18.11 13.44 18.09 13.44 18.05 13.44 18.04 13.44 17.99 13.44 17.98 13.44 17.94 13.44 17.92 13.44 17.78 13.44 17.76 13.44 17.74 13.44 17.69 13.43 17.64 13.43 17.58 13.44 17.57 13.44 17.55 13.44 17.48 13.44 17.47 13.44 16.64 13.44 16.67 13.4"/>
    <polygon points="17.15 13.37 17.17 13.36 17.19 13.36 17.19 13.37 17.16 13.37 17.15 13.37"/>
    <polygon points="17.31 13.37 17.32 13.36 17.34 13.36 17.35 13.37 17.34 13.37 17.32 13.37 17.31 13.37"/>
    <polygon points="17.49 13.36 17.49 13.37 18.05 13.37 18.08 13.39 18.1 13.37 18.24 13.37 18.26 13.39 18.28 13.37 18.29 13.37 18.32 13.39 18.34 13.37 18.35 13.37 18.37 13.37 18.35 13.36 17.49 13.36"/>
    <polygon points="18.39 13.37 18.41 13.36 18.42 13.37 18.41 13.39 18.39 13.37"/>
    <polygon points="16.59 13.63 16.65 13.63 16.66 13.63 16.68 13.64 16.66 13.66 16.65 13.66 16.63 13.64 16.61 13.64 16.59 13.63"/>
    <polygon points="16.87 13.64 16.88 13.63 16.91 13.63 16.92 13.64 16.9 13.66 16.88 13.66 16.87 13.64"/>
    <polygon points="17.05 13.64 17.06 13.63 17.08 13.64 17.06 13.66 17.05 13.66 17.05 13.64"/>
    <polygon points="17.25 13.63 17.32 13.63 17.32 13.66 17.29 13.66 17.25 13.65 17.25 13.63"/>
    <polygon points="17.38 13.65 17.39 13.64 17.41 13.64 17.41 13.66 17.39 13.66 17.38 13.65"/>
    <polygon points="17.42 13.64 17.44 13.63 17.45 13.63 17.47 13.64 17.44 13.66 17.42 13.64"/>
    <rect x="17.48" y="13.64" width=".01" height=".01"/>
    <polygon points="17.54 13.64 17.55 13.64 17.56 13.65 17.55 13.66 17.54 13.66 17.54 13.64"/>
    <polygon points="17.59 13.64 17.61 13.63 17.64 13.63 17.65 13.64 17.77 13.64 17.78 13.63 17.79 13.63 17.81 13.64 17.94 13.64 17.95 13.63 17.97 13.63 17.98 13.64 18.18 13.64 18.19 13.65 18.18 13.66 18.17 13.66 18.15 13.67 18.12 13.66 17.75 13.66 17.74 13.67 17.72 13.66 17.72 13.66 17.64 13.66 17.61 13.66 17.59 13.64"/>
    <polygon points="16.71 13.64 16.72 13.63 16.74 13.64 16.72 13.66 16.71 13.64"/>
    <polygon points="18.25 13.64 18.32 13.64 18.33 13.66 18.34 13.64 18.35 13.64 18.36 13.65 18.38 13.64 18.49 13.64 18.54 13.65 18.58 13.65 18.59 13.64 18.68 13.64 18.71 13.66 18.75 13.66 18.77 13.64 18.85 13.64 18.87 13.66 18.95 13.65 18.95 13.64 19 13.64 19.02 13.65 19.1 13.65 19.11 13.64 19.14 13.64 19.16 13.65 19.18 13.66 19.17 13.67 19.15 13.69 19.12 13.67 19.07 13.67 19.05 13.69 19.04 13.67 18.86 13.67 18.82 13.69 18.79 13.69 18.78 13.67 18.74 13.67 18.73 13.69 18.72 13.67 18.71 13.67 18.68 13.65 18.68 13.67 18.65 13.67 18.65 13.66 18.64 13.67 18.62 13.67 18.62 13.66 18.6 13.66 18.58 13.67 18.45 13.67 18.44 13.66 18.41 13.66 18.4 13.67 18.37 13.67 18.35 13.66 18.34 13.67 18.33 13.67 18.31 13.67 18.29 13.66 18.25 13.66 18.25 13.64"/>
    <polygon points="19.22 13.62 19.24 13.6 19.25 13.62 19.24 13.63 19.22 13.62"/>
    <polygon points="19.35 13.67 19.37 13.64 19.39 13.66 19.41 13.67 19.39 13.69 19.37 13.69 19.35 13.67"/>
    <polygon points="19.38 13.62 19.4 13.6 19.41 13.62 19.4 13.63 19.38 13.62"/>
    <polygon points="19.42 13.66 19.45 13.64 19.47 13.64 19.51 13.65 19.52 13.67 19.51 13.67 19.5 13.67 19.48 13.69 19.45 13.67 19.42 13.67 19.42 13.66"/>
    <polygon points="19.52 13.62 19.55 13.6 19.57 13.62 19.55 13.63 19.52 13.62"/>
    <polygon points="19.54 13.67 19.58 13.66 19.6 13.64 19.65 13.64 19.66 13.66 19.68 13.67 19.67 13.68 19.66 13.69 19.54 13.69 19.54 13.67"/>
    <rect x="19.18" y="13.83" width=".04" height=".01"/>
    <polygon points="19.17 13.91 19.18 13.9 19.19 13.91 19.19 13.92 19.17 13.91"/>
    <rect x="19.21" y="13.9" width=".01" height=".01"/>
    <polygon points="19.25 13.9 19.27 13.89 19.28 13.9 19.28 13.92 19.25 13.92 19.25 13.9"/>
    <polygon points="19.45 13.78 19.46 13.77 19.46 13.78 19.46 13.79 19.45 13.78"/>
    <path d="M18.7,13.58c-.09,0-.16-.07-.16-.16s.07-.16.16-.16.16.07.16.16-.07.16-.16.16ZM18.7,13.31c-.06,0-.11.05-.11.11s.05.11.11.11.11-.05.11-.11-.05-.11-.11-.11Z"/>
    <polygon points="18.82 13.36 18.88 13.36 18.97 13.37 19.81 13.36 19.8 13.39 18.97 13.39 18.94 13.38 18.84 13.38 18.82 13.36"/>
    <polygon points="18.85 13.42 19.02 13.42 19.13 13.42 19.57 13.43 19.78 13.43 19.81 13.43 19.79 13.44 19.77 13.44 19.14 13.44 19.03 13.43 19.02 13.43 19 13.44 18.93 13.43 18.89 13.43 18.85 13.43 18.85 13.42"/>
    <polygon points="20 13.37 20.04 13.37 20.05 13.39 20.07 13.37 20.1 13.37 20.12 13.36 20.14 13.37 20.15 13.38 20.15 13.39 20.17 13.37 20.27 13.37 20.28 13.36 20.3 13.37 20.31 13.39 20.33 13.37 20.37 13.37 20.4 13.39 20.44 13.37 20.5 13.37 20.81 13.37 20.83 13.39 20.84 13.39 20.86 13.37 20.88 13.38 20.88 13.39 20.9 13.39 20.9 13.37 20.94 13.37 20.96 13.39 21.51 13.39 21.58 13.4 21.46 13.42 21.21 13.42 21.2 13.4 21.18 13.42 21.15 13.42 21.14 13.4 21.13 13.41 21.04 13.41 21.03 13.41 21.03 13.42 20.97 13.42 20.95 13.41 20.94 13.42 20.9 13.42 20.87 13.4 20.63 13.4 20.6 13.42 20.58 13.42 20.57 13.4 19.96 13.4 20 13.37"/>
    <polygon points="19.93 13.53 19.97 13.54 19.9 13.54 19.93 13.53"/>
    <polygon points="19.87 13.65 19.92 13.67 19.9 13.69 19.85 13.69 19.87 13.65"/>
    <polygon points="19.97 13.43 20.22 13.43 20.22 13.44 20.2 13.44 20.18 13.46 20.15 13.46 20.13 13.44 20.04 13.44 20.01 13.46 20 13.44 19.96 13.44 19.97 13.43"/>
    <rect x="20.4" y="13.43" width=".54" height=".03"/>
    <polygon points="20.97 13.45 21 13.44 21.01 13.43 21.03 13.43 21.03 13.46 21.03 13.46 20.98 13.46 20.97 13.45"/>
    <polygon points="21.08 13.45 21.1 13.44 21.11 13.44 21.13 13.45 21.11 13.46 21.1 13.46 21.08 13.45"/>
    <rect x="21.4" y="13.32" width=".01" height=".27" transform="translate(5.1 32.77) rotate(-82)"/>
    <polygon points="21.62 13.34 21.65 13.33 21.67 13.33 22.08 13.33 22.08 13.34 22.03 13.36 22.01 13.35 22 13.35 21.86 13.35 21.85 13.36 21.84 13.36 21.84 13.35 21.68 13.34 21.66 13.34 21.65 13.36 21.62 13.34"/>
    <rect x="22" y="13.4" width=".01" height=".03"/>
    <polygon points="22.11 13.36 22.11 13.34 22.13 13.33 22.18 13.33 22.2 13.34 22.18 13.36 22.11 13.36"/>
    <rect x="22.58" y="13.67" width=".04" height=".02"/>
    <polygon points="23.3 13.46 23.31 13.44 23.33 13.46 23.31 13.47 23.3 13.46"/>
    <polygon points="23.65 13.46 23.67 13.44 23.7 13.46 23.68 13.47 23.65 13.46"/>
    <polygon points="23.97 13.47 23.99 13.46 24 13.47 23.99 13.47 23.97 13.47"/>
    <polygon points="20.07 13.67 20.1 13.66 20.11 13.64 20.12 13.66 20.18 13.66 20.19 13.67 20.2 13.67 20.21 13.66 20.24 13.66 20.25 13.66 20.28 13.64 20.31 13.66 20.37 13.66 20.38 13.67 20.4 13.66 20.48 13.66 20.51 13.67 20.54 13.67 20.56 13.66 20.63 13.66 20.64 13.67 20.75 13.67 20.77 13.66 20.8 13.66 20.81 13.68 20.79 13.69 20.45 13.69 20.43 13.68 20.38 13.69 20.35 13.69 20.34 13.68 20.32 13.69 20.3 13.69 20.29 13.68 20.23 13.68 20.22 13.69 20.2 13.69 20.18 13.68 20.15 13.68 20.14 13.69 20.12 13.69 20.07 13.68 20.07 13.67"/>
    <rect x="20.1" y="13.81" width=".02" height=".02" transform="translate(-3.95 17.89) rotate(-44.09)"/>
    <rect x="20.24" y="13.62" width=".04" height=".01"/>
    <polygon points="20.47 13.51 20.48 13.5 20.48 13.51 20.47 13.53 20.47 13.51"/>
    <polygon points="20.57 13.63 20.58 13.62 20.6 13.63 20.58 13.64 20.57 13.63"/>
    <rect x="20.63" y="13.62" width=".02" height=".01"/>
    <rect x="20.67" y="13.62" width=".06" height=".01"/>
  </g>
  <g>
    <path d="M9.68,1.6l-.19-.11v-.03s-.43-.26-.43-.26h-.06l-.36.16-.05-.04h-.02s-.4.24-.63.3c0,0-.52.24-.7.37,0,0-.13.06-.19.11,0,0-.02.02-.2.11,0,0-.43.21-.59.3,0,0-1.22.58-1.39.66l-1.97.9-.13.06h.1l-.48.28s-.06,0-.09.04l-.02.04h.07s0,.07.07.09h.1l.02-.02h.02s.08,0,.08,0h0s.04-.01.04-.01h0s.06.01.06.01l.03.03h.04l.03.03h.06v-.02s.02-.03.02-.03h.01s.01.01.01.01h.07s.02.03.02.03h.07l.02-.03h.1s0,.03,0,.03h.09l.02-.03h.09s.03.04.03.04h.03s.05-.01.05-.01v-.03h.07l.03.03h.01s0,.01,0,.01h.04v.07h.26v-.04s.02-.01.02-.01h.1s0,.07,0,.07h.24v-.06s.02-.01.02-.01h.28v-.02h.07s0-.02,0-.02h-.29s-.58.02-.58.02v-.02s.55-.3.55-.3v-.06s.03,0,.03,0v.04s.01,0,.01,0l3.93-2.15.49.09h.06s.98-.49.98-.49c0,0,0-.05-.2-.16ZM2.66,4.32h-.01s.01-.01.01-.01h0ZM2.83,4.32h-.01v-.03h.01v.03ZM3.03,4.32h-.03v-.04h-.01s.03-.01.03-.01v.03h.01v.03ZM3.05,4.25h-.03s.03-.01.03-.01h0ZM3.1,4.33h-.04s.04-.01.04-.01h0ZM3.22,4.32h-.03v-.04h.01v.03h.01ZM3.29,4.33h-.06s.06-.01.06-.01h0ZM3.42,4.32h-.03s.03-.01.03-.01h0ZM3.43,4.23h0s-.02.01-.02.01h0s.02-.01.02-.01ZM3.49,4.33h-.07s.07-.01.07-.01h0ZM3.66,4.33h-.03s.03-.01.03-.01h0ZM3.73,4.25h-.01s.01-.01.01-.01h0ZM3.83,4.33h-.02s-.02-.01-.02-.01v-.06h.03v.06h.01ZM3.88,4.29h-.01s.01-.01.01-.01h0ZM3.98,4.35h-.01v-.03h.03v.03ZM4.08,4.28h-.03s.01-.03.01-.03h.02v.02s0,.01,0,.01ZM4.16,4.36h-.03s.03-.02.03-.02v.02ZM4.25,4.25h-.02s.02-.01.02-.01h0ZM4.33,4.24h-.01s.01,0,.01,0h0ZM4.43,4.25h-.04s.04-.01.04-.01h0Z"/>
    <polygon points="6.49 5.58 6.75 5.57 6.58 5.59 6.49 5.59 6.49 5.58"/>
    <polygon points="8.77 5.49 8.8 5.49 8.8 5.51 8.83 5.51 8.83 5.49 8.88 5.49 8.85 5.54 8.83 5.54 8.77 5.49"/>
    <path d="M9.27,4.75h-.24s-.12-.09-.12-.09c-.21-.22-.35-.29-.35-.29-.05-.04-.14-.02-.14-.02-.25.12-.52.14-.52.14l-2.3.09v.03h.07s.2-.01.2-.01l.04.03h.1s.06-.02.06-.02h.02s.03.01.03.01v.02s.07,0,.07,0h.01s.03-.01.03-.01h.02s.03-.01.03-.01h.03s.03.01.03.01h0s.07.01.07.01h0s.01-.02.01-.02l.03-.03h.03l.03.03h.03s0,.01,0,.01h.07s.04-.03.04-.03h.04l.03.03h.09s.04-.03.04-.03h.04l.02.03h.1s.02-.03.02-.03h.07s.03.01.03.01h.01s.07.01.07.01h0s.06-.01.06-.01l.04.03h.04s.04-.03.04-.03h.09s.01.02.01.02h.1s.07-.03.07-.03v.03s.13,0,.13,0h0s.03-.01.03-.01l.07.06h.03l.06.04h.1v.02s0,.01,0,.01h-.21v.03h-.13s-.06-.02-.06-.02l-.14.02h-.03s-.01.02-.01.02h0s-.1-.03-.1-.03h-.04s-.03.01-.03.01h0s-.07.01-.07.01h-.02s-.1-.02-.1-.02h-.06s-.01.01-.01.01h-.07s0-.01,0-.01h-.21v.02h-.01v-.02h-.19s-.03,0-.03,0h-.09s0,.01,0,.01h0s-.13-.01-.13-.01h0s-.12.01-.12.01h-.01s-.03-.01-.03-.01h-.02s-.07.01-.07.01l-.4.02h-.02s-.04.01-.04.01v-.03h-.09s-.04.01-.04.01h-.03s-.04-.01-.04-.01l-.03.03h-.02s-.01-.01-.01-.01h-.1s-.11-.01-.11-.01h-.03s-.01-.01-.01-.01h-.05l-.02.02h-.01v-.02h-.01s-.02.03-.02.03h-.03s-.01-.01-.01-.01h-.1s-.05.01-.05.01v-.07h-.06s0,.06,0,.06l-.03.03h-.02s-.01-.01-.01-.01h-.13s0-.09,0-.09h-.04l-.03.07h-.01s-.05.01-.05.01h-.01s-.05-.01-.05-.01v.02s-.03-.02-.03-.02h-.03v.02h-.03s-.17-.02-.17-.02v-.04s-.07,0-.07,0l-.04.05h-.11s-.05-.06-.05-.06h-.08s-.02.06-.02.06h-.03v.03s-.01-.03-.01-.03h-.16s-.02-.06-.02-.06h-.04s-.01.04-.01.04h-.02s-.01.02-.01.02h0s-.09-.02-.09-.02h-.02s-.06.02-.06.02v-.07h-.06v.02s-.03.06-.03.06h-.03s-.13-.02-.13-.02h-.01s-.02.02-.02.02h0s-.01-.14-.01-.14h-.22s.03.03.03.03h-.26v-.03h-.31s-.03-.02-.03-.02h-.02s-.1.01-.1.01h-.02s-.04-.01-.04-.01l-.05.04h-.07v.04h-.01s-.03-.01-.03-.01v-.03s.01,0,.01,0h0s0-.03,0-.03l-.44.16c-.29.1-.4.16-.4.16-.25.11-.42.13-.42.13h-.25l-.1-.02c-.08.02-.27.15-.27.15.51.27,1.38.62,1.38.62h.03c.07,0,.79-.03.79-.03.08,0,.99-.1.99-.1h.97l1.18-.04v-.13s.56,0,.56,0h-.17v.05h-.01s0-.01,0-.01h-.23s-.09.01-.09.01v.04s.03.01.03.01h.45s.6-.06.6-.06h0s-.15-.04-.15-.04h.24s.02-.02.02-.02v-.04h-.01s.02-.01.02-.01h.02s0,.06,0,.06h.03s.01.01.01.01h.02s.19-.01.19-.01h0s1.13-.03,1.13-.03h0s-.22-.01-.22-.01l.02-.03h.29s.87-.01.87-.01l.37-.4-.05-.3ZM1.23,4.91h.03v.03h-.03v-.03ZM1.23,5.02h.02s-.02.01-.02.01h0ZM1.09,5.18h-.01s.01-.01.01-.01h0ZM1.19,5.01h-.02s.02-.01.02-.01h0ZM1.23,5.22v-.04h.04l.02.04h-.06ZM1.32,5.1h-.01s.01-.01.01-.01h0ZM1.36,4.92h-.01v-.02h.01v.02ZM1.41,5.01h-.02s.02-.01.02-.01h0ZM1.75,4.85h.02s-.02.01-.02.01h0ZM1.75,4.91h.02s-.02.01-.02.01h0ZM1.49,4.84h.02v.02h-.02v-.02ZM1.52,4.91h0s-.01.01-.01.01h0s.01-.01.01-.01ZM1.47,5.09h.01s-.01.01-.01.01h0ZM1.43,4.91h-.01s.01-.01.01-.01h0ZM1.55,5.22h-.05l-.03-.04h.08v.04ZM1.66,5.01h-.01v-.02h.01v.02ZM1.83,5.19l-.03.02h0s-.03.01-.03.01l-.03-.04h.05s.04,0,.04,0h0ZM1.95,5.01h0v.02h-.03v-.02h-.02s.04-.01.04-.01h0ZM2.01,5.22l-.02-.08.03-.02v.04l.04.06h-.05ZM2.03,4.91v.03h-.01v-.03h.01ZM2.02,4.86h0s.01-.01.01-.01h0s-.01.01-.01.01ZM2.07,5.04h-.02v.02h-.01v-.02h-.02s.04-.01.04-.01h0ZM2.13,5.21h-.03v-.03h.03v.03ZM2.1,5.11h0s.01-.01.01-.01h0s-.01.01-.01.01ZM2.07,4.78l-.06-.06h0s-.03-.01-.03-.01v-.03h.13l.03.03h.01v.06h-.02s-.07.01-.07.01ZM2.22,5.01h0s-.04.01-.04.01h0s-.01-.01-.01-.01h0s.06-.01.06-.01h0ZM2.3,4.86h-.03s.03-.01.03-.01h0ZM2.31,4.91v.03h-.02v-.03h.02ZM2.29,5.02h0s-.01.01-.01.01h0s.01-.01.01-.01ZM2.28,4.95h-.03s.03-.01.03-.01h0ZM2.33,5.22h-.05v-.04h.06v.04ZM2.39,5.19h0s0,0,0,0h.01ZM2.42,4.76v.03h-.19v-.03h-.04v-.03h.04s.15,0,.15,0h.03s0,.01,0,.01h0ZM2.48,5.02l-.04-.02h0s.04-.01.04-.01v.03ZM2.6,5.22h-.07v-.04s-.01-.06-.01-.06h.03v.04s.04.02.04.02l.02.03h0ZM2.52,4.95v-.02h.01v.02h-.01ZM2.56,4.91v.03h0v-.03h0ZM2.55,4.86h0s.02-.01.02-.01h0s-.02.01-.02.01ZM2.59,5.04h-.03s0-.02,0-.02h.04l-.02.02ZM2.65,5.14h-.01v-.04h.01v.04ZM2.5,4.79h-.04v-.03h.15s.02-.03.02-.03h.01l.04.06h-.19ZM2.72,5.02h-.02v-.03h.03s0,.03,0,.03ZM2.83,5.22h-.04,0s.03-.03.03-.03h.01v.03ZM2.79,4.86h0s.01,0,.01,0h-.01ZM2.8,4.94h0s-.01.01-.01.01h0s.01-.01.01-.01ZM2.8,5.11v.03-.03s0,0,0,0ZM2.85,5.05h-.02s-.02-.01-.02-.01h0s.03-.01.03-.01h.01v.02ZM2.9,5.19h-.03s.03-.01.03-.01h0ZM2.9,4.79h-.15s0,.01,0,.01v-.04h.05s0-.03,0-.03h.01s.05.02.05.02h0s.03,0,.03,0v.04ZM2.98,5.02l-.04-.02h.01s.03-.01.03-.01v.03ZM3.02,4.93h.06s.01,0,.01,0h0s-.07.01-.07.01h0ZM3.06,5.02h0s-.01.01-.01.01h0s.01-.01.01-.01ZM3.08,5.22h-.06v-.03h.01s.04-.01.04-.01v.04ZM3.1,5.05h-.01s.01-.01.01-.01h0ZM3.13,5.13v-.03h.01v.03ZM3.25,5.03h-.01s-.03-.04-.03-.04h.04v.04ZM3.36,5.22h-.07v-.1h.03,0s0,.06,0,.06h.06v.04ZM3.36,5.05h-.04s.04-.01.04-.01h0ZM3.29,4.95l.03-.03v-.06h.01v.07s.03.02.03.02h-.07ZM3.42,5.19h-.01s.01-.01.01-.01h0ZM3.42,5.14h-.01v-.03h.01v.03ZM3.48,5.02h-.01v-.03h.01v.03ZM3.48,4.88h-.02s.02-.01.02-.01h0ZM3.56,4.86h.04s-.04.01-.04.01h0ZM3.55,4.93h.03s.01-.01.01-.01h.01v.03h-.06s0-.02,0-.02ZM3.58,5.14h-.02v-.03h.01v.03ZM3.56,5.22v-.03s-.01,0-.01,0v-.03h.01v.02h.04s0,.04,0,.04h-.04ZM3.62,5.04h-.03s0,0,0,0h.03ZM3.66,5.14h-.01v-.02h.01v.02ZM3.83,4.86h.03v.02h-.03v-.02ZM3.78,5.04h-.03v-.03h.03v.03ZM3.82,4.93h.01s.03-.01.03-.01h.01v.03h-.07.01ZM3.86,5.22h-.03v-.04h.03v.04ZM3.89,5.05h-.06s.06-.01.06-.01h0ZM3.93,5.14v-.03s.02,0,.02,0l-.02.03ZM4.11,4.86h.01v.02h-.01v-.02ZM4.09,4.93h.06s-.06.01-.06.01h0ZM4.01,5.01l.04.03h-.04v-.03ZM4.11,5.22h-.06s.06-.01.06-.01h0ZM4.11,5.14h-.01v-.02h.01v.02ZM4.13,5.05h0s.01-.01.01-.01h0s-.01.01-.01.01ZM4.18,5.22h-.03s.03-.01.03-.01h0ZM4.2,5.14h0v-.03s0,0,0,0v.02ZM4.21,5.05h-.01s.01-.01.01-.01h0ZM4.28,5.04v-.03.03s0,0,0,0ZM4.36,5.22h-.03s.04-.01.04-.01h-.02ZM4.46,5.21h-.01v-.03s.01.03.01.03ZM4.66,5.22h-.07,0s.05-.04.05-.04h.05l-.03.03h0ZM4.72,5.22h0s.01-.01.01-.01h-.01ZM4.75,5.13h-.01s0,0,0,0h.01ZM4.99,5.09h.02s-.02.01-.02.01h0ZM5.02,5.19h-.03v.03h-.13,0s.06-.04.06-.04h.1ZM5.3,5.2l-.06.02h-.08v-.04h.07s.02-.01.02-.01h.05s0,.04,0,.04ZM5.54,5.21v.02h-.1v-.02s.05-.03.05-.03h.07v.03ZM5.8,5.09h0s.02,0,.02,0v.03h-.03s0-.03,0-.03ZM5.82,5.19v.03h-.11,0s.03-.04.03-.04h.09v.02ZM5.84,5.6h-.03s.03-.01.03-.01h0ZM6.05,5.22h-.1s.04-.01.04-.01l.05-.03h.04l-.03.03h0ZM6.09,5.11h-.03v-.02h.03v.02ZM6.31,5.19h-.01v.03h-.07,0s.02-.04.02-.04h.11-.04ZM6.57,5.22h-.09v-.04h.09v.04ZM6.62,5.11v.02s-.03-.03-.03-.03h.03ZM6.67,5.49h0s.03-.01.03-.01h-.03ZM6.87,5.19h-.04v.03h-.09.01s.05-.04.05-.04h.09-.03ZM7.1,5.21v.02h-.07v-.02s.05-.03.05-.03h.06l-.04.03ZM7.27,5.22v-.03h0s.03.03.03.03h-.04ZM7.38,5.14v-.03h.01v.03ZM7.67,5.21h-.01s-.09.01-.09.01v-.02s.01-.03.01-.03h.04s.03.01.03.01h.01s0,.01,0,.01ZM8.7,4.76h.01s.03-.01.03-.01h0s-.01.03-.01.03h-.03ZM8.58,4.72h.04v.03h-.04v-.03ZM8.31,4.72h.04v.03h-.04v-.03ZM7.81,5.22v-.03h.09v.03s-.09,0-.09,0ZM8.04,5.22h0s.06-.01.06-.01h0s-.06.01-.06.01ZM8.19,4.78h-.03v-.03h.04s-.02.03-.02.03ZM8.3,5.17s.24-.03.5,0c0,0-.39.02-.5,0ZM8.87,4.74h-.01s-.01-.01-.01-.01h0s.03-.01.03-.01v.02ZM8.98,4.78h-.02s-.02-.01-.02-.01h0s.03-.01.03-.01h.02v.03Z"/>
    <path d="M11.32,3.47l-.53.43c-.24.19-.75.63-.75.63l-.06.02.06-1.18c-.05-.13-.11-.15-.11-.15-.08.03-.35.2-.35.2,0,0-.3.24-.3.24-.07.66.08,1.03.08,1.03l.03.05c.14.19.46.39.46.39l.49-.33c-.04.1-.55.65-.55.65h.4s.03.07.03.07h-.5l-.27.3c-.2.22-.65.83-.65.83l-.4.5h.95s.5-.6.5-.6l.67-.81h0s-.03-.01-.03-.01h-.08s0-.01,0-.01h.08v-.04s-.19,0-.19,0v-.02s.12.01.12.01h.04s.13-.01.13-.01l.69-.84h-.77v-.03h.8l1.07-1.3h.02s-1.1-.02-1.1-.02ZM9.15,6.39h-.03s.03-.01.03-.01h0ZM9.18,6.37h-.01s.01-.01.01-.01h0ZM9.27,6.37h-.02s.02-.01.02-.01h0ZM9.34,6.39h-.03l.03-.04v.03s0,.01,0,.01ZM10.36,5.74h.03v.04l-.03-.02v-.02ZM10.33,5.72h.01v.03h-.01v-.03ZM10.18,5.62h0s.03-.01.03-.01v.03h-.03ZM10.23,6.11h-.03v-.03h.04l-.02.03ZM10.43,5.54h-.01s0-.02,0-.02h.01v.02ZM10.51,5.54h-.04s.04-.01.04-.01h0Z"/>
    <path d="M9.24,7.27h-.01s.06-.01.06-.01l.05-.06-.93-.02-.28.39h.03s0,.01,0,.01h-.04s-.51.67-.51.67l-.8,1c-.1.1-.25.33-.25.33-.08.04-.14.14-.14.14l.24-.13.25-.32.23-.28s.3-.36.3-.36c.02-.03.1-.02.1-.02l.1-.13c.16-.02.23-.06.23-.06l.44-.25c.1.02.24-.05.24-.05l.72-.87h-.03ZM8.44,7.58h-.1s.1-.01.1-.01h0ZM8.54,7.27h-.13.01s.11-.01.11-.01h0ZM8.63,7.58h0s.03-.01.03-.01h.02s-.04.01-.04.01ZM8.74,7.27h-.03s.04-.01.04-.01h-.02ZM8.93,7.6h-.02s-.02-.01-.02-.01h-.02s.03-.01.03-.01h.01s.02.01.02.01h0ZM9,7.27h-.06s.06-.01.06-.01h0ZM9.11,7.27h0s.07-.01.07-.01h.01s-.09.01-.09.01Z"/>
    <path d="M23.27,3.58s-.03-.03-.07-.03c0,0-2.46-.2-3.59-.22h-.58s-.07.1-.11.14l-2.97-.05s-.26.32-.28.38c0,0-.08.14-.13.17l-.21-.37-1.55-.03.89-1.09.78-.97s0-.22-.02-.37c0,0-.04-.28,0-.35,0,0,.12-.18.14-.25,0,0,.03-.05.08-.07,0,0,.04-.01.06-.07,0,0,.04-.06.07-.1,0,0,.17-.21.19-.25,0,0,.01-.06-.03-.04l-.15.18h-.06s-.07.09-.11.12c0,0-.14.16-.14.23,0,0-.04.11-.16.21,0,0-.11.12-.18.23,0,0-.11.24-.18.26,0,0-.02.09-.09.1,0,0,0-.05.04-.05,0,0-.1,0-.18.1,0,0,0,.05-.08.05h-.11s-.82.95-.82.95l-.88,1.01-.84,1.04-.28.35h1.05s.56-.66.56-.66l.93.07v.02s-.81.57-.81.57h1.01s0-.07,0-.07l.04.06h.12l.78-.57-.4.57h.16s.29.3.35.31h.08s.16.01.16.01c0,0,.09-.18.16-.23l1.92-.19s.24-.43.32-.47l-1.91.07s.13-.27.13-.3l.91-.02s.09-.15.14-.16h1.06s.18.02.18.02c0,0,.15-.18.2-.2l-.74,1.66h.5l.65-.06h0s.01-.01.01-.01v.02s.09,0,.09,0v-.02s.1,0,.1,0h.78s.03.03.03.03v-.03h.02s.02.02.02.02v-.02s.03,0,.03,0h0s.71,0,.71,0l-.42-.17v-.04s.06.02.06.02l.47-.13h0s.01-.01.01-.01h0s.19-.04.19-.04h0s.01-.01.01-.01h0s.38-.09.38-.09l1.1-.33s.66-.19.72-.36c0,0-.28-.37-.33-.48ZM15.66,4.66h.16,0s-.15.01-.15.01h0ZM15.63,4.65h-.02s0-.01,0-.01h-.02s.02,0,.02,0h.01v.02ZM15.95,4.72h-.29s.29-.01.29-.01h0ZM19.72,5.08h-.01v-.03h.01v.03ZM19.92,5.05l-.03.03v-.04h.03ZM20.11,5.05h-.03s.01-.01.01-.01v-.03h.01v.04ZM20.3,5.05h-.02v-.03h.02v.03ZM20.48,5.06h-.01s-.01.01-.01.01v-.03h.01v-.04h.01v.06ZM21.21,4.86h-.01v-.03h.01v.03ZM21.22,4.78h-.02s.03-.01.03-.01h0ZM21.25,4.79h-.01s.01-.01.01-.01h0ZM20.93,4.29c-.21.04-1.34.35-1.34.35-.06-.05-.36-.15-.36-.15l.23-.57c.86-.03,2.56.06,2.56.06-.06.04-1.09.31-1.09.31Z"/>
    <path d="M14.46,4.88l-.61-.02v-.04h-.46l-.95.64c-.08.05-.31.21-.31.21h.03v.02h-.06l-.05.03v.04s-.05,0-.05,0v.02h-.03l.06-.09h-.09v.07s-.02-.01-.02-.01v-.04s-.04-.02-.04-.02h0s.16-.01.16-.01l.7-.86h-1.04l-.66.86h.07s0-.01,0-.01h.03s.06.01.06.01h0s.01-.01.01-.01h0s.14.01.14.01h.02s.01,0,.01,0h.24s-.02.02-.02.02l.03.05h-.64s-.39.53-.39.53l.38.26c.13.1.63.41.63.41.05.03.06.02.06.02l.4-.29.49-.36h0s-.07-.01-.07-.01h-.03s0,0,0,0h-.12s-.17.02-.17.02v.03s-.05,0-.05,0v.1h-.26v-.03s-.04-.03-.04-.03h.04s0-.03,0-.03h-.09s-.04.01-.04.01h-.7s.03-.04.03-.04h.14s0,.01,0,.01h.04s.27-.01.27-.01h0s.04.01.04.01h.02s.14-.01.14-.01l.02-.04h.13v-.02s0-.02,0-.02h.35s0-.07,0-.07h-.05l.17-.06h.05s.05.06.05.06h.11v-.07s.01,0,.01,0v.02h.13v-.02h.01s0,.02,0,.02h.04s0-.04,0-.04v-.02s.03,0,.03,0v.04h.08l.09-.07h-.1,0s.07-.03.07-.03h.07l.25-.19h-.27s0-.01,0-.01h.29l.13-.09-.04.02h-.24l-.14.03h-.38s-.07-.07-.07-.07h-.09s.08-.03.08-.03h.15s.02,0,.02,0h.04s.01-.01.01-.01h.06s.03.01.03.01h.02s.06-.01.06-.01h.02s.53,0,.53,0l.14-.11h-.76s0-.02,0-.02l.04-.03h.51s.27,0,.27,0l.78-.58h-.56s.58-.02.58-.02l.03-.03ZM11.47,5.56v.02h-.04v-.03h.01s.03-.01.03-.01v.03ZM11.51,5.36h-.01v-.03h.01v.03ZM10.88,6.01h-.01s.01-.01.01-.01h0ZM10.92,6.39h-.01s0,0,0,0h.01ZM11.81,6.52h.1s.1-.01.1-.01h.04s.01,0,.01,0h0v.03h-.26v-.02ZM11.24,6.12h-.03s-.2-.01-.2-.01v-.03h.03s.19-.02.19-.02v.03s.02.01.02.01h0ZM11.3,6.12h0s.07-.01.07-.01h.02s-.09.01-.09.01ZM11.44,6.12h-.03.01s.01-.01.01-.01h0ZM11.5,6.09h0s0,.03,0,.03l-.03-.03v-.02s.03,0,.03,0h0ZM11.77,5.68h.03s-.03.01-.03.01h0ZM11.73,5.75l.03-.02h.03v.03h-.06ZM11.66,6.12h-.07l.02-.02h0s.02,0,.02,0h.02v.03ZM11.7,5.69h-.03.01s.01-.01.01-.01h0ZM11.71,6.12v-.03h.03s.04.01.04.01h.02s.02.01.02.01h-.11ZM11.84,5.76h-.01s.01-.03.01-.03v.03ZM11.93,6.12h-.06v-.03s.02.01.02.01h.04s0,.01,0,.01ZM12.01,6.12h-.03s.03-.01.03-.01h0ZM12.17,5.76h-.03s.03-.01.03-.01h0ZM12.59,6.01h.06v.03h-.07v-.03ZM12.59,6.06h.01s-.03.01-.03.01h.01ZM12.7,5.55h-.01s.01-.01.01-.01h0ZM12.77,5.55h-.04s.06-.01.06-.01h-.02Z"/>
    <path d="M14.92,4.88h.21s.1.01.14.07l.22.23h.13v.02h.09l-.04.07h-.04l-.03-.03h-.1s-.01-.01-.01-.01h-.03s-.08.03-.08.03h-.06s-.01-.01-.01-.01h-.34v.06s-.01.01-.01.01h.01v.05s-.04.02-.04.02v.02s.04,0,.04,0v.1s-.47,0-.47,0l.43-.63Z"/>
    <path d="M16.86,5.29h.01s.03,0,.03,0h.89l.09-.22-.86.13-.77.13-.69.14v-.05s-.19,0-.19,0v.12s-.16,0-.16,0l-.02-.02h-.02s-.35.02-.35.02h-.03s-.34.01-.34.01l-.03.04v.02s.4-.02.4-.02v.06h.05s.03.01.03.01h.56v-.03l.04.03v.04h-.05s-.95.01-.95.01l-.02.02h-.18s-.03.05-.03.05h.07v.03h-.09l-.02.03.55.42h.03s.28-.1.5-.14l.22-.06-.15-.03h-.19s0-.01,0-.01h.34s.04-.02.04-.02v.02h.16s.27-.07.27-.07l.03-.06v-.1l.03-.02h.1s.05.02.05.02l-.05.04v.08s.02.01.02.01h.02l.14-.03h.03s.07-.01.07-.01h-.04s-.13-.01-.13-.01v-.03s.01-.06.01-.06h.13s0-.06,0-.06l-.02-.02h.31v.12s.3-.07.41-.07h0s-.06-.02-.06-.02v-.04h.02s.04-.01.04-.01l.03.03v.03s.2-.03.43-.1h0s-.03-.03-.03-.03h-.06v-.03h.11s.07-.14.07-.14h-.29v.02s.01.02.01.02h-.03v-.04h-.27,0s-.37.01-.37.01v.04s-.05.04-.05.04v-.1h-.22l.02-.04h.2v-.06h.07-.01s0,.05,0,.05l.03.02h.64s.01.01.01.01h.27s.06-.13.06-.13h-.04s-.03,0-.03,0h-.01s-.06,0-.06,0h-.02s-.34.01-.34.01v.02s-.06,0-.06,0h-.02s-.28-.01-.28-.01v.03s-.05,0-.05,0h0s-.07-.02-.07-.02v-.04h.07ZM15.78,5.89l-.03.02v.04h-.04l-.03-.02h0s.04-.03.04-.03v-.03h.04s-.01-.04-.01-.04h.03v.06ZM15.9,5.81h-.01v.17s-.02-.01-.02-.01h-.01v-.17h.04ZM16.05,5.76h-.11s.04-.01.04-.01h.02s.02-.01.02-.01l.03.02h0ZM16.05,5.69h-.04s-.01.01-.01.01h-.07v-.03h.13ZM16.23,5.76h-.03v-.03h.03v.03ZM17.59,5.46h.03s-.01.03-.01.03h-.03s.01-.03.01-.03ZM17.42,5.59h.04v.03h-.02s-.02,0-.02,0v-.02ZM17.31,5.59h.03v.02s.01.02.01.02h-.03s-.01-.02-.01-.02v-.03ZM16.91,5.76h-.04s.04-.02.04-.02v.02ZM17.13,5.62v.02h-.03v-.03s.01-.02.01-.02v.02ZM17.05,5.54h.06s-.06.01-.06.01h0ZM16.88,5.52h0s.06.01.06.01l-.03.04h-.01l-.03-.03v-.03s.01,0,.01,0ZM16.86,5.36h.07l-.03.04h-.03v-.02s-.01-.03-.01-.03Z"/>
    <g>
      <path d="M22.57,5.8h-.06s0-.02,0-.02l-.38-.13-.02.02h-.07s-.05-.02-.05-.02h0s.08-.02.08-.02c0,0-.55-.2-.71-.28l-.22-.09h-2.12l-.19.04v.02s-.07,0-.07,0h-.01s-.02-.01-.02-.01h-.02s-.05.01-.05.01h0s-.06-.01-.06-.01h-.02s-.05,0-.05,0h-.01s-.07,0-.07,0h0s-.02.01-.02.01h0s-.07-.01-.07-.01h-.01s-.13.02-.13.02h-.02s0,0,0,0h-.1s0,.01,0,.01h.09v.03h-.11s-.01.03-.01.03h.05s0,.03,0,.03h-.06s0,.01,0,.01h.07,0s-.07.01-.07.01l-.07.16h.07v.03s-.09,0-.09,0l-.05.1h.05v.03h-.05s-.02.03-.02.03c0,0-.42.83-.43.97,0,0,.1.1.3.35l.18.19.03.02.03-.02h.04s.26-.6.26-.6l.28-.61s.14-.32.16-.37c0,0,.02-.07.04-.08v-.02h-.07l-.02-.02h-.01s0,.02,0,.02h-.01v-.03h.06s.02.01.02.01h.05s0-.01.02-.04h-.03s.01-.02.01-.02h.03s.05-.16.11-.17l.29.12.29.11h.2s-.06.02-.06.02h0s-.03,0-.03,0h-.04,0s.13.06.23.12l.2.11v-.03h.01v.04s.68.31,1.55.57c0,0,.71.21.82.24,0,0,.64-.55.69-.7l-.51-.2ZM17.79,6.22h0s.03-.01.03-.01h0s.01.01.01.01h-.04ZM17.99,6.22h0s.02-.01.02-.01h.01s-.03.01-.03.01ZM18.01,5.85h-.03v-.02h.03s0,0,0,0h.01v.02ZM18.59,5.56h.03s-.05.01-.05.01h.01ZM18.51,5.48h.03s-.01.01-.01.01h-.03s.01-.01.01-.01ZM18.41,5.56h.03s-.01.01-.01.01h-.03s.01-.01.01-.01ZM18.35,5.48h0s-.03.01-.03.01h-.01s.04-.01.04-.01ZM18.22,5.56h.01s-.03.01-.03.01h.01ZM18.15,5.48h.01s-.04.01-.04.01h0s.03-.01.03-.01ZM18.08,5.74h.06s0,.03,0,.03h-.06s0-.03,0-.03ZM18.17,6.22h-.01v-.02s.01,0,.01,0h0ZM18.18,5.84h0s-.04.01-.04.01h0s.01-.01.01-.01l.02-.02h.01v.02ZM18.12,5.64v-.03h.03s0,0,0,0h.11v.03h-.14ZM18.26,5.76v-.04h.01l.04.03h0s-.06.01-.06.01ZM18.36,6.22h-.04.01s.03-.01.03-.01h0ZM18.34,5.85h0s.03-.02.03-.02v.02s-.03,0-.03,0ZM18.51,5.76h-.06l.02-.03h.02s.03.01.03.01h0ZM18.54,6.15h-.01s.01-.01.01-.01h0ZM18.54,5.85h0s.01-.01.01-.01h0s-.02.01-.02.01ZM18.58,5.62h-.02s-.27.01-.27.01v-.03h.04s.01-.01.01-.01h0s.24.01.24.01h.01s.03.01.03.01h0s-.04.01-.04.01h0s-.01-.01-.01-.01ZM18.69,5.75l-.02.03h-.01s-.03-.01-.03-.01h0s.01-.01.01-.01h.01s0,0,0,0h.03ZM18.72,5.49h-.03s.03-.01.03-.01h0ZM19.08,5.32v-.03h.01s.01.03.01.03h-.03ZM19.27,5.51h-.01v-.03h.01v.03ZM19.28,5.32h-.01s.03-.01.03-.01h-.01ZM19.47,5.51h-.03s.03-.01.03-.01h0ZM19.48,5.32h-.03s.01-.01.01-.01h.01s0,.01,0,.01ZM19.52,5.58v-.02h.01s.02.01.02.01h-.03ZM19.62,5.51h-.03s.01-.01.01-.01h.01s0,.01,0,.01ZM19.62,5.32v-.03l.03.03h-.03ZM21.45,5.49h.01v.04h-.01v-.04ZM21.37,5.58h.01s-.03.01-.03.01h-.01s.03-.01.03-.01ZM21.25,5.51h.01s.01-.01.01-.01h0s-.03.04-.03.04v-.03ZM21.11,5.49v.03s-.01-.03-.01-.03h.01ZM20.92,5.49v.03s-.01-.03-.01-.03h.01ZM20.81,5.58h.02s-.01.01-.01.01h-.01s.01-.01.01-.01ZM20.74,5.32h.01s.01-.01.01-.01h0s-.01.01-.01.01v.03s-.01-.03-.01-.03ZM20.72,5.49h.03s-.01.03-.01.03h-.02v-.03ZM20.55,5.32h.01s-.01.02-.01.02v-.02ZM20.54,5.49h.03s-.03.01-.03.01h0ZM20.35,5.49h0s.03-.01.03-.01v.03h-.01s-.01.01-.01.01h-.01s.01-.03.01-.03ZM19.98,5.5h0s.01,0,.01,0v.02h-.01ZM19.82,5.65h-.04s-.01-.03-.01-.03h.07l-.02.03ZM19.81,5.34h-.02v-.03h.04l-.03.03ZM19.91,5.64h-.01s.01-.01.01-.01h0ZM19.98,5.78h-.03s-.01.01-.01.01h0s-.01-.01-.01-.01v-.03h.06v.03ZM20.02,5.65h-.02s0-.01,0-.01h-.03s.06-.01.06-.01v.03ZM20.02,5.32h-.02s-.03.03-.03.03v-.03l.03-.03h.01s0,.03,0,.03ZM20.11,5.78v-.03h.04s.01.02.01.02h.01s-.07.01-.07.01ZM20.18,5.52h-.01v-.03h.03l-.02.03ZM20.21,5.32h-.03s-.01.01-.01.01h0s.03-.04.03-.04h.01v.03ZM20.35,5.79h-.05s0-.04,0-.04c0,0,.02,0,.02,0h0s.03.01.03.01v.02ZM20.45,5.72h-.03s.01-.03.01-.03h.02v.03ZM20.45,5.65h-.1s-.02-.01-.02-.01h0s.04-.01.04-.01h0s.07.01.07.01h0ZM20.51,5.79h-.01s-.02-.01-.02-.01h0s.06-.01.06-.01l-.03.02ZM20.58,5.86h-.01s.01-.01.01-.01h0ZM20.65,5.65h-.11s.11-.01.11-.01h0ZM20.72,5.78h-.01s-.01.01-.01.01h-.03v-.03h.06ZM20.84,5.65h-.13v-.03h.04s.09.01.09.01h0ZM20.86,5.76h.02s-.03.01-.03.01h0ZM20.9,6.08h-.02s.02-.01.02-.01h.01s-.01.01-.01.01ZM20.97,5.66v.03l-.02.02h-.03s0,.02,0,.02h-.03v-.13l.06-.04h.01s0,.07,0,.07h.07v.02s-.06,0-.06,0h-.02ZM21.08,5.78h-.01s-.01.01-.01.01h-.01v-.03h.04v.02ZM21.15,6.24h-.04s.04-.01.04-.01h0ZM21.11,5.86h.01s.02,0,.02,0h0s-.01.01-.01.01h-.01ZM21.12,5.65h0s0,0,0,0h-.04s.11-.01.11-.01h0s-.06.01-.06.01ZM21.24,5.79h-.04s.01-.03.01-.03h.03v.02s0,.01,0,.01ZM21.29,6.24h0s0-.01,0-.01h0s0,.01,0,.01ZM21.44,5.81h-.03l-.03-.03h0s.06-.01.06-.01v.04ZM21.48,5.65h0s-.02,0-.02,0h-.16s0,.01,0,.01h-.02s-.03-.01-.03-.01h0s.04-.01.04-.01h0s0,0,0,0h.27,0s-.08.01-.08.01ZM21.57,5.72h.01s0,.03,0,.03h-.01v-.03ZM21.63,5.81l-.04-.03h0s.04-.01.04-.01v.04ZM21.63,5.64h-.01s.01-.01.01-.01h0ZM21.63,5.51l.02-.02h0s0,.03,0,.03-.03.01-.03.01v-.02ZM21.68,5.87h-.03s-.01.01-.01.01h0s.02-.03.02-.03h.02v.02ZM21.68,5.66h-.03s-.01-.01-.01-.01h0s.19-.01.19-.01h0s-.13.01-.13.01h-.01ZM21.77,5.78h-.01s.06-.01.06-.01l.03.03h0s-.07,0-.07,0v-.03ZM21.87,5.89h-.03s0-.03,0-.03h.01s.03.01.03.01v.02ZM21.94,5.65h-.02s-.01.01-.01.01h-.02s-.03-.01-.03-.01h-.01s-.02.01-.02.01h0v-.03h.1ZM22.01,5.81h-.04v-.04h.04v.04ZM22.14,5.76h.06v.04h-.06v-.04ZM22.24,5.89h-.04v-.03h.04v.03ZM22.38,5.79h-.02s-.04.01-.04.01v-.04h.06v.03ZM22.43,5.87h-.03v-.02h.03v.02ZM22.61,6.26h-.03v-.03h.03v.03Z"/>
      <polygon points="18.01 7.32 18.04 7.32 18.04 7.34 18.02 7.35 17.99 7.35 18.01 7.32"/>
    </g>
    <path d="M11.7,8.4s-.03.09-.42.07l-.67.06h-.15s-.14-.03-.14-.03h-.1s-.76.08-1.06.09l-1.87.09-.32.68-.54,1.07h.76s.26-.31.26-.31h.14s.19-.4.24-.48c0,0,.1-.21.11-.24,0,0,.04-.09.09-.11l1.32-.11,1.68-.1h0s-.77.27-.77.27l-1.06.34-1.41.41h2.15s.19-.08.32-.11l.25-.08-.03-.04h.04s.02.02.02.02l1.71-.61.17-.94-.7.04ZM9.7,9.83h-.04s-.06-.01-.06-.01h-.02s-.02.01-.02.01h-.01s-.41-.01-.41-.01h0s.52-.01.52-.01h.04v.03ZM10.12,9.87h-.04s.04-.01.04-.01h0ZM10.26,9.87h-.09s.09-.01.09-.01h0ZM10.38,9.87h-.03s.03-.01.03-.01h0Z"/>
    <path d="M7.63,10.14l-.07.03v-.03h-.1l-.26.3h-.8l-.78.28v.06s0,0,0,0l-.02-.04-.09.02v.03s.43.34.43.34l.02-.04h.2s-.04.04-.04.04h-.09v.04l.02.03v.09s-.05,0-.05,0l-.04.07s.1-.01.1-.01v.07h-.03s-.08-.03-.08-.03c-.04.06-.18.41-.37.82-.01.03-.06.11-.08.14-.01.02,0,.06-.02.08-.18.36-.33.66-.33.66l-.57,1.22-.48,1s.06-.02.06-.02c.05-.08.19-.14.19-.14.09-.04.11-.12.11-.12l.29-.63c.07-.14.14-.2.14-.2h.03c.07-.09.13-.09.13-.09h.05c.05-.08.26-.24.26-.24l.43-.28s.04-.05.04-.05l.3-.62.67-1.36c.08-.16.26-.5.26-.5l1.01-.33.02-.02h0s.82-.24.82-.24c.4-.1.89-.31.89-.31h-2.19ZM5.76,12.81h-.02s.02-.01.02-.01h0ZM6.16,12.8h-.02s.02-.01.02-.01h0ZM7.83,10.41h-.03s.03-.01.03-.01h0ZM8.29,10.54l.03-.07h0s.09,0,.09,0l.02.04.04.03h-.19Z"/>
    <polygon points="10.45 10.04 10.86 9.84 10.86 9.88 10.88 9.9 11.15 9.81 11.13 10.11 10.42 10.11 10.45 10.04"/>
    <path d="M13.64,8.56c0-.09.1-.17.1-.17l-.05-.1.09-.26v-.09l-.04.03-.08.02h-.03l-.14.23-.64,1.02-.58.92-.09.08-.31.18-.57.4-.56.37h-.03v-.04l.07-.06v-.04s-.01-.02-.01-.02l.36-.88h-.73l-.26.61h.19s-.03.05-.03.05h-.06s-.11-.02-.11-.02l-.31.78v.04l.16.13c.14.12.38.27.38.27.08-.03.36-.27.36-.27.04-.02.35-.21.35-.21l.55-.39c.12-.09.16-.08.16-.08-.02.06-.3.61-.3.61.01.03.07.04.07.04.09,0,.26.14.26.14.32.21.32.17.32.17l.57-1.07h-.55s-.02-.03-.02-.03h.27s.07.01.07.01h.02s.19-.01.19-.01h0s.03.02.03.02l.12-.23h-.56s.04-.03.04-.03h.03s0,.01,0,.01h.09s.03-.02.03-.02l.02.02h.21s.03-.02.03-.02h.13s.47-.85.47-.85c.06-.08.19-.36.19-.36.04-.07.09-.1.09-.1,0-.03.22-.42.22-.42-.06-.06-.18-.39-.18-.39ZM10.81,10.38h.03s.03.01.03.01h.01s-.07.01-.07.01v-.03ZM10.48,10.38h.07s-.07.01-.07.01h0ZM10.62,10.78h-.12s-.08-.02-.08-.02h0s-.06-.01-.06-.01h0s.01-.03.01-.03v-.04s-.04,0-.04,0h.01s.16-.01.16-.01h0s-.01.04-.01.04h.06l.03.04h.04v.03ZM10.65,11h-.01s.01-.01.01-.01h0ZM10.62,10.4h0s.14-.01.14-.01h-.01s-.02.01-.02.01h0s-.01.01-.01.01h0s-.1-.01-.1-.01ZM11.21,11h-.02s-.01.01-.01.01v-.03h.03ZM11.38,10.99h-.01s0-.01,0-.01h.01ZM11.77,11.01v-.03s.01,0,.01,0v.03ZM11.91,11.06h.01v.03h-.01v-.03ZM11.91,11.17h.01s.01.04.01.04v.03h-.03v-.07ZM11.91,11.3h.03-.01s-.01.01-.01.01h0ZM12.09,11.44h-.06v.03s.03.04.03.04h0s-.06.01-.06.01h-.01s-.04.01-.04.01h-.01s-.04-.02-.04-.02v-.07h.01s0-.08,0-.08l.03.02h.14s.02.02.02.02v.03ZM12.22,11.63h-.03s.03-.01.03-.01h0ZM12.19,11.31h-.24v-.03h.3l-.06.03ZM11.99,11.2h.1v.03s-.01.02-.01.02h-.06l-.03-.04ZM12.47,11.17h-.02s-.04-.01-.04-.01h0s0,0,0,0h-.41s0-.03,0-.03h.52s-.02.04-.02.04ZM12.58,11.04l-.03.04h-.22s-.02-.01-.02-.01h-.04s-.03.01-.03.01h-.02s-.01-.01-.01-.01v.02s-.14,0-.14,0v-.02s0-.02,0-.02h.5Z"/>
    <path d="M14.34,8.55s-.29.5-.39.73c0,0-.25.49-.33.6l-.44.79h.1s.01,0,.01,0h.06s.02-.02.02-.02v.02h.2v-.02s.08,0,.08,0h.02s.4.01.4.01l.27-.45.11.47h.05l.02-.02h.17s.02.02.02.02h1.05l.46-.83h-.09s-.16.03-.16.03h-.59s-.33.57-.33.57c0,0-.26-1.17-.45-1.66h-.24s.01-.08-.04-.12v-.03s.06-.09.06-.09v-.05s-.04.03-.04.03Z"/>
    <path d="M16.57,8.74h-.23s-.29.01-.29.01c-.18.23-.64,1.1-.64,1.1h.1s.02.01.02.01h.24s.02,0,.02,0h.24s.22-.03.22-.03l.6-1.1h-.27ZM15.72,9.81h-.16s.16-.01.16-.01h0Z"/>
    <path d="M13.16,10.71s-.32.6-.43.84h.05s.05-.01.05-.01h.06s.35-.07.72-.1h.03s.24-.46.24-.46h-.31s-.03-.04-.03-.04h.37s.12-.21.12-.21h-.64s0-.02,0-.02h-.23Z"/>
    <path d="M15.46,11.25s.25-.46.28-.51h-.8s-.02-.01-.02-.01h-.06,0s-.02.01-.02.01h0s-.04-.01-.04-.01h-.02s-.07.01-.07.01h-.01s-.07-.01-.07-.01h-.01s-.02,0-.02,0h-.14s.21.84.21.84h.63s.14-.27.14-.27h-.14s0-.01,0-.01c0,0,.06-.02.16-.03ZM15.25,11.3h0s.01-.01.01-.01h0Z"/>
    <path d="M22.65,7.15l-.93.47-.77.36-.84.41-2.31,1.13h-.02s.6-1.12.6-1.12l-.8.04h-.07s-.05-.1-.05-.1h-.02s-.53.98-.53.98l-.27.52h.08s.02.01.02.01h.11s.02-.01.02-.01h.06s.07.01.07.01h0s.03-.01.03-.01h.01s.37.02.37.02l.1.07v.03s.07,0,.07,0l.06.04h.05s.11.07.11.07l.05.05h.06s.1.06.1.06v.04h-.05s-.31-.18-.31-.18h-.04s-.03-.03-.03-.03h-.03s0-.01,0-.01h-.04s0-.01,0-.01l-.03-.03h-.03s-.04-.05-.04-.05h-.05s-.08-.01-.08-.01h-.02s-.11.01-.11.01h-.02s-.03-.01-.03-.01h-.02s-.1.01-.1.01h-.02s-.37,0-.37,0l-.37.7h0s.04.1.04.1h.63s.04-.01.04-.01h.02s.2.01.2.01l.13-.24c.06-.09.14-.21.14-.21l.4.21c.22.12.44.26.44.26l.02-.02h.04s-.01-.06-.01-.06l.05.06h.56s.04.01.04.01h.01s.02-.01.02-.01h.01s.17.02.17.02l.03.03.04-.03h.08s.06-.01.06-.01h.02s.13.01.13.01h0c-.05-.01.04-.08.04-.08.07-.05.15-.09.15-.09h0s-.24-.17-.24-.17l-.37-.22-.23-.14-.24-.13h-.1v-.03s.05,0,.05,0l-.03-.04,1.13-.59.91-.48s.06-.05.06-.05c.05-.06.15-.13.15-.13l.21-.1.86-.43c.1-.04.16-.13.16-.13l.17-.27c.13-.2.29-.26.29-.26l.15-.21s-.03-.02-.03-.02ZM17.8,9.81h-.11s.13-.01.13-.01h-.01ZM18.07,10.17h0s-.01.01-.01.01h0s-.01-.01-.01-.01h0s.04-.01.04-.01h.01s-.03.01-.03.01ZM18.8,10.15h.03s-.03.01-.03.01h0ZM18.8,10.21h.03v-.03h.01l.02.03h.03v.03h-.1v-.03ZM18.73,10.17h.01s-.01.01-.01.01h0Z"/>
    <path d="M17.14,10.71h-.2s-.66.01-.66.01c.07.14.06.2.06.2h.02s.02,0,.02,0v.03s-.26.51-.26.51l-.03.03v.03l.43.32h.01c.02-.06.17-.34.17-.34l.25-.44-.03.02h-.39s.37-.03.37-.03h.05l.05-.09h-.45v-.03s.47,0,.47,0l.12-.23ZM16.6,11.27h0s-.06-.02-.06-.02h0s-.03.02-.03.02l-.02.03h-.18l.03-.03v-.06s-.01,0-.01,0h.04s.01,0,.01,0h.04s.02-.01.02-.01h.07s.03.01.03.01v.03h.07s.03.01.03.01h.01s-.06.01-.06.01ZM16.57,11.14h.01s.03-.01.03-.01h0s.07.01.07.01h.02s.11-.01.11-.01v.03h-.02s-.41.01-.41.01l.05-.02h.13Z"/>
    <path d="M23.98,13.47l-.15-.09s-.35-.2-.35-.2h-.03s-.11.04-.11.04h-.07l-.42-.24h-.02s-.07.01-.07.01h0s-.03.01-.03.01h-.02s-.05-.02-.05-.02l.02-.06h.03s-.89-.5-.89-.5h-.02s0-.01,0-.01l-1-.54-.19-.11-.58-.33v-.03s-.09-.37-.09-.37h-.38,0s-.06.01-.06.01h-.02s-.03.01-.03.01h-.02s-.07-.02-.07-.02l-.03-.03h.12v-.04h-.57s.23-.01.23-.01l.06-.07h.68l-.21-.13h-.34s-.5-.01-.5-.01v-.02s-.06,0-.06,0h0s-.01.01-.01.01h0s-.41-.01-.41-.01l.21.11c.05.1.12.13.12.13l3.61,1.93h.08s-.03.02-.03.02l.08.05h.01s0-.05,0-.05h-.03s.01-.02.01-.02h.06s.02.01.02.01h.04s-.03.05-.03.05v.02s-.01,0-.01,0h0s-.04-.01-.04-.01h0s1.07.59,1.07.59h.04s.43-.01.43-.01l.02-.04v-.05ZM22.53,12.85h-.03s.03-.01.03-.01h0ZM22.55,12.91h.03v.02h-.03v-.02ZM22.6,12.99h-.03s-.01.01-.01.01h0s.01-.03.01-.03h.03Z"/>
  </g>
</svg>