<svg width="24" height="24" viewBox="0 0 24 24" fill="none" xmlns="http://www.w3.org/2000/svg">
<path d="M6.83606 2.99464C6.81054 2.99439 6.78536 3.00079 6.7628 3.01324C6.74023 3.0257 6.72099 3.04384 6.7068 3.06601C6.6926 3.08818 6.68391 3.11369 6.6815 3.14025C6.6791 3.16681 6.68305 3.19358 6.693 3.21814L6.78145 3.43642L8.34663 7.25126C8.35727 7.2772 8.37425 7.29977 8.39588 7.31668C8.4175 7.33359 8.443 7.34425 8.46982 7.34759C8.49663 7.35093 8.52382 7.34683 8.54864 7.33571C8.57346 7.32458 8.59504 7.30683 8.61121 7.28422L11.5001 3.25191C11.5172 3.22802 11.5276 3.19961 11.5302 3.16987C11.5328 3.14013 11.5274 3.11023 11.5146 3.08352C11.5018 3.05681 11.4822 3.03435 11.4579 3.01865C11.4336 3.00295 11.4056 2.99464 11.377 2.99464H6.83606ZM18.3042 4.04221L16.7167 7.91614C16.7067 7.9406 16.7027 7.96726 16.705 7.99375C16.7073 8.02023 16.7158 8.0457 16.7298 8.06789C16.7439 8.09008 16.7629 8.10828 16.7853 8.12087C16.8077 8.13347 16.8328 8.14005 16.8582 8.14005H20.7423C20.7697 8.14006 20.7967 8.13241 20.8203 8.11788C20.844 8.10336 20.8635 8.08249 20.8768 8.05744C20.8901 8.03239 20.8968 8.00407 20.8962 7.97541C20.8955 7.94675 20.8875 7.91879 20.8731 7.89443L18.5761 4.0209C18.5612 3.99597 18.5401 3.97575 18.5151 3.96246C18.49 3.94916 18.462 3.9433 18.4339 3.94549C18.4059 3.94769 18.379 3.95786 18.3561 3.97491C18.3333 3.99196 18.3153 4.01524 18.3042 4.04221ZM5.42394 4.02251L3.1277 7.89443C3.11323 7.91879 3.10526 7.94675 3.1046 7.97541C3.10395 8.00407 3.11063 8.03239 3.12397 8.05744C3.1373 8.08249 3.1568 8.10336 3.18045 8.11788C3.2041 8.13241 3.23103 8.14006 3.25845 8.14005H7.14256C7.16801 8.14002 7.19306 8.13338 7.21546 8.12074C7.23786 8.1081 7.25691 8.08984 7.2709 8.06761C7.28488 8.04538 7.29338 8.01987 7.29561 7.99336C7.29784 7.96686 7.29375 7.94018 7.28369 7.91574L5.69313 4.04382C5.68176 4.01752 5.66382 3.9949 5.6412 3.97834C5.61858 3.96179 5.59211 3.9519 5.56458 3.94972C5.53704 3.94754 5.50946 3.95315 5.48471 3.96596C5.45996 3.97877 5.43897 3.9983 5.42394 4.02251ZM17.2789 2.99464H12.4546C12.4406 2.99454 12.427 2.99852 12.4151 3.00612C12.4032 3.01372 12.3936 3.02465 12.3874 3.03765C12.3811 3.05066 12.3785 3.06523 12.3798 3.07972C12.381 3.09422 12.3862 3.10805 12.3946 3.11965L15.468 7.39919C15.4759 7.41018 15.4863 7.41882 15.4984 7.42423C15.5104 7.42963 15.5237 7.43162 15.5367 7.42999C15.5497 7.42836 15.5621 7.42317 15.5726 7.41494C15.5831 7.40671 15.5913 7.39573 15.5965 7.38311L17.2147 3.43682L17.3455 3.10156C17.3501 3.09006 17.3519 3.07755 17.3509 3.06512C17.3499 3.0527 17.346 3.04071 17.3396 3.0302C17.3331 3.01969 17.3244 3.01096 17.314 3.00477C17.3036 2.99857 17.292 2.9951 17.2801 2.99464H17.2789ZM11.3462 19.7172L7.90707 9.5273C7.89698 9.49771 7.87835 9.47212 7.85377 9.45405C7.82918 9.43598 7.79984 9.42632 7.76978 9.4264H3.14347C3.11667 9.42632 3.09039 9.43411 3.06762 9.44888C3.04484 9.46366 3.0265 9.48482 3.01468 9.50996C3.00285 9.5351 2.99802 9.5632 3.00073 9.59107C3.00345 9.61894 3.01359 9.64546 3.03002 9.66759L11.3366 20.9155C11.3647 20.9536 11.4049 20.98 11.4498 20.9901C11.4948 21.0002 11.5418 20.9933 11.5824 20.9706C11.6232 20.9482 11.6549 20.9111 11.6718 20.8663C11.6887 20.8214 11.6895 20.7717 11.6743 20.7262L11.3462 19.7172ZM20.8565 9.4264H16.2302C16.2003 9.42639 16.1712 9.4361 16.1468 9.45418C16.1224 9.47225 16.104 9.4978 16.0941 9.5273L12.3177 20.7089C12.3018 20.7559 12.3024 20.8072 12.3195 20.8537C12.3366 20.9001 12.3689 20.9388 12.4107 20.9626C12.4525 20.9863 12.5011 20.9936 12.5476 20.9834C12.5942 20.9732 12.6357 20.946 12.6649 20.9067L20.97 9.66759C20.9864 9.64546 20.9966 9.61894 20.9993 9.59107C21.002 9.5632 20.9971 9.5351 20.9853 9.50996C20.9735 9.48482 20.9552 9.46366 20.9324 9.44888C20.9096 9.43411 20.8833 9.42632 20.8565 9.4264ZM12.1231 4.88115L14.2766 7.88278C14.2938 7.90667 14.3042 7.93507 14.3068 7.96481C14.3093 7.99455 14.3039 8.02445 14.2911 8.05116C14.2784 8.07787 14.2587 8.10033 14.2344 8.11603C14.2101 8.13173 14.1821 8.14005 14.1536 8.14005H9.84644C9.81787 8.14005 9.78987 8.13173 9.76556 8.11603C9.74126 8.10033 9.72162 8.07787 9.70885 8.05116C9.69607 8.02445 9.69067 7.99455 9.69323 7.96481C9.6958 7.93507 9.70623 7.90667 9.72337 7.88278L11.8769 4.88115C11.8913 4.86118 11.9098 4.84497 11.9312 4.83381C11.9526 4.82265 11.9761 4.81684 12 4.81684C12.0239 4.81684 12.0474 4.82265 12.0688 4.83381C12.0902 4.84497 12.1087 4.86118 12.1231 4.88115ZM11.8539 17.3552L9.25036 9.64066C9.24218 9.61642 9.23969 9.59048 9.24308 9.56502C9.24647 9.53956 9.25565 9.51533 9.26985 9.49434C9.28405 9.47336 9.30285 9.45624 9.32469 9.44441C9.34652 9.43259 9.37075 9.42642 9.39534 9.4264H14.6047C14.6292 9.42642 14.6535 9.43259 14.6753 9.44441C14.6971 9.45624 14.716 9.47336 14.7302 9.49434C14.7444 9.51533 14.7535 9.53956 14.7569 9.56502C14.7603 9.59048 14.7578 9.61642 14.7496 9.64066L12.145 17.3552C12.1344 17.3865 12.1147 17.4136 12.0888 17.4328C12.0628 17.4519 12.0318 17.4622 12 17.4622C11.9682 17.4622 11.9372 17.4519 11.9112 17.4328C11.8853 17.4136 11.8656 17.3865 11.855 17.3552H11.8539Z" fill="white"/>
</svg>
