<svg width="24" height="24" viewBox="0 0 24 24" fill="none" xmlns="http://www.w3.org/2000/svg">
<path d="M12.0859 0.810059C9.54128 0.810059 7.23109 1.48871 5.5293 2.61475C3.8275 3.74092 2.7168 5.34784 2.7168 7.15881C2.7168 8.29525 3.15381 9.35242 3.90039 10.2598C4.84717 12.2094 5.53398 15.0587 4.86133 17.0377C4.69666 17.5218 3.9707 18.823 3.9707 19.415C3.9707 20.2175 4.7972 21.1758 5.59961 21.1758C6.40192 21.1758 7.22983 20.2176 7.22992 19.415C7.22992 18.8194 6.52103 17.5334 6.38477 17.0376C5.84969 15.0912 5.90448 12.6347 7.20944 12.5859C7.8227 12.8387 8.48186 13.0442 9.17523 13.1967C10.2474 13.702 10.7484 15.6661 10.1992 16.4575C10.0712 16.642 9.55464 17.1611 9.55464 17.6718C9.55464 18.1924 10.014 18.772 10.6825 18.772C11.3066 18.772 11.8105 18.2765 11.8105 17.6718C11.8105 17.077 11.2397 16.6464 11.1336 16.4575C10.7323 15.5672 10.8202 14.0657 12.014 14.001C13.3814 13.9268 13.9959 17.9033 13.1962 19.0561C12.9836 19.3625 12.1005 20.3255 12.1005 21.2373C12.1005 22.1687 12.8225 23.1725 13.9696 23.1723C15.1391 23.1723 15.8373 22.0519 15.8373 21.2373C15.8373 20.4422 14.8854 19.3698 14.7094 19.0562C13.9394 17.6836 14.2772 13.4458 16.0629 12.9288C16.1263 12.9066 16.1725 12.8861 16.2065 12.8658C16.4077 12.799 16.607 12.7267 16.8041 12.6489C16.805 12.6486 16.8062 12.6493 16.8071 12.6489C18.6454 12.4046 18.4849 14.5284 19.4072 14.5284C20.2203 14.5284 19.8677 11.6439 20.752 9.58304C21.2016 8.84139 21.4551 8.02351 21.4551 7.15867C21.4551 5.34779 20.3458 3.74087 18.644 2.61475C16.9423 1.48871 14.6306 0.810059 12.0859 0.810059ZM9.06981 2.04503C6.96944 2.97667 5.57903 4.59568 5.57903 6.43665C5.57903 9.32429 8.99889 11.6646 13.2168 11.6646C16.5722 11.6646 19.4206 10.1823 20.4458 8.12265C20.1454 9.20256 19.3462 10.1888 18.1606 10.9733C17.0112 11.7339 15.5097 12.2873 13.8218 12.5158C12.9033 12.573 11.8849 12.7223 10.8511 12.573C8.9605 12.393 7.27431 11.8082 6.01262 10.9733C4.48197 9.96034 3.59275 8.61203 3.59275 7.15886C3.59275 5.70564 4.48197 4.35873 6.01267 3.34581C6.86205 2.78378 7.90314 2.33364 9.06986 2.04503H9.06981ZM19.5054 15.4233C18.7691 15.4233 18.1723 16.0202 18.1723 16.7565C18.1723 17.4926 18.769 18.0894 19.5054 18.0894C20.2417 18.0894 20.8384 17.4927 20.8384 16.7564C20.8384 16.0202 20.2417 15.4233 19.5054 15.4233V15.4233Z" fill="white"/>
</svg>
