<?xml version="1.0" encoding="UTF-8"?>
<svg id="Layer_1" xmlns="http://www.w3.org/2000/svg" version="1.1" viewBox="0 0 24 24">
  <!-- Generator: Adobe Illustrator 29.2.0, SVG Export Plug-In . SVG Version: 2.1.0 Build 108)  -->
  <path d="M5.8,16.6l-1.3-1.3,7.8-7.8,4.2,4.2-7.8,7.8-1.4-1.4c-.2,0-.5.2-.7.4,0,0-.1.1-.1.2,0,.1-.1.3-.2.4-.1.3-.2.5-.4.8-.1.2-.2.3-.4.5-.1.1-.2.2-.4.3,0,0-.2.1-.3.1-.6.2-1.3.2-1.9.2v-2h.9c0,0,.2,0,.3,0h0c0-.1.1-.2.2-.3,0-.2.1-.4.2-.5h0c.1-.4.3-.6.4-.8,0-.1.2-.2.3-.4.1-.1.2-.2.4-.3ZM21,3l-1.1,8.2-7.1-7.1,8.2-1.1Z"/>
</svg>