<svg width="24" height="24" viewBox="0 0 24 24" fill="none" xmlns="http://www.w3.org/2000/svg">
<path d="M7.21558 3L5.12377 6.66234H18.8766L16.7844 3H7.21558ZM3 7.36364V9.15584H21V7.36364H3ZM4.24675 9.85714V11.6494H6.03896V9.85714H4.24675ZM17.961 9.85714V11.6494H19.7532V9.85714H17.961ZM11.2831 9.88052C11.2831 9.88052 10.426 10.2234 10.3481 10.613C10.1688 11.5013 11.6688 12.9818 11.6688 12.9818C11.6688 12.9818 11.1506 11.6338 11.1117 10.9247C11.0922 10.5701 11.2831 9.88052 11.2831 9.88052ZM13.4026 10.4571C13.1649 12.0234 12.9662 13.7182 11.6143 14.361C10.4338 14.9221 10.1961 11.3026 7.94805 10.7961C9.6974 14.7351 5.26364 16.2468 9.59221 18.0117H10.3519C9.41688 17.0026 9.01169 14.474 9.01169 14.474C9.01169 14.474 10.1883 17.2792 11.4468 17.3649C12.0312 17.4039 12.7519 16.1883 12.7519 16.1883C12.7519 16.1883 12.9818 17.3493 12.7481 18.0117H14.4545C15.5182 17.4351 16.1922 16.6208 16.4494 15.7792C16.7026 14.9649 16.5662 14.1234 16.0247 13.4455C15.6896 15.4636 15.1909 15.8922 13.8779 16.3325C15.3039 14.5909 14.6649 11.6883 13.4026 10.4571ZM4.24675 12.3506V14.1429H6.03896V12.3506H4.24675ZM17.961 12.3506V14.1429H19.7532V12.3506H17.961ZM4.24675 14.8442V17.8831H6.03896V14.8442H4.24675ZM17.961 14.8442V17.8831H19.7532V14.8442H17.961ZM3 18.5844V21H21V18.5844H3Z" fill="white"/>
</svg>
