<?xml version="1.0" encoding="UTF-8"?>
<svg id="Layer_1" xmlns="http://www.w3.org/2000/svg" version="1.1" viewBox="0 0 24 24">
  <!-- Generator: Adobe Illustrator 29.2.0, SVG Export Plug-In . SVG Version: 2.1.0 Build 108)  -->
  <path d="M17.7,7.8c0,0,.2-.1.3-.2.1,0,.2,0,.4,0,.1,0,.2,0,.3.1,0,0,.2.1.3.2,0,0,.1.2.1.3,0,.1,0,.2,0,.4,0,.1,0,.2-.2.3,0,0-.2.2-.3.2h0s-4.2,1.6-4.2,1.6c0,0-.2,0-.1-.1h0s3.5-2.9,3.5-2.9ZM17,3.3c.1,0,.2.1.3.2,0,.1.1.2.1.3,0,.1,0,.2,0,.4,0,.1,0,.2-.2.3l-2.8,3.5c0,0-.2,0-.2,0l1.6-4.2c0-.1.1-.2.2-.3,0,0,.2-.2.3-.2.1,0,.2,0,.4,0,.1,0,.2,0,.3.1ZM21,11.2c.1,0,.2,0,.4,0,.1,0,.2,0,.3.2,0,0,.2.2.2.3,0,.1,0,.2,0,.4s0,.2,0,.4c0,.1-.1.2-.2.3,0,0-.2.1-.3.2-.1,0-.2,0-.4,0l-4.4-.7c-.1,0-.1-.2,0-.2l4.4-.7ZM14.2,16c0,0,0-.2.1-.1h0s2.8,3.5,2.8,3.5c0,0,.1.2.2.3,0,.1,0,.2,0,.3,0,.1,0,.2-.1.3,0,0-.1.2-.2.3,0,0-.2.1-.3.1-.1,0-.2,0-.3,0-.1,0-.2,0-.3-.2,0,0-.2-.2-.2-.3h0c0-.1-1.6-4.3-1.6-4.3ZM14.3,13.2l4.2,1.6c.1,0,.2.1.3.2,0,0,.2.2.2.3,0,.1,0,.2,0,.4,0,.1,0,.2-.1.3,0,.1-.1.2-.2.3-.1,0-.2.1-.3.1s-.2,0-.4,0c-.1,0-.2,0-.3-.2l-3.5-2.8c0,0,0-.2,0-.2ZM9.8,16l-1.6,4.2c0,.1-.1.2-.2.3,0,0-.2.2-.3.2-.1,0-.2,0-.4,0-.1,0-.2,0-.3-.1-.1,0-.2-.1-.3-.2,0-.1-.1-.2-.1-.3,0-.1,0-.2,0-.4,0-.1,0-.2.2-.3l2.9-3.5c0,0,.2,0,.2,0ZM9.8,13.4l-3.5,2.9c0,0-.2.1-.3.2-.1,0-.2,0-.4,0-.1,0-.2,0-.3-.1-.1,0-.2-.2-.2-.3,0-.1,0-.2-.1-.3,0-.1,0-.2,0-.4,0-.1.1-.2.2-.3,0,0,.2-.2.3-.2l4.2-1.6c.1,0,.2,0,0,.2ZM2,12c0,.5.5.9,1,.8l4.4-.7c.1,0,.1-.2,0-.2l-4.4-.7c-.1,0-.2,0-.4,0-.1,0-.2,0-.3.2,0,0-.2.2-.2.3,0,.1,0,.2,0,.4h0ZM5.1,8c0,0,.1-.2.2-.3,0,0,.2-.1.3-.1s.2,0,.3,0c.1,0,.2,0,.3.1h0c0,0,3.5,2.9,3.5,2.9,0,0,0,.2,0,.2h0s-4.2-1.6-4.2-1.6c-.1,0-.2-.1-.3-.2,0,0-.2-.2-.2-.3,0-.1,0-.2,0-.4,0-.1,0-.2.1-.3ZM8.2,3.8l1.6,4.2c0,.1,0,.2-.2,0l-2.9-3.5c0,0-.1-.2-.2-.3,0-.1,0-.2,0-.4,0-.1,0-.2.1-.3,0-.1.2-.2.3-.2.1,0,.2,0,.3-.1.1,0,.2,0,.4,0,.1,0,.2.1.3.2,0,0,.2.2.2.3ZM11.2,5c0-.1,0-.2,0-.4,0-.1,0-.2.2-.3,0,0,.2-.2.3-.2s.2,0,.4,0,.2,0,.4,0,.2.1.3.2c0,0,.1.2.2.3,0,.1,0,.2,0,.4l-.7,4.4c0,.1-.2.1-.2,0l-.7-4.4h0ZM12.8,19c0,.1,0,.2,0,.4,0,.1,0,.2-.2.3,0,0-.2.2-.3.2-.1,0-.2,0-.4,0s-.2,0-.4,0c-.1,0-.2-.1-.3-.2,0,0-.1-.2-.2-.3,0-.1,0-.2,0-.4l.7-4.4c0-.1.2-.1.2,0l.7,4.4Z"/>
</svg>