<svg width="24" height="24" viewBox="0 0 24 24" fill="none" xmlns="http://www.w3.org/2000/svg">
<path d="M8.4351 4.22083C5.9575 4.2321 3.87579 4.93628 3 5.171C9.8923 4.53186 10.92 6.31919 10.729 8.27935C10.0334 9.74988 9.7649 10.4279 9.6632 11.0212C9.65938 11.0179 9.65579 11.0144 9.65186 11.011C9.64668 11.0706 9.64218 11.1302 9.63838 11.1899C9.59356 11.5525 9.60341 11.9085 9.60616 12.4275C9.61502 14.0964 10.3832 15.4816 10.9639 17.2398C10.2228 18.599 8.56231 18.8098 6.72089 18.7946C7.31952 18.9593 8.9119 20.1605 13.7429 18.0849C13.0408 19.5687 9.85156 20.6605 9.75906 21.2207C13.4129 20.9029 15.7464 19.2678 16.3425 16.8031C17.3685 16.156 18.2903 15.3395 19.0615 13.3649C19.2515 12.7782 20.068 12.7233 20.6971 12.5735C21.0061 12.5 21.1859 11.8788 20.6971 11.8095C20.0536 11.664 19.1285 11.7412 18.7666 11.0727C15.969 5.49212 11.8303 4.20568 8.4351 4.22083ZM4.82679 8.81254C4.58437 8.81098 4.38726 8.85092 4.25432 8.9406C6.27712 10.0808 7.03277 10.5742 7.04911 10.9635C7.06079 11.6813 4.9109 11.8761 4.85046 12.2597C4.82748 12.4054 6.57693 13.3767 6.83463 13.7469C7.14673 14.3179 6.13735 15.1412 4.82363 16.039C5.09774 16.4772 7.59226 15.5107 9.27856 14.609C8.99738 13.2592 8.8176 11.8842 9.01792 10.5081C7.78124 9.60573 5.87759 8.81918 4.82679 8.81246V8.81254ZM16.6544 10.1376C17.3103 10.1376 17.8493 10.6862 17.8493 11.3537C17.8493 12.0213 17.3103 12.5699 16.6544 12.5699C15.9985 12.5699 15.4595 12.0213 15.4595 11.3537C15.4595 10.6862 15.9986 10.1376 16.6544 10.1376ZM13.9217 10.6208C14.0748 10.6232 14.2285 10.632 14.3827 10.6482L14.4013 10.6501L14.4196 10.6541C14.7061 10.7166 14.8227 10.9403 14.9046 11.1421C14.9866 11.3437 15.0337 11.5751 15.0576 11.8228C15.1053 12.3182 15.0741 12.8674 14.8296 13.2984C14.6839 13.5554 14.4675 13.6448 14.2012 13.7477C13.9351 13.8507 13.609 13.9299 13.2449 13.9744C12.5165 14.0634 11.6364 14.0158 10.8544 13.6499L10.0946 13.2945L10.8803 13.0036C11.2606 12.8629 11.5388 12.6982 11.7389 12.5531C11.4161 12.4162 11.0162 12.1915 10.6529 11.8196L10.2596 11.417L10.7898 11.2406C11.8064 10.9023 12.85 10.6038 13.9217 10.6209L13.9217 10.6208ZM16.6544 10.837C16.37 10.837 16.1467 11.0643 16.1467 11.3537C16.1467 11.5783 16.2813 11.7649 16.4743 11.8375C16.4295 11.7617 16.4058 11.6761 16.4055 11.5889C16.4055 11.4549 16.4609 11.3263 16.5595 11.2316C16.6582 11.1368 16.7919 11.0835 16.9314 11.0835C16.9905 11.0837 17.0492 11.0935 17.1049 11.1125C17.0209 10.9476 16.8527 10.837 16.6544 10.837L16.6544 10.837ZM13.9108 11.3205C13.1661 11.31 12.4024 11.4794 11.6231 11.7128C12.0708 11.9924 12.4653 12.057 12.4653 12.057L13.0278 12.1445L12.6898 12.6103C12.6898 12.6103 12.5544 12.7924 12.3006 12.9996C12.2028 13.0793 12.0786 13.1663 11.9399 13.2541C12.3563 13.3244 12.7848 13.3262 13.1629 13.2799C13.478 13.2415 13.7581 13.171 13.9573 13.094C14.1565 13.017 14.2644 12.8962 14.2345 12.9488C14.3441 12.7555 14.4114 12.2826 14.3737 11.891C14.3548 11.6952 14.3133 11.5169 14.2697 11.4095C14.2513 11.3644 14.2367 11.3496 14.2282 11.339C14.1227 11.3301 14.0171 11.322 13.9109 11.3205L13.9108 11.3205Z" fill="white"/>
</svg>
