<?xml version="1.0" encoding="UTF-8"?>
<svg id="Layer_1" data-name="Layer 1" xmlns="http://www.w3.org/2000/svg" viewBox="0 0 22.19 18.25">
  <path d="M6.77,16.15c.24.1.5.17.76.23,3.32.71,7.68-1.34,10.32-3.26,1.11-.81,2.1-1.75,2.98-2.81.02.04-.05.1-.07.13-.15.2-.34.41-.51.61-1.89,2.17-4.54,3.89-7.21,4.95-2.01.8-4.31,1.33-6.46.8-.1.09-.18.19-.29.27-.56.38-1.37.21-1.68-.41-.15-.29-.16-.58-.08-.89-.67-.57-1.14-1.44-1.22-2.32-.28-2.8,2.69-5.77,4.88-7.12,1.51-.93,3.91-1.88,5.69-1.43,2.48.62,1.17,3.45-.21,4.49-.21,2.04-2.63,2.97-4.16,1.58-.19-.17-.29-.33-.43-.54-.01-.02,0-.04-.04-.03-.14.28-.24.55-.22.87.04.66.69.91,1.26.95,2.76.16,6.04-2.38,7.32-4.7.79-1.44.96-3.29-.34-4.48-.1,0-.19.06-.29.07-.52.05-.92-.38-.91-.89-.14-.05-.28-.12-.42-.17-3.11-1.03-7.23.7-9.86,2.37-1.52.96-2.89,2.12-4.03,3.51v-.03c1.17-1.5,2.59-2.75,4.19-3.78,2.78-1.79,6.68-3.42,10.03-2.65.11.02.42.15.5.13.04-.01.12-.06.18-.08.37-.1.78.06.95.41.05.1.06.27.09.32.03.04.36.28.43.35,2.46,2.28.43,5.67-1.45,7.54s-5.25,3.83-7.91,3.25c-2.38-.52-1.45-2.9-.26-4.14.09-.1.39-.34.44-.42s.09-.39.14-.52c.64-1.76,2.98-2.2,4.21-.79.07.08.15.24.22.3.02.02.01.03.04,0,.17-.2.24-.71.18-.96-.2-.87-1.4-.85-2.09-.77-2.55.3-5.62,2.77-6.68,5.08-.59,1.31-.62,2.83.4,3.92.77-.34,1.66.23,1.63,1.08Z"/>
  <path d="M16.58,6.09l-.11-.53c-.89-2.49-4.58-1.82-6.5-1.11-3.24,1.19-6.89,3.8-8.38,6.99-.95,2.05-1.18,4.84.84,6.33l.75.49c-.97-.24-1.94-.77-2.5-1.61C0,15.62-.11,14.38.09,13.19.84,8.73,6.08,4.94,10.14,3.66c1.55-.49,3.86-.84,5.34,0,.9.51,1.28,1.41,1.1,2.43Z"/>
  <path d="M5.65,12.06l.09.47c.83,2.48,4.45,1.88,6.36,1.22,3.07-1.06,6.62-3.53,8.21-6.41,1.2-2.17,1.64-5.28-.65-6.89l-.68-.44c1,.26,1.97.78,2.55,1.66.76,1.17.79,2.61.45,3.93-1.04,4.06-5.63,7.36-9.4,8.71-1.66.6-3.97,1.02-5.64.26-1.01-.46-1.51-1.4-1.3-2.51Z"/>
  <path d="M1.44,8s.03-.07.06-.08c0,.04-.03.07-.06.08Z"/>
</svg>