<?xml version="1.0" encoding="UTF-8"?>
<svg id="Layer_1" xmlns="http://www.w3.org/2000/svg" version="1.1" viewBox="0 0 24 24">
  <!-- Generator: Adobe Illustrator 29.2.0, SVG Export Plug-In . SVG Version: 2.1.0 Build 108)  -->
  <path d="M3.7.7C2.1.7.8,2,.8,3.6v16.6c0,1.6,1.3,2.9,2.9,2.9h16.6c1.6,0,2.9-1.3,2.9-2.9V3.6c0-1.6-1.3-2.9-2.9-2.9H3.7ZM3.7,2.2h16.6c.8,0,1.4.6,1.4,1.4v16.6c0,.8-.6,1.4-1.4,1.4H3.7c-.8,0-1.4-.6-1.4-1.4V3.6c0-.8.6-1.4,1.4-1.4Z"/>
  <path d="M10.9,15.9v1.4h7.9v-1.4h-7.9Z"/>
  <path d="M10.9,6.5v7.8h1.6v-6.3h1.6v6.3h1.6v-6.3h1.1c.3,0,.5.2.5.5v5.8h1.6v-6c0-1-.8-1.8-1.8-1.8h-6.3Z"/>
  <path d="M6.8,6.5c-1,0-1.8.8-1.8,1.8v4.2c0,1,.8,1.8,1.8,1.8h1.4v.4c0,.7-.6,1.3-1.4,1.3h-.9v1.4h.9c1.7,0,3.1-1.2,3.1-2.7V6.5h-3.1ZM7.1,8h1.1v4.9h-1.1c-.3,0-.5-.2-.5-.5v-3.8c0-.3.2-.5.5-.5Z"/>
</svg>