<?xml version="1.0" encoding="UTF-8"?>
<svg id="Layer_1" xmlns="http://www.w3.org/2000/svg" version="1.1" viewBox="0 0 24 24">
  <!-- Generator: Adobe Illustrator 29.2.0, SVG Export Plug-In . SVG Version: 2.1.0 Build 108)  -->
  <path d="M21,3H3c-1.1,0-2,.9-2,2v12c0,1.1.9,2,2,2h5v2h8v-2h5c1.1,0,2-.9,2-2V5c0-1.1-.9-2-2-2ZM21,17H3V5h18v12Z"/>
  <path d="M12.1,6c-2.8,0-5.1,2.3-5.1,5.1s2.3,5.1,5.1,5.1,5.1-2.3,5.1-5.1-2.3-5.1-5.1-5.1ZM12.1,15.3c-2.3,0-4.2-1.9-4.2-4.2s1.9-4.2,4.2-4.2,4.2,1.9,4.2,4.2-1.9,4.2-4.2,4.2Z"/>
  <path d="M12.5,6.2l-3.7,4.6h8.2l-4.5-4.6ZM12.5,7.3l2.9,3h-5.3l2.4-3Z"/>
  <rect x="11.9" y="3.4" width=".3" height="15.3" transform="translate(-4.3 11.7) rotate(-45)"/>
</svg>