<?xml version="1.0" encoding="UTF-8"?>
<svg id="Layer_1" data-name="Layer 1" xmlns="http://www.w3.org/2000/svg" viewBox="0 0 22 16">
  <path d="M20,0H2C.9,0,0,.9,0,2v12c0,1.09.88,1.98,1.96,2h18.04c1.1,0,2-.9,2-2V2c0-1.1-.9-2-2-2ZM20.94,13.96c0,.5-.41.9-.91.9H1.96c-.5,0-.9-.4-.9-.9V2.04c0-.5.4-.9.9-.9h18.07c.5,0,.91.4.91.9v11.92Z"/>
  <path d="M11,2.08c-3.32,0-6.04,2.72-6.04,6.04s2.72,6.04,6.04,6.04,6.04-2.72,6.04-6.04-2.72-6.04-6.04-6.04ZM11,13.09c-2.72,0-4.97-2.25-4.97-4.97s2.25-4.97,4.97-4.97,4.97,2.25,4.97,4.97-2.25,4.97-4.97,4.97Z"/>
  <path d="M11.48,2.32l-4.38,5.45h9.71s-5.33-5.45-5.33-5.45ZM11.48,3.62l3.43,3.55h-6.28l2.84-3.55Z"/>
  <polygon points="17.4 14.13 17.4 14.4 17.18 14.4 4.6 1.82 4.6 1.59 4.87 1.59 17.4 14.13"/>
</svg>