<?xml version="1.0" encoding="UTF-8"?>
<svg id="Layer_1" data-name="Layer 1" xmlns="http://www.w3.org/2000/svg" viewBox="0 0 23.53 22.28">
  <path d="M12.84,12.81s-.03-.11-.06-.11c-.18.1-.38.1-.58.12-.07.03-.08.1-.11.15-.14.18-.45.19-.61.04-.06-.05-.1-.16-.17-.19-.08-.02-.24-.01-.33-.03-.21-.03-.3-.21-.33.13-.02.24.1.48.32.58.07.04.17.05.24.09.07.05.06.14.11.21.05.08.35.24.45.23.08-.01.36-.17.41-.23.02-.05.02-.09.05-.14.05-.11.26-.14.38-.21.24-.16.31-.37.23-.64ZM13.4,14.49c-.15-.03-.24.01-.38-.11-.18-.16-.23-.34-.51-.4-.3-.06-.43.09-.67.16-.19.04-.43-.15-.63-.17-.53-.04-.52.4-.9.5-.15.03-.33-.03-.32.19.01.06.04.11.09.14.26.17.77-.14,1.06-.14.17-.01.5.12.5.31.01.33-.61.33-.83.31-.05-.01-.12-.03-.17-.03-.07,0-.02.05,0,.09.21.31.52.45.89.48.39.02.83,0,1.14-.26.04-.03.28-.26.23-.31-.24.07-.89.08-1.03-.18-.11-.22.15-.35.32-.39.41-.1.84.29,1.22.12.16-.07.14-.28-.01-.31ZM13.4,14.49c-.15-.03-.24.01-.38-.11-.18-.16-.23-.34-.51-.4-.3-.06-.43.09-.67.16-.19.04-.43-.15-.63-.17-.53-.04-.52.4-.9.5-.15.03-.33-.03-.32.19.01.06.04.11.09.14.26.17.77-.14,1.06-.14.17-.01.5.12.5.31.01.33-.61.33-.83.31-.05-.01-.12-.03-.17-.03-.07,0-.02.05,0,.09.21.31.52.45.89.48.39.02.83,0,1.14-.26.04-.03.28-.26.23-.31-.24.07-.89.08-1.03-.18-.11-.22.15-.35.32-.39.41-.1.84.29,1.22.12.16-.07.14-.28-.01-.31ZM12.84,12.81s-.03-.11-.06-.11c-.18.1-.38.1-.58.12-.07.03-.08.1-.11.15-.14.18-.45.19-.61.04-.06-.05-.1-.16-.17-.19-.08-.02-.24-.01-.33-.03-.21-.03-.3-.21-.33.13-.02.24.1.48.32.58.07.04.17.05.24.09.07.05.06.14.11.21.05.08.35.24.45.23.08-.01.36-.17.41-.23.02-.05.02-.09.05-.14.05-.11.26-.14.38-.21.24-.16.31-.37.23-.64ZM12.84,12.81s-.03-.11-.06-.11c-.18.1-.38.1-.58.12-.07.03-.08.1-.11.15-.14.18-.45.19-.61.04-.06-.05-.1-.16-.17-.19-.08-.02-.24-.01-.33-.03-.21-.03-.3-.21-.33.13-.02.24.1.48.32.58.07.04.17.05.24.09.07.05.06.14.11.21.05.08.35.24.45.23.08-.01.36-.17.41-.23.02-.05.02-.09.05-.14.05-.11.26-.14.38-.21.24-.16.31-.37.23-.64ZM13.4,14.49c-.15-.03-.24.01-.38-.11-.18-.16-.23-.34-.51-.4-.3-.06-.43.09-.67.16-.19.04-.43-.15-.63-.17-.53-.04-.52.4-.9.5-.15.03-.33-.03-.32.19.01.06.04.11.09.14.26.17.77-.14,1.06-.14.17-.01.5.12.5.31.01.33-.61.33-.83.31-.05-.01-.12-.03-.17-.03-.07,0-.02.05,0,.09.21.31.52.45.89.48.39.02.83,0,1.14-.26.04-.03.28-.26.23-.31-.24.07-.89.08-1.03-.18-.11-.22.15-.35.32-.39.41-.1.84.29,1.22.12.16-.07.14-.28-.01-.31ZM13.4,14.49c-.15-.03-.24.01-.38-.11-.18-.16-.23-.34-.51-.4-.3-.06-.43.09-.67.16-.19.04-.43-.15-.63-.17-.53-.04-.52.4-.9.5-.15.03-.33-.03-.32.19.01.06.04.11.09.14.26.17.77-.14,1.06-.14.17-.01.5.12.5.31.01.33-.61.33-.83.31-.05-.01-.12-.03-.17-.03-.07,0-.02.05,0,.09.21.31.52.45.89.48.39.02.83,0,1.14-.26.04-.03.28-.26.23-.31-.24.07-.89.08-1.03-.18-.11-.22.15-.35.32-.39.41-.1.84.29,1.22.12.16-.07.14-.28-.01-.31ZM12.84,12.81s-.03-.11-.06-.11c-.18.1-.38.1-.58.12-.07.03-.08.1-.11.15-.14.18-.45.19-.61.04-.06-.05-.1-.16-.17-.19-.08-.02-.24-.01-.33-.03-.21-.03-.3-.21-.33.13-.02.24.1.48.32.58.07.04.17.05.24.09.07.05.06.14.11.21.05.08.35.24.45.23.08-.01.36-.17.41-.23.02-.05.02-.09.05-.14.05-.11.26-.14.38-.21.24-.16.31-.37.23-.64ZM12.84,12.81s-.03-.11-.06-.11c-.18.1-.38.1-.58.12-.07.03-.08.1-.11.15-.14.18-.45.19-.61.04-.06-.05-.1-.16-.17-.19-.08-.02-.24-.01-.33-.03-.21-.03-.3-.21-.33.13-.02.24.1.48.32.58.07.04.17.05.24.09.07.05.06.14.11.21.05.08.35.24.45.23.08-.01.36-.17.41-.23.02-.05.02-.09.05-.14.05-.11.26-.14.38-.21.24-.16.31-.37.23-.64ZM13.4,14.49c-.15-.03-.24.01-.38-.11-.18-.16-.23-.34-.51-.4-.3-.06-.43.09-.67.16-.19.04-.43-.15-.63-.17-.53-.04-.52.4-.9.5-.15.03-.33-.03-.32.19.01.06.04.11.09.14.26.17.77-.14,1.06-.14.17-.01.5.12.5.31.01.33-.61.33-.83.31-.05-.01-.12-.03-.17-.03-.07,0-.02.05,0,.09.21.31.52.45.89.48.39.02.83,0,1.14-.26.04-.03.28-.26.23-.31-.24.07-.89.08-1.03-.18-.11-.22.15-.35.32-.39.41-.1.84.29,1.22.12.16-.07.14-.28-.01-.31ZM13.4,14.49c-.15-.03-.24.01-.38-.11-.18-.16-.23-.34-.51-.4-.3-.06-.43.09-.67.16-.19.04-.43-.15-.63-.17-.53-.04-.52.4-.9.5-.15.03-.33-.03-.32.19.01.06.04.11.09.14.26.17.77-.14,1.06-.14.17-.01.5.12.5.31.01.33-.61.33-.83.31-.05-.01-.12-.03-.17-.03-.07,0-.02.05,0,.09.21.31.52.45.89.48.39.02.83,0,1.14-.26.04-.03.28-.26.23-.31-.24.07-.89.08-1.03-.18-.11-.22.15-.35.32-.39.41-.1.84.29,1.22.12.16-.07.14-.28-.01-.31ZM12.84,12.81s-.03-.11-.06-.11c-.18.1-.38.1-.58.12-.07.03-.08.1-.11.15-.14.18-.45.19-.61.04-.06-.05-.1-.16-.17-.19-.08-.02-.24-.01-.33-.03-.21-.03-.3-.21-.33.13-.02.24.1.48.32.58.07.04.17.05.24.09.07.05.06.14.11.21.05.08.35.24.45.23.08-.01.36-.17.41-.23.02-.05.02-.09.05-.14.05-.11.26-.14.38-.21.24-.16.31-.37.23-.64ZM12.84,12.81s-.03-.11-.06-.11c-.18.1-.38.1-.58.12-.07.03-.08.1-.11.15-.14.18-.45.19-.61.04-.06-.05-.1-.16-.17-.19-.08-.02-.24-.01-.33-.03-.21-.03-.3-.21-.33.13-.02.24.1.48.32.58.07.04.17.05.24.09.07.05.06.14.11.21.05.08.35.24.45.23.08-.01.36-.17.41-.23.02-.05.02-.09.05-.14.05-.11.26-.14.38-.21.24-.16.31-.37.23-.64ZM13.4,14.49c-.15-.03-.24.01-.38-.11-.18-.16-.23-.34-.51-.4-.3-.06-.43.09-.67.16-.19.04-.43-.15-.63-.17-.53-.04-.52.4-.9.5-.15.03-.33-.03-.32.19.01.06.04.11.09.14.26.17.77-.14,1.06-.14.17-.01.5.12.5.31.01.33-.61.33-.83.31-.05-.01-.12-.03-.17-.03-.07,0-.02.05,0,.09.21.31.52.45.89.48.39.02.83,0,1.14-.26.04-.03.28-.26.23-.31-.24.07-.89.08-1.03-.18-.11-.22.15-.35.32-.39.41-.1.84.29,1.22.12.16-.07.14-.28-.01-.31ZM13.4,14.49c-.15-.03-.24.01-.38-.11-.18-.16-.23-.34-.51-.4-.3-.06-.43.09-.67.16-.19.04-.43-.15-.63-.17-.53-.04-.52.4-.9.5-.15.03-.33-.03-.32.19.01.06.04.11.09.14.26.17.77-.14,1.06-.14.17-.01.5.12.5.31.01.33-.61.33-.83.31-.05-.01-.12-.03-.17-.03-.07,0-.02.05,0,.09.21.31.52.45.89.48.39.02.83,0,1.14-.26.04-.03.28-.26.23-.31-.24.07-.89.08-1.03-.18-.11-.22.15-.35.32-.39.41-.1.84.29,1.22.12.16-.07.14-.28-.01-.31ZM12.84,12.81s-.03-.11-.06-.11c-.18.1-.38.1-.58.12-.07.03-.08.1-.11.15-.14.18-.45.19-.61.04-.06-.05-.1-.16-.17-.19-.08-.02-.24-.01-.33-.03-.21-.03-.3-.21-.33.13-.02.24.1.48.32.58.07.04.17.05.24.09.07.05.06.14.11.21.05.08.35.24.45.23.08-.01.36-.17.41-.23.02-.05.02-.09.05-.14.05-.11.26-.14.38-.21.24-.16.31-.37.23-.64ZM12.84,12.81s-.03-.11-.06-.11c-.18.1-.38.1-.58.12-.07.03-.08.1-.11.15-.14.18-.45.19-.61.04-.06-.05-.1-.16-.17-.19-.08-.02-.24-.01-.33-.03-.21-.03-.3-.21-.33.13-.02.24.1.48.32.58.07.04.17.05.24.09.07.05.06.14.11.21.05.08.35.24.45.23.08-.01.36-.17.41-.23.02-.05.02-.09.05-.14.05-.11.26-.14.38-.21.24-.16.31-.37.23-.64ZM13.4,14.49c-.15-.03-.24.01-.38-.11-.18-.16-.23-.34-.51-.4-.3-.06-.43.09-.67.16-.19.04-.43-.15-.63-.17-.53-.04-.52.4-.9.5-.15.03-.33-.03-.32.19.01.06.04.11.09.14.26.17.77-.14,1.06-.14.17-.01.5.12.5.31.01.33-.61.33-.83.31-.05-.01-.12-.03-.17-.03-.07,0-.02.05,0,.09.21.31.52.45.89.48.39.02.83,0,1.14-.26.04-.03.28-.26.23-.31-.24.07-.89.08-1.03-.18-.11-.22.15-.35.32-.39.41-.1.84.29,1.22.12.16-.07.14-.28-.01-.31ZM13.4,14.49c-.15-.03-.24.01-.38-.11-.18-.16-.23-.34-.51-.4-.3-.06-.43.09-.67.16-.19.04-.43-.15-.63-.17-.53-.04-.52.4-.9.5-.15.03-.33-.03-.32.19.01.06.04.11.09.14.26.17.77-.14,1.06-.14.17-.01.5.12.5.31.01.33-.61.33-.83.31-.05-.01-.12-.03-.17-.03-.07,0-.02.05,0,.09.21.31.52.45.89.48.39.02.83,0,1.14-.26.04-.03.28-.26.23-.31-.24.07-.89.08-1.03-.18-.11-.22.15-.35.32-.39.41-.1.84.29,1.22.12.16-.07.14-.28-.01-.31ZM12.84,12.81s-.03-.11-.06-.11c-.18.1-.38.1-.58.12-.07.03-.08.1-.11.15-.14.18-.45.19-.61.04-.06-.05-.1-.16-.17-.19-.08-.02-.24-.01-.33-.03-.21-.03-.3-.21-.33.13-.02.24.1.48.32.58.07.04.17.05.24.09.07.05.06.14.11.21.05.08.35.24.45.23.08-.01.36-.17.41-.23.02-.05.02-.09.05-.14.05-.11.26-.14.38-.21.24-.16.31-.37.23-.64ZM12.84,12.81s-.03-.11-.06-.11c-.18.1-.38.1-.58.12-.07.03-.08.1-.11.15-.14.18-.45.19-.61.04-.06-.05-.1-.16-.17-.19-.08-.02-.24-.01-.33-.03-.21-.03-.3-.21-.33.13-.02.24.1.48.32.58.07.04.17.05.24.09.07.05.06.14.11.21.05.08.35.24.45.23.08-.01.36-.17.41-.23.02-.05.02-.09.05-.14.05-.11.26-.14.38-.21.24-.16.31-.37.23-.64ZM13.4,14.49c-.15-.03-.24.01-.38-.11-.18-.16-.23-.34-.51-.4-.3-.06-.43.09-.67.16-.19.04-.43-.15-.63-.17-.53-.04-.52.4-.9.5-.15.03-.33-.03-.32.19.01.06.04.11.09.14.26.17.77-.14,1.06-.14.17-.01.5.12.5.31.01.33-.61.33-.83.31-.05-.01-.12-.03-.17-.03-.07,0-.02.05,0,.09.21.31.52.45.89.48.39.02.83,0,1.14-.26.04-.03.28-.26.23-.31-.24.07-.89.08-1.03-.18-.11-.22.15-.35.32-.39.41-.1.84.29,1.22.12.16-.07.14-.28-.01-.31ZM13.4,14.49c-.15-.03-.24.01-.38-.11-.18-.16-.23-.34-.51-.4-.3-.06-.43.09-.67.16-.19.04-.43-.15-.63-.17-.53-.04-.52.4-.9.5-.15.03-.33-.03-.32.19.01.06.04.11.09.14.26.17.77-.14,1.06-.14.17-.01.5.12.5.31.01.33-.61.33-.83.31-.05-.01-.12-.03-.17-.03-.07,0-.02.05,0,.09.21.31.52.45.89.48.39.02.83,0,1.14-.26.04-.03.28-.26.23-.31-.24.07-.89.08-1.03-.18-.11-.22.15-.35.32-.39.41-.1.84.29,1.22.12.16-.07.14-.28-.01-.31ZM12.84,12.81s-.03-.11-.06-.11c-.18.1-.38.1-.58.12-.07.03-.08.1-.11.15-.14.18-.45.19-.61.04-.06-.05-.1-.16-.17-.19-.08-.02-.24-.01-.33-.03-.21-.03-.3-.21-.33.13-.02.24.1.48.32.58.07.04.17.05.24.09.07.05.06.14.11.21.05.08.35.24.45.23.08-.01.36-.17.41-.23.02-.05.02-.09.05-.14.05-.11.26-.14.38-.21.24-.16.31-.37.23-.64ZM12.84,12.81s-.03-.11-.06-.11c-.18.1-.38.1-.58.12-.07.03-.08.1-.11.15-.14.18-.45.19-.61.04-.06-.05-.1-.16-.17-.19-.08-.02-.24-.01-.33-.03-.21-.03-.3-.21-.33.13-.02.24.1.48.32.58.07.04.17.05.24.09.07.05.06.14.11.21.05.08.35.24.45.23.08-.01.36-.17.41-.23.02-.05.02-.09.05-.14.05-.11.26-.14.38-.21.24-.16.31-.37.23-.64ZM13.4,14.49c-.15-.03-.24.01-.38-.11-.18-.16-.23-.34-.51-.4-.3-.06-.43.09-.67.16-.19.04-.43-.15-.63-.17-.53-.04-.52.4-.9.5-.15.03-.33-.03-.32.19.01.06.04.11.09.14.26.17.77-.14,1.06-.14.17-.01.5.12.5.31.01.33-.61.33-.83.31-.05-.01-.12-.03-.17-.03-.07,0-.02.05,0,.09.21.31.52.45.89.48.39.02.83,0,1.14-.26.04-.03.28-.26.23-.31-.24.07-.89.08-1.03-.18-.11-.22.15-.35.32-.39.41-.1.84.29,1.22.12.16-.07.14-.28-.01-.31ZM13.4,14.49c-.15-.03-.24.01-.38-.11-.18-.16-.23-.34-.51-.4-.3-.06-.43.09-.67.16-.19.04-.43-.15-.63-.17-.53-.04-.52.4-.9.5-.15.03-.33-.03-.32.19.01.06.04.11.09.14.26.17.77-.14,1.06-.14.17-.01.5.12.5.31.01.33-.61.33-.83.31-.05-.01-.12-.03-.17-.03-.07,0-.02.05,0,.09.21.31.52.45.89.48.39.02.83,0,1.14-.26.04-.03.28-.26.23-.31-.24.07-.89.08-1.03-.18-.11-.22.15-.35.32-.39.41-.1.84.29,1.22.12.16-.07.14-.28-.01-.31ZM12.84,12.81s-.03-.11-.06-.11c-.18.1-.38.1-.58.12-.07.03-.08.1-.11.15-.14.18-.45.19-.61.04-.06-.05-.1-.16-.17-.19-.08-.02-.24-.01-.33-.03-.21-.03-.3-.21-.33.13-.02.24.1.48.32.58.07.04.17.05.24.09.07.05.06.14.11.21.05.08.35.24.45.23.08-.01.36-.17.41-.23.02-.05.02-.09.05-.14.05-.11.26-.14.38-.21.24-.16.31-.37.23-.64ZM12.84,12.81s-.03-.11-.06-.11c-.18.1-.38.1-.58.12-.07.03-.08.1-.11.15-.14.18-.45.19-.61.04-.06-.05-.1-.16-.17-.19-.08-.02-.24-.01-.33-.03-.21-.03-.3-.21-.33.13-.02.24.1.48.32.58.07.04.17.05.24.09.07.05.06.14.11.21.05.08.35.24.45.23.08-.01.36-.17.41-.23.02-.05.02-.09.05-.14.05-.11.26-.14.38-.21.24-.16.31-.37.23-.64ZM13.4,14.49c-.15-.03-.24.01-.38-.11-.18-.16-.23-.34-.51-.4-.3-.06-.43.09-.67.16-.19.04-.43-.15-.63-.17-.53-.04-.52.4-.9.5-.15.03-.33-.03-.32.19.01.06.04.11.09.14.26.17.77-.14,1.06-.14.17-.01.5.12.5.31.01.33-.61.33-.83.31-.05-.01-.12-.03-.17-.03-.07,0-.02.05,0,.09.21.31.52.45.89.48.39.02.83,0,1.14-.26.04-.03.28-.26.23-.31-.24.07-.89.08-1.03-.18-.11-.22.15-.35.32-.39.41-.1.84.29,1.22.12.16-.07.14-.28-.01-.31ZM13.4,14.49c-.15-.03-.24.01-.38-.11-.18-.16-.23-.34-.51-.4-.3-.06-.43.09-.67.16-.19.04-.43-.15-.63-.17-.53-.04-.52.4-.9.5-.15.03-.33-.03-.32.19.01.06.04.11.09.14.26.17.77-.14,1.06-.14.17-.01.5.12.5.31.01.33-.61.33-.83.31-.05-.01-.12-.03-.17-.03-.07,0-.02.05,0,.09.21.31.52.45.89.48.39.02.83,0,1.14-.26.04-.03.28-.26.23-.31-.24.07-.89.08-1.03-.18-.11-.22.15-.35.32-.39.41-.1.84.29,1.22.12.16-.07.14-.28-.01-.31ZM12.84,12.81s-.03-.11-.06-.11c-.18.1-.38.1-.58.12-.07.03-.08.1-.11.15-.14.18-.45.19-.61.04-.06-.05-.1-.16-.17-.19-.08-.02-.24-.01-.33-.03-.21-.03-.3-.21-.33.13-.02.24.1.48.32.58.07.04.17.05.24.09.07.05.06.14.11.21.05.08.35.24.45.23.08-.01.36-.17.41-.23.02-.05.02-.09.05-.14.05-.11.26-.14.38-.21.24-.16.31-.37.23-.64ZM12.84,12.81s-.03-.11-.06-.11c-.18.1-.38.1-.58.12-.07.03-.08.1-.11.15-.14.18-.45.19-.61.04-.06-.05-.1-.16-.17-.19-.08-.02-.24-.01-.33-.03-.21-.03-.3-.21-.33.13-.02.24.1.48.32.58.07.04.17.05.24.09.07.05.06.14.11.21.05.08.35.24.45.23.08-.01.36-.17.41-.23.02-.05.02-.09.05-.14.05-.11.26-.14.38-.21.24-.16.31-.37.23-.64ZM13.4,14.49c-.15-.03-.24.01-.38-.11-.18-.16-.23-.34-.51-.4-.3-.06-.43.09-.67.16-.19.04-.43-.15-.63-.17-.53-.04-.52.4-.9.5-.15.03-.33-.03-.32.19.01.06.04.11.09.14.26.17.77-.14,1.06-.14.17-.01.5.12.5.31.01.33-.61.33-.83.31-.05-.01-.12-.03-.17-.03-.07,0-.02.05,0,.09.21.31.52.45.89.48.39.02.83,0,1.14-.26.04-.03.28-.26.23-.31-.24.07-.89.08-1.03-.18-.11-.22.15-.35.32-.39.41-.1.84.29,1.22.12.16-.07.14-.28-.01-.31ZM13.4,14.49c-.15-.03-.24.01-.38-.11-.18-.16-.23-.34-.51-.4-.3-.06-.43.09-.67.16-.19.04-.43-.15-.63-.17-.53-.04-.52.4-.9.5-.15.03-.33-.03-.32.19.01.06.04.11.09.14.26.17.77-.14,1.06-.14.17-.01.5.12.5.31.01.33-.61.33-.83.31-.05-.01-.12-.03-.17-.03-.07,0-.02.05,0,.09.21.31.52.45.89.48.39.02.83,0,1.14-.26.04-.03.28-.26.23-.31-.24.07-.89.08-1.03-.18-.11-.22.15-.35.32-.39.41-.1.84.29,1.22.12.16-.07.14-.28-.01-.31ZM10.97,13.5c.07.04.17.05.24.09.07.05.06.14.11.21.05.08.35.24.45.23.08-.01.36-.17.41-.23.02-.05.02-.09.05-.14.05-.11.26-.14.38-.21.24-.16.31-.37.23-.64-.01-.02-.03-.11-.06-.11-.18.1-.38.1-.58.12-.07.03-.08.1-.11.15-.14.18-.45.19-.61.04-.06-.05-.1-.16-.17-.19-.08-.02-.24-.01-.33-.03-.21-.03-.3-.21-.33.13-.02.24.1.48.32.58ZM20.17,14.18c-.65-.19-1.42.04-1.75-.73-.07-.15-.1-.33-.16-.49-.3-.83-1.24-1.06-1.3-2.07-.04-.6.08-.84.26-1.37.07-.22.08-.41.05-.64.03,0,.11.13.12.14.16.35-.05.77-.1,1.12-.08.54-.02,1.03.34,1.45.17.21.4.36.57.57.2.27.32.59.55.84.66.74,1.98.7,2.64-.03.96-1.06.38-2.84-1.07-3.02-.58-.07-.78.18-1.28.27-.26.05-.52-.06-.61.27-.14.47.28.74.7.73.47,0,.91-.4,1.36-.07.53.39.36,1.26-.33,1.32-.71.06-.9-.53-1.31-.94-.23-.23-.61-.29-.73-.64-.16-.49.15-.69.27-1.09.1-.33.14-1.05-.29-1.16-.27-.08-.64-.06-.93-.12-.43-.07-.71-.26-.96-.61-.03-.04-.07-.1-.09-.15.05,0,.42.21.47.23.25.11.52.19.78.24.36.06.66.02.98.23.36.23.95.67,1.23.97.1.11.14.23.29.25.15.01.3,0,.45.03.06.01.32.08.34.06.02,0,.03-.07.03-.1.05-.57-.1-1.11-.58-1.45-.55-.07-1.08-.24-1.46-.65-.18-.02-.37.02-.55.02-.52.02-1.12-.09-1.3-.65.27.1.52.26.81.31.23.04.48.02.71-.01-.08-.17-.21-.33-.29-.5-.13-.31-.16-.73-.42-.94-.05-.05-.35-.22-.4-.2-.02.01-.09.12-.12.15-.54.59-1.21.84-2,.55-.81-.29-1.57-1.26-1.23-2.15.13-.35.48-.55.5-.94.34.15.09.51,0,.74-.67,1.68,1.34,2.41,2.46,1.45.21-.18.52-.61.54-.89.01-.26-.14-.52-.43-.46-.18.04-.42.46-.57.61-.26.23-.75.42-1.07.22-.38-.24-.13-.69-.06-1.02.11-.5,0-1.08-.51-1.3l.1-.09c.31-.18.64.06.96-.18.18-.13.17-.23.25-.41.04-.09.2-.06.29-.08.21-.03.44-.16.47-.38-.14,0-.24.16-.38.1-.02-.46.43-.38.75-.31-.14-.35-.7-.33-.88-.03-.11.17-.02.36-.27.42-.2.06-.23-.04-.39-.1-.17-.07-.4-.05-.56.05-.05.03-.1.09-.15.12-.17.11-.45.13-.65.21-.36.15-.58.48-.63.86h.1s0,.19,0,.23c-.09.29-.4.55-.58.79-.59.8-.23,1.86.55,2.37.28.18.58.27.88.39.02.01.06.02.06.04-.59.11-1.24,0-1.66-.46-.47-.54-.51-1.44-.26-2.09.16-.41.74-.91.74-1.36,0-.29-.41-.45-.65-.48.05-.22.23-.43.44-.51.43-.17.83.09,1.26.05.25-.03.43-.23.63-.36.23-.16.47-.28.73-.35h.03c.08.12.12.4.3.29,0-.04-.07-.27-.07-.33,0-.12.11-.23.13-.34.03-.25-.1-.46-.34-.53-.22-.01-.45.03-.67.01-.37-.02-.58-.18-.97-.04-.17.06-.25.16-.38.25-.25.18-.58.16-.87.24-.73.2-1.2.73-1.33,1.47-.01.05-.01.18-.02.22,0,.02-.11.07-.13.02-.22-.66-.73-1.06-1.39-1.22-.23-.06-.5-.06-.69-.21-.04-.03-.07-.07-.11-.1-.53-.41-.98-.07-1.55-.1-.26-.02-.5-.1-.66.19-.17.31.07.45.05.75-.01.05-.03.09-.03.14-.17-.22-.45-.31-.7-.18-.06.03-.19.11-.16.19.3-.08.77-.1.7.34-.13.03-.22-.09-.34-.1,0,.1.08.17.13.24-.85-.2-1.74.03-2.31.69-.45.52-.56,1.23-.38,1.88.08.31.22.57.23.9.04.7-.5,1.17-1.18,1.11-.46-.03-.5-.34-.83-.54-.55-.31-1,.02-1.55-.02-.19-.02-.33-.09-.52-.01-.25.11-.3.5-.19.73.05.12.14.16.26.21-.12.16-.14.34-.15.54l-.16-.1c.04.15.02.3.01.46.01,0,.12-.05.14-.06.26-.16.15-.34.24-.58.05-.12.08-.15.22-.12.19.04.69.24.85.35.29.18.46.41.84.41.14-.01.27-.07.39-.09.14-.02.32.01.47,0,1.33-.07,2.4-1.13,2.26-2.5-.07-.63-.58-1.29-.08-1.85.42-.48,1.22-.49,1.67-.04.34.35.45.99,1.04,1.04.23.02.35-.17.33-.38-.02-.18-.1-.52-.15-.69-.08-.22-.19-.42-.33-.61.29,0,.59-.09.81.15.1.11.04.14.04.26-.01.42.2.98-.07,1.31-.37.44-1.11.17-1.46-.16-.23-.21-.46-.74-.85-.46-.22.15-.24.43-.11.65.27.45.93.88,1.43,1,1.03.24,2.3-.35,2.06-1.56-.04-.21-.21-.6-.08-.78.09-.15.27-.16.36,0,.13.21.15.76.14,1.01-.08,1.61-2,2.16-3.22,1.35-.07-.05-.26-.23-.32-.23-.05-.01-.24.04-.29.06-.15.04-.34.13-.46.23-.18.16-.18.35-.25.57-.05.18-.12.35-.21.52-.03.04-.22.32-.2.35h.32c.14,0,.52-.33.69-.4.4-.16.63.04.99.07.3.02.59-.06.88-.07.17-.01.35,0,.51,0v.03c-.39.26-.77.61-1.27.65-.41.03-.8-.12-1.18-.09-.21.02-.43.15-.65.17-.18.02-.42-.04-.57,0-.11.03-.36.25-.48.33-.21.12-.46.22-.7.27-.09.01-.28.02-.35.06-.05.03-.3.34-.34.41-.19.28-.24.74-.19,1.07,0,.04.02.06.06.06.07,0,.19-.05.26-.06.19-.04.38-.05.56-.08.42-.62,1.07-1.24,1.86-1.29.18,0,.37.01.54,0,.24-.02.48-.09.71-.11.02,0,.05-.01.04.02,0,.01-.1.1-.12.11-.16.14-.38.23-.6.26-.31.05-.9-.05-1.03.32-.09.24-.07.68.02.92.06.2.2.36.25.58.15.66-.39.74-.74,1.12-.4.43-.63,1-1.32.92-.7-.08-.85-.94-.29-1.32.47-.33.83.06,1.31.07.47.02.89-.31.7-.81-.08-.19-.28-.15-.44-.18-.33-.07-.67-.26-.97-.28-.98-.07-1.81.5-1.97,1.48-.25,1.43,1.1,2.48,2.45,1.99.68-.25.75-.65,1.1-1.18.19-.28.51-.48.72-.75.32-.41.38-.89.31-1.39-.03-.31-.22-.71-.12-1,.02-.07.06-.15.13-.19-.01.13-.03.27-.01.4.02.19.14.39.2.58.15.47.16,1.05-.04,1.51-.21.48-.68.74-.96,1.16-.36.56-.26,1.37-1.1,1.48-.73.11-1.35.05-1.86.7-1,1.3-.04,3.33,1.7,2.94.5-.11.72-.47,1.12-.73.36-.25.89-.19.96.31.06.46-.39.56-.68.77-.35.25-.52.72-.45,1.14.15.93,1.14,1.46,2.03,1.29.24.24.49.48.82.61.25.11.66.1.43.48-.04.07-.11.14-.14.21-.15.38.41.57.7.51.04,0,.11-.05.11-.1-.13-.03-.52-.1-.57-.25-.03-.1.08-.25.13-.34.18-.25.19-.11.4-.21.15-.08.23-.3.21-.47-.03-.38-.3-.91-.69-1.05-.08-.02-.48-.1-.51-.13,0-.02.07-.3.08-.35,0-.04.04-.22,0-.22-.04.03-.09.08-.14.08.24-.18.47-.38.58-.67.04-.11.04-.23.07-.32.03-.08.12-.2.16-.29.23-.53.16-1.08.08-1.64.03.01.03.03.04.05.54,1.13-.08,2.46,1.23,3.22.37.21.76.34,1,.72.36.61.07,1.18-.47,1.54-.02.02-.14.07-.15.08v.04s.38-.1.43-.13c.87-.39,1.12-1.44.64-2.24-.04-.06-.13-.14-.12-.22,0-.06.2-.3.26-.37.41-.52,1.03-1.08,1.6-1.43.02-.01.09-.06.1-.06.04-.01.03.03.03.05-.04.57-.19,1.11-.16,1.7.01.19.07.59.17.75.06.12.17-.12.21-.18.18-.34.33-.81.41-1.19.15-.68.07-1.41.34-2.06.03-.08.07-.18.13-.24-.03.41-.11.81-.01,1.21.02.08.1.23.11.28,0,.07-.04.25-.04.34,0,.21.06.43.19.6.03.05.11.12.13.16.03.06.03.21.07.31.05.12.13.22.19.33-.02.09-.52.18-.63.22-.33.13-.5.41-.61.74-.08.23-.15.56.1.72.12.08.24.05.36.13l.23.4c.02.21-.41.28-.55.32v.06c.23.13.78-.03.82-.32.02-.22-.46-.53-.14-.7.11-.06.26-.09.37-.14.39-.17.72-.46.99-.79.02-.01.2.06.24.07,1.07.24,2.1-.56,1.81-1.69-.13-.54-.49-.55-.84-.84-.46-.38-.08-1.06.49-.94.28.07.61.43.84.61.38.28.77.36,1.23.28,1.81-.32,1.9-3,.19-3.52ZM14.78.38c.17-.03.46.06.23.23-.05.03-.15.08-.21.07-.04,0-.2-.06-.22-.09-.05-.1.12-.2.2-.21ZM1.76,6.74c-.12.13-.46-.01-.54-.15.09-.1.23-.15.36-.11.1.03.29.14.18.26ZM14.9,20.75c-.23-.05,0-.28.14-.3.38-.08.15.36-.14.3ZM12.11,3.09c.26-.14.53-.13.81-.06,0,.02-.04.05-.06.06-.34.24-.65.28-.95.64-.09.11-.13.24-.2.34-.01,0-.02.02-.04.02-.06-.41.07-.79.44-1ZM10.81,4s-.02-.01.01-.01c.19.01.39.25.46.41.17.45.04.9-.31,1.21l-.21.15c.08-.18.16-.37.19-.58.07-.41-.05-.78-.14-1.18ZM8.45.88c.1,0,.25.05.31.12.08.11-.11.2-.21.2-.08,0-.24-.08-.29-.15-.09-.1.12-.16.19-.17ZM7.16,2.33h.23s.08.16.08.18l-.31-.18ZM9.28,2.44c-.24-.13-.52-.11-.77-.25-.08-.05-.15-.13-.24-.17-.19-.07-.38-.04-.55.04-.05.02-.09.07-.14.08-.05.01-.24-.03-.28-.07-.06-.05-.06-.16-.09-.24.12-.03.15-.2.2-.29.24.03.47.13.67.26.19.12.39.33.61.39.41.12.73-.11,1.13-.07.22.02.44.14.56.34-.36-.17-.74-.16-1.1-.02ZM8.17,20.51c.11,0,.34.14.27.27-.07.07-.22.04-.29,0-.07-.03-.17-.17-.11-.23.03-.03.1-.04.13-.04ZM7.69,18.06c-.14.16-.33.28-.39.5-.06.2,0,.38.2.46-.12.1-.26.16-.41.2-.06.02-.19.02-.23.05-.05.04-.06.2-.06.26-.21-.02-.51-.16-.53-.4-.05-.37.29-.44.51-.63.94-.79.74-2.35-.48-2.71-.62-.19-1.16-.03-1.67.35-.3.23-.55.6-.99.43-.45-.17-.53-.74-.25-1.09.29-.36.75-.29,1.15-.34.87-.12,1.54-.73,1.8-1.55.05-.16.08-.34.14-.5.11-.31.4-.54.66-.73.01.17.01.34-.01.51-.1.68-.67,1.41-1.15,1.88-.08.08-.3.23-.31.34,0,.07.04.18.09.23.13.12.57.14.75.11.48-.1.7-.73,1.02-1.05.01-.01.02,0,.02,0,.02.05-.02.24-.02.3-.01.19.01.42.04.61.17,1,.98,1.79.12,2.76ZM14.29,15.78c-.92.89-2.04,1.65-3.38,1.17-.78-.28-2.02-1.33-2.43-2.05-.24-.44-.37-.98-.44-1.48l.67.45.1.05c.08-.12-.04-.33-.11-.43-.22-.35-.55-.66-.78-1.03-.42-.67-.68-1.6-.17-2.3.01-.02.04-.07.07-.07.45.26.79.64,1.34.67.38,0,.6-.13.94-.21.21-.05.3,0,.47.13.08-.02.17-.12.25-.09.1.03.22.36.24.46.02.05.09.4.12.4.02,0,.02-.03.03-.05.16-.56.02-1.69-.29-2.19-.19-.3-.97-.54-1.32-.62-.61-.14-1.13-.17-1.71.11-.12.07-.23.17-.36.21-.05-.05.22-.53.27-.6.18-.28.54-.62.82-.8.62-.39,1.31.15,1.96-.42.23-.21.32-.52.41-.81.07-.04.15-.06.23-.09.22-.11.4-.27.58-.43l.61.46c.36.3.31.73.81,1.01.48.26.92.13,1.42.19.41.05.81.52,1.03.84.14.2.28.42.31.67-.32-.18-.63-.38-1-.43-.54-.07-1.29.11-1.79.32-.36.14-.54.23-.7.59-.24.53-.32,1.35-.21,1.91.01.05.04.22.09.1.08-.19.1-.48.2-.68.12-.26.19-.13.38-.04.09-.06.14-.16.26-.17.15-.02.44.12.6.16.41.11.76.09,1.13-.12.26-.14.5-.34.76-.48.03,0,.08.1.1.13.3.53.3,1.06.11,1.62-.07.22-.18.43-.24.65-.09.35-.11.73-.19,1.09-.22,1.01-.44,1.49-1.19,2.2ZM7.48,9.29c.52-.27,1.14-.51,1.72-.3.22.07.7.39.83.57.01.02.03.03.02.06-.37-.22-.77-.23-1.18-.14-.21.05-.42.17-.64.18-.33.03-.59-.08-.75-.37ZM16.02,9.29c-.07.18-.24.3-.43.35-.39.1-.66-.09-1.03-.17-.27-.06-.59-.07-.85.03-.05.01-.22.11-.26.11.2-.26.52-.5.82-.61.62-.23,1.19.04,1.75.29ZM19.22,16.4c-.55-.42-.82-.74-1.6-.68-1.29.1-1.91,1.65-1.08,2.62.16.19.59.41.65.6.15.44-.42.5-.71.4-.04-.11-.04-.23-.08-.34-.06-.16-.24-.2-.36-.28-.13-.08-.26-.17-.37-.27.27-.1.32-.39.18-.62-.09-.16-.25-.27-.33-.44-.2-.49.23-1.23.37-1.71.13-.48.13-.95.05-1.44.02,0,.08.06.09.08.24.29.59.96.93,1.09.18.07.55.04.74-.01.14-.03.31-.13.26-.3-.05-.14-.53-.55-.66-.69-.51-.55-.99-1.25-.94-2.03,0-.02,0-.04.02-.04.28.22.56.43.69.76.08.19.11.39.17.57.25.78.94,1.37,1.76,1.47.34.04.73-.02,1.01.21.68.54.1,1.73-.79,1.05ZM13.4,14.49c-.15-.03-.24.01-.38-.11-.18-.16-.23-.34-.51-.4-.3-.06-.43.09-.67.16-.19.04-.43-.15-.63-.17-.53-.04-.52.4-.9.5-.15.03-.33-.03-.32.19.01.06.04.11.09.14.26.17.77-.14,1.06-.14.17-.01.5.12.5.31.01.33-.61.33-.83.31-.05-.01-.12-.03-.17-.03-.07,0-.02.05,0,.09.21.31.52.45.89.48.39.02.83,0,1.14-.26.04-.03.28-.26.23-.31-.24.07-.89.08-1.03-.18-.11-.22.15-.35.32-.39.41-.1.84.29,1.22.12.16-.07.14-.28-.01-.31ZM10.97,13.5c.07.04.17.05.24.09.07.05.06.14.11.21.05.08.35.24.45.23.08-.01.36-.17.41-.23.02-.05.02-.09.05-.14.05-.11.26-.14.38-.21.24-.16.31-.37.23-.64-.01-.02-.03-.11-.06-.11-.18.1-.38.1-.58.12-.07.03-.08.1-.11.15-.14.18-.45.19-.61.04-.06-.05-.1-.16-.17-.19-.08-.02-.24-.01-.33-.03-.21-.03-.3-.21-.33.13-.02.24.1.48.32.58ZM12.84,12.81s-.03-.11-.06-.11c-.18.1-.38.1-.58.12-.07.03-.08.1-.11.15-.14.18-.45.19-.61.04-.06-.05-.1-.16-.17-.19-.08-.02-.24-.01-.33-.03-.21-.03-.3-.21-.33.13-.02.24.1.48.32.58.07.04.17.05.24.09.07.05.06.14.11.21.05.08.35.24.45.23.08-.01.36-.17.41-.23.02-.05.02-.09.05-.14.05-.11.26-.14.38-.21.24-.16.31-.37.23-.64ZM13.4,14.49c-.15-.03-.24.01-.38-.11-.18-.16-.23-.34-.51-.4-.3-.06-.43.09-.67.16-.19.04-.43-.15-.63-.17-.53-.04-.52.4-.9.5-.15.03-.33-.03-.32.19.01.06.04.11.09.14.26.17.77-.14,1.06-.14.17-.01.5.12.5.31.01.33-.61.33-.83.31-.05-.01-.12-.03-.17-.03-.07,0-.02.05,0,.09.21.31.52.45.89.48.39.02.83,0,1.14-.26.04-.03.28-.26.23-.31-.24.07-.89.08-1.03-.18-.11-.22.15-.35.32-.39.41-.1.84.29,1.22.12.16-.07.14-.28-.01-.31ZM13.4,14.49c-.15-.03-.24.01-.38-.11-.18-.16-.23-.34-.51-.4-.3-.06-.43.09-.67.16-.19.04-.43-.15-.63-.17-.53-.04-.52.4-.9.5-.15.03-.33-.03-.32.19.01.06.04.11.09.14.26.17.77-.14,1.06-.14.17-.01.5.12.5.31.01.33-.61.33-.83.31-.05-.01-.12-.03-.17-.03-.07,0-.02.05,0,.09.21.31.52.45.89.48.39.02.83,0,1.14-.26.04-.03.28-.26.23-.31-.24.07-.89.08-1.03-.18-.11-.22.15-.35.32-.39.41-.1.84.29,1.22.12.16-.07.14-.28-.01-.31ZM12.84,12.81s-.03-.11-.06-.11c-.18.1-.38.1-.58.12-.07.03-.08.1-.11.15-.14.18-.45.19-.61.04-.06-.05-.1-.16-.17-.19-.08-.02-.24-.01-.33-.03-.21-.03-.3-.21-.33.13-.02.24.1.48.32.58.07.04.17.05.24.09.07.05.06.14.11.21.05.08.35.24.45.23.08-.01.36-.17.41-.23.02-.05.02-.09.05-.14.05-.11.26-.14.38-.21.24-.16.31-.37.23-.64ZM12.84,12.81s-.03-.11-.06-.11c-.18.1-.38.1-.58.12-.07.03-.08.1-.11.15-.14.18-.45.19-.61.04-.06-.05-.1-.16-.17-.19-.08-.02-.24-.01-.33-.03-.21-.03-.3-.21-.33.13-.02.24.1.48.32.58.07.04.17.05.24.09.07.05.06.14.11.21.05.08.35.24.45.23.08-.01.36-.17.41-.23.02-.05.02-.09.05-.14.05-.11.26-.14.38-.21.24-.16.31-.37.23-.64ZM13.4,14.49c-.15-.03-.24.01-.38-.11-.18-.16-.23-.34-.51-.4-.3-.06-.43.09-.67.16-.19.04-.43-.15-.63-.17-.53-.04-.52.4-.9.5-.15.03-.33-.03-.32.19.01.06.04.11.09.14.26.17.77-.14,1.06-.14.17-.01.5.12.5.31.01.33-.61.33-.83.31-.05-.01-.12-.03-.17-.03-.07,0-.02.05,0,.09.21.31.52.45.89.48.39.02.83,0,1.14-.26.04-.03.28-.26.23-.31-.24.07-.89.08-1.03-.18-.11-.22.15-.35.32-.39.41-.1.84.29,1.22.12.16-.07.14-.28-.01-.31ZM13.4,14.49c-.15-.03-.24.01-.38-.11-.18-.16-.23-.34-.51-.4-.3-.06-.43.09-.67.16-.19.04-.43-.15-.63-.17-.53-.04-.52.4-.9.5-.15.03-.33-.03-.32.19.01.06.04.11.09.14.26.17.77-.14,1.06-.14.17-.01.5.12.5.31.01.33-.61.33-.83.31-.05-.01-.12-.03-.17-.03-.07,0-.02.05,0,.09.21.31.52.45.89.48.39.02.83,0,1.14-.26.04-.03.28-.26.23-.31-.24.07-.89.08-1.03-.18-.11-.22.15-.35.32-.39.41-.1.84.29,1.22.12.16-.07.14-.28-.01-.31ZM12.84,12.81s-.03-.11-.06-.11c-.18.1-.38.1-.58.12-.07.03-.08.1-.11.15-.14.18-.45.19-.61.04-.06-.05-.1-.16-.17-.19-.08-.02-.24-.01-.33-.03-.21-.03-.3-.21-.33.13-.02.24.1.48.32.58.07.04.17.05.24.09.07.05.06.14.11.21.05.08.35.24.45.23.08-.01.36-.17.41-.23.02-.05.02-.09.05-.14.05-.11.26-.14.38-.21.24-.16.31-.37.23-.64ZM12.84,12.81s-.03-.11-.06-.11c-.18.1-.38.1-.58.12-.07.03-.08.1-.11.15-.14.18-.45.19-.61.04-.06-.05-.1-.16-.17-.19-.08-.02-.24-.01-.33-.03-.21-.03-.3-.21-.33.13-.02.24.1.48.32.58.07.04.17.05.24.09.07.05.06.14.11.21.05.08.35.24.45.23.08-.01.36-.17.41-.23.02-.05.02-.09.05-.14.05-.11.26-.14.38-.21.24-.16.31-.37.23-.64ZM13.4,14.49c-.15-.03-.24.01-.38-.11-.18-.16-.23-.34-.51-.4-.3-.06-.43.09-.67.16-.19.04-.43-.15-.63-.17-.53-.04-.52.4-.9.5-.15.03-.33-.03-.32.19.01.06.04.11.09.14.26.17.77-.14,1.06-.14.17-.01.5.12.5.31.01.33-.61.33-.83.31-.05-.01-.12-.03-.17-.03-.07,0-.02.05,0,.09.21.31.52.45.89.48.39.02.83,0,1.14-.26.04-.03.28-.26.23-.31-.24.07-.89.08-1.03-.18-.11-.22.15-.35.32-.39.41-.1.84.29,1.22.12.16-.07.14-.28-.01-.31ZM13.4,14.49c-.15-.03-.24.01-.38-.11-.18-.16-.23-.34-.51-.4-.3-.06-.43.09-.67.16-.19.04-.43-.15-.63-.17-.53-.04-.52.4-.9.5-.15.03-.33-.03-.32.19.01.06.04.11.09.14.26.17.77-.14,1.06-.14.17-.01.5.12.5.31.01.33-.61.33-.83.31-.05-.01-.12-.03-.17-.03-.07,0-.02.05,0,.09.21.31.52.45.89.48.39.02.83,0,1.14-.26.04-.03.28-.26.23-.31-.24.07-.89.08-1.03-.18-.11-.22.15-.35.32-.39.41-.1.84.29,1.22.12.16-.07.14-.28-.01-.31ZM12.84,12.81s-.03-.11-.06-.11c-.18.1-.38.1-.58.12-.07.03-.08.1-.11.15-.14.18-.45.19-.61.04-.06-.05-.1-.16-.17-.19-.08-.02-.24-.01-.33-.03-.21-.03-.3-.21-.33.13-.02.24.1.48.32.58.07.04.17.05.24.09.07.05.06.14.11.21.05.08.35.24.45.23.08-.01.36-.17.41-.23.02-.05.02-.09.05-.14.05-.11.26-.14.38-.21.24-.16.31-.37.23-.64ZM12.84,12.81s-.03-.11-.06-.11c-.18.1-.38.1-.58.12-.07.03-.08.1-.11.15-.14.18-.45.19-.61.04-.06-.05-.1-.16-.17-.19-.08-.02-.24-.01-.33-.03-.21-.03-.3-.21-.33.13-.02.24.1.48.32.58.07.04.17.05.24.09.07.05.06.14.11.21.05.08.35.24.45.23.08-.01.36-.17.41-.23.02-.05.02-.09.05-.14.05-.11.26-.14.38-.21.24-.16.31-.37.23-.64ZM13.4,14.49c-.15-.03-.24.01-.38-.11-.18-.16-.23-.34-.51-.4-.3-.06-.43.09-.67.16-.19.04-.43-.15-.63-.17-.53-.04-.52.4-.9.5-.15.03-.33-.03-.32.19.01.06.04.11.09.14.26.17.77-.14,1.06-.14.17-.01.5.12.5.31.01.33-.61.33-.83.31-.05-.01-.12-.03-.17-.03-.07,0-.02.05,0,.09.21.31.52.45.89.48.39.02.83,0,1.14-.26.04-.03.28-.26.23-.31-.24.07-.89.08-1.03-.18-.11-.22.15-.35.32-.39.41-.1.84.29,1.22.12.16-.07.14-.28-.01-.31ZM13.4,14.49c-.15-.03-.24.01-.38-.11-.18-.16-.23-.34-.51-.4-.3-.06-.43.09-.67.16-.19.04-.43-.15-.63-.17-.53-.04-.52.4-.9.5-.15.03-.33-.03-.32.19.01.06.04.11.09.14.26.17.77-.14,1.06-.14.17-.01.5.12.5.31.01.33-.61.33-.83.31-.05-.01-.12-.03-.17-.03-.07,0-.02.05,0,.09.21.31.52.45.89.48.39.02.83,0,1.14-.26.04-.03.28-.26.23-.31-.24.07-.89.08-1.03-.18-.11-.22.15-.35.32-.39.41-.1.84.29,1.22.12.16-.07.14-.28-.01-.31ZM12.84,12.81s-.03-.11-.06-.11c-.18.1-.38.1-.58.12-.07.03-.08.1-.11.15-.14.18-.45.19-.61.04-.06-.05-.1-.16-.17-.19-.08-.02-.24-.01-.33-.03-.21-.03-.3-.21-.33.13-.02.24.1.48.32.58.07.04.17.05.24.09.07.05.06.14.11.21.05.08.35.24.45.23.08-.01.36-.17.41-.23.02-.05.02-.09.05-.14.05-.11.26-.14.38-.21.24-.16.31-.37.23-.64ZM12.84,12.81s-.03-.11-.06-.11c-.18.1-.38.1-.58.12-.07.03-.08.1-.11.15-.14.18-.45.19-.61.04-.06-.05-.1-.16-.17-.19-.08-.02-.24-.01-.33-.03-.21-.03-.3-.21-.33.13-.02.24.1.48.32.58.07.04.17.05.24.09.07.05.06.14.11.21.05.08.35.24.45.23.08-.01.36-.17.41-.23.02-.05.02-.09.05-.14.05-.11.26-.14.38-.21.24-.16.31-.37.23-.64ZM13.4,14.49c-.15-.03-.24.01-.38-.11-.18-.16-.23-.34-.51-.4-.3-.06-.43.09-.67.16-.19.04-.43-.15-.63-.17-.53-.04-.52.4-.9.5-.15.03-.33-.03-.32.19.01.06.04.11.09.14.26.17.77-.14,1.06-.14.17-.01.5.12.5.31.01.33-.61.33-.83.31-.05-.01-.12-.03-.17-.03-.07,0-.02.05,0,.09.21.31.52.45.89.48.39.02.83,0,1.14-.26.04-.03.28-.26.23-.31-.24.07-.89.08-1.03-.18-.11-.22.15-.35.32-.39.41-.1.84.29,1.22.12.16-.07.14-.28-.01-.31ZM13.4,14.49c-.15-.03-.24.01-.38-.11-.18-.16-.23-.34-.51-.4-.3-.06-.43.09-.67.16-.19.04-.43-.15-.63-.17-.53-.04-.52.4-.9.5-.15.03-.33-.03-.32.19.01.06.04.11.09.14.26.17.77-.14,1.06-.14.17-.01.5.12.5.31.01.33-.61.33-.83.31-.05-.01-.12-.03-.17-.03-.07,0-.02.05,0,.09.21.31.52.45.89.48.39.02.83,0,1.14-.26.04-.03.28-.26.23-.31-.24.07-.89.08-1.03-.18-.11-.22.15-.35.32-.39.41-.1.84.29,1.22.12.16-.07.14-.28-.01-.31ZM12.84,12.81s-.03-.11-.06-.11c-.18.1-.38.1-.58.12-.07.03-.08.1-.11.15-.14.18-.45.19-.61.04-.06-.05-.1-.16-.17-.19-.08-.02-.24-.01-.33-.03-.21-.03-.3-.21-.33.13-.02.24.1.48.32.58.07.04.17.05.24.09.07.05.06.14.11.21.05.08.35.24.45.23.08-.01.36-.17.41-.23.02-.05.02-.09.05-.14.05-.11.26-.14.38-.21.24-.16.31-.37.23-.64ZM12.84,12.81s-.03-.11-.06-.11c-.18.1-.38.1-.58.12-.07.03-.08.1-.11.15-.14.18-.45.19-.61.04-.06-.05-.1-.16-.17-.19-.08-.02-.24-.01-.33-.03-.21-.03-.3-.21-.33.13-.02.24.1.48.32.58.07.04.17.05.24.09.07.05.06.14.11.21.05.08.35.24.45.23.08-.01.36-.17.41-.23.02-.05.02-.09.05-.14.05-.11.26-.14.38-.21.24-.16.31-.37.23-.64ZM13.4,14.49c-.15-.03-.24.01-.38-.11-.18-.16-.23-.34-.51-.4-.3-.06-.43.09-.67.16-.19.04-.43-.15-.63-.17-.53-.04-.52.4-.9.5-.15.03-.33-.03-.32.19.01.06.04.11.09.14.26.17.77-.14,1.06-.14.17-.01.5.12.5.31.01.33-.61.33-.83.31-.05-.01-.12-.03-.17-.03-.07,0-.02.05,0,.09.21.31.52.45.89.48.39.02.83,0,1.14-.26.04-.03.28-.26.23-.31-.24.07-.89.08-1.03-.18-.11-.22.15-.35.32-.39.41-.1.84.29,1.22.12.16-.07.14-.28-.01-.31ZM13.4,14.49c-.15-.03-.24.01-.38-.11-.18-.16-.23-.34-.51-.4-.3-.06-.43.09-.67.16-.19.04-.43-.15-.63-.17-.53-.04-.52.4-.9.5-.15.03-.33-.03-.32.19.01.06.04.11.09.14.26.17.77-.14,1.06-.14.17-.01.5.12.5.31.01.33-.61.33-.83.31-.05-.01-.12-.03-.17-.03-.07,0-.02.05,0,.09.21.31.52.45.89.48.39.02.83,0,1.14-.26.04-.03.28-.26.23-.31-.24.07-.89.08-1.03-.18-.11-.22.15-.35.32-.39.41-.1.84.29,1.22.12.16-.07.14-.28-.01-.31ZM12.84,12.81s-.03-.11-.06-.11c-.18.1-.38.1-.58.12-.07.03-.08.1-.11.15-.14.18-.45.19-.61.04-.06-.05-.1-.16-.17-.19-.08-.02-.24-.01-.33-.03-.21-.03-.3-.21-.33.13-.02.24.1.48.32.58.07.04.17.05.24.09.07.05.06.14.11.21.05.08.35.24.45.23.08-.01.36-.17.41-.23.02-.05.02-.09.05-.14.05-.11.26-.14.38-.21.24-.16.31-.37.23-.64ZM12.84,12.81s-.03-.11-.06-.11c-.18.1-.38.1-.58.12-.07.03-.08.1-.11.15-.14.18-.45.19-.61.04-.06-.05-.1-.16-.17-.19-.08-.02-.24-.01-.33-.03-.21-.03-.3-.21-.33.13-.02.24.1.48.32.58.07.04.17.05.24.09.07.05.06.14.11.21.05.08.35.24.45.23.08-.01.36-.17.41-.23.02-.05.02-.09.05-.14.05-.11.26-.14.38-.21.24-.16.31-.37.23-.64ZM13.4,14.49c-.15-.03-.24.01-.38-.11-.18-.16-.23-.34-.51-.4-.3-.06-.43.09-.67.16-.19.04-.43-.15-.63-.17-.53-.04-.52.4-.9.5-.15.03-.33-.03-.32.19.01.06.04.11.09.14.26.17.77-.14,1.06-.14.17-.01.5.12.5.31.01.33-.61.33-.83.31-.05-.01-.12-.03-.17-.03-.07,0-.02.05,0,.09.21.31.52.45.89.48.39.02.83,0,1.14-.26.04-.03.28-.26.23-.31-.24.07-.89.08-1.03-.18-.11-.22.15-.35.32-.39.41-.1.84.29,1.22.12.16-.07.14-.28-.01-.31ZM13.4,14.49c-.15-.03-.24.01-.38-.11-.18-.16-.23-.34-.51-.4-.3-.06-.43.09-.67.16-.19.04-.43-.15-.63-.17-.53-.04-.52.4-.9.5-.15.03-.33-.03-.32.19.01.06.04.11.09.14.26.17.77-.14,1.06-.14.17-.01.5.12.5.31.01.33-.61.33-.83.31-.05-.01-.12-.03-.17-.03-.07,0-.02.05,0,.09.21.31.52.45.89.48.39.02.83,0,1.14-.26.04-.03.28-.26.23-.31-.24.07-.89.08-1.03-.18-.11-.22.15-.35.32-.39.41-.1.84.29,1.22.12.16-.07.14-.28-.01-.31ZM12.84,12.81s-.03-.11-.06-.11c-.18.1-.38.1-.58.12-.07.03-.08.1-.11.15-.14.18-.45.19-.61.04-.06-.05-.1-.16-.17-.19-.08-.02-.24-.01-.33-.03-.21-.03-.3-.21-.33.13-.02.24.1.48.32.58.07.04.17.05.24.09.07.05.06.14.11.21.05.08.35.24.45.23.08-.01.36-.17.41-.23.02-.05.02-.09.05-.14.05-.11.26-.14.38-.21.24-.16.31-.37.23-.64ZM12.84,12.81s-.03-.11-.06-.11c-.18.1-.38.1-.58.12-.07.03-.08.1-.11.15-.14.18-.45.19-.61.04-.06-.05-.1-.16-.17-.19-.08-.02-.24-.01-.33-.03-.21-.03-.3-.21-.33.13-.02.24.1.48.32.58.07.04.17.05.24.09.07.05.06.14.11.21.05.08.35.24.45.23.08-.01.36-.17.41-.23.02-.05.02-.09.05-.14.05-.11.26-.14.38-.21.24-.16.31-.37.23-.64ZM13.4,14.49c-.15-.03-.24.01-.38-.11-.18-.16-.23-.34-.51-.4-.3-.06-.43.09-.67.16-.19.04-.43-.15-.63-.17-.53-.04-.52.4-.9.5-.15.03-.33-.03-.32.19.01.06.04.11.09.14.26.17.77-.14,1.06-.14.17-.01.5.12.5.31.01.33-.61.33-.83.31-.05-.01-.12-.03-.17-.03-.07,0-.02.05,0,.09.21.31.52.45.89.48.39.02.83,0,1.14-.26.04-.03.28-.26.23-.31-.24.07-.89.08-1.03-.18-.11-.22.15-.35.32-.39.41-.1.84.29,1.22.12.16-.07.14-.28-.01-.31ZM13.4,14.49c-.15-.03-.24.01-.38-.11-.18-.16-.23-.34-.51-.4-.3-.06-.43.09-.67.16-.19.04-.43-.15-.63-.17-.53-.04-.52.4-.9.5-.15.03-.33-.03-.32.19.01.06.04.11.09.14.26.17.77-.14,1.06-.14.17-.01.5.12.5.31.01.33-.61.33-.83.31-.05-.01-.12-.03-.17-.03-.07,0-.02.05,0,.09.21.31.52.45.89.48.39.02.83,0,1.14-.26.04-.03.28-.26.23-.31-.24.07-.89.08-1.03-.18-.11-.22.15-.35.32-.39.41-.1.84.29,1.22.12.16-.07.14-.28-.01-.31ZM12.84,12.81s-.03-.11-.06-.11c-.18.1-.38.1-.58.12-.07.03-.08.1-.11.15-.14.18-.45.19-.61.04-.06-.05-.1-.16-.17-.19-.08-.02-.24-.01-.33-.03-.21-.03-.3-.21-.33.13-.02.24.1.48.32.58.07.04.17.05.24.09.07.05.06.14.11.21.05.08.35.24.45.23.08-.01.36-.17.41-.23.02-.05.02-.09.05-.14.05-.11.26-.14.38-.21.24-.16.31-.37.23-.64Z"/>
  <path d="M23.2,7.15c.3-.09.4-.44.29-.72-.09-.2-.28-.27-.48-.26-.21.02-.4.05-.61.03-.5-.03-.8-.26-1.28.1-.22.15-.27.36-.54.44-.51.14-1.05-.04-1.29-.52-.31-.63.13-1.22.21-1.84.19-1.59-1.44-2.65-2.88-2.11-.38.15-.89.54-1,.96-.08.28-.16.64-.22.93-.02.11-.04.18.02.3.13.25.43.15.62.02.28-.18.37-.57.57-.83.6-.78,1.9-.34,1.76.67-.03.26-.13.47-.2.72-.42,1.5.63,2.84,2.16,2.92.14.01.3-.01.44,0,.08.01.18.05.27.07.53.08.73-.23,1.12-.46.15-.08.33-.16.48-.22.2-.06.37-.17.48.08.06.15.01.3.1.45.05.09.16.15.26.15v-.42l-.14.07c.02-.2-.05-.37-.14-.53ZM21.75,6.73c-.14-.14.13-.27.25-.27.06,0,.2.04.24.09.01.01.04.04.03.05-.07.16-.4.26-.52.13Z"/>
</svg>