<svg width="24" height="24" viewBox="0 0 24 24" fill="none" xmlns="http://www.w3.org/2000/svg">
<path d="M11.2254 10.525C11.5754 10.525 11.8714 10.404 12.1134 10.162C12.3554 9.92 12.4761 9.62434 12.4754 9.275C12.4747 8.92567 12.3541 8.62967 12.1134 8.387C11.8727 8.14434 11.5767 8.02367 11.2254 8.025C10.8741 8.02634 10.5784 8.14734 10.3384 8.388C10.0984 8.62867 9.97739 8.92434 9.97539 9.275C9.97339 9.62567 10.0944 9.92167 10.3384 10.163C10.5824 10.4043 10.8781 10.525 11.2254 10.525ZM20.5504 22C19.8504 22 18.9087 21.7083 17.7254 21.125C16.5421 20.5417 15.2754 19.75 13.9254 18.75C13.6087 18.8333 13.2881 18.896 12.9634 18.938C12.6387 18.98 12.3094 19.0007 11.9754 19C10.0254 19 8.37539 18.325 7.02539 16.975C5.67539 15.625 5.00039 13.975 5.00039 12.025C5.00039 11.6917 5.02539 11.3583 5.07539 11.025C5.12539 10.6917 5.19206 10.3667 5.27539 10.05C4.29206 8.7 3.50472 7.43767 2.91339 6.263C2.32206 5.08834 2.02606 4.15067 2.02539 3.45C2.02539 3 2.15039 2.646 2.40039 2.388C2.65039 2.13 2.99206 2.00067 3.42539 2C3.85872 1.99934 4.42139 2.14934 5.11339 2.45C5.80539 2.75067 6.75939 3.259 7.97539 3.975C7.62539 4.15834 7.30039 4.35 7.00039 4.55C6.70039 4.75 6.40872 4.96667 6.12539 5.2C5.80872 5.01667 5.50039 4.85834 5.20039 4.725C4.90039 4.59167 4.58372 4.45 4.25039 4.3C4.55039 4.93334 4.87139 5.55 5.21339 6.15C5.55539 6.75 5.91772 7.34167 6.30039 7.925C6.93372 7.025 7.74206 6.31667 8.72539 5.8C9.70872 5.28334 10.7921 5.025 11.9754 5.025C13.9254 5.025 15.5797 5.70434 16.9384 7.063C18.2971 8.42167 18.9761 10.0757 18.9754 12.025C18.9754 13.2083 18.7127 14.2917 18.1874 15.275C17.6621 16.2583 16.9497 17.0667 16.0504 17.7C16.6337 18.0833 17.2297 18.45 17.8384 18.8C18.4471 19.15 19.0677 19.4667 19.7004 19.75C19.5671 19.4333 19.4297 19.125 19.2884 18.825C19.1471 18.525 18.9844 18.2167 18.8004 17.9C19.0504 17.6167 19.2754 17.3167 19.4754 17C19.6754 16.6833 19.8587 16.3583 20.0254 16.025C20.7921 17.325 21.3131 18.296 21.5884 18.938C21.8637 19.58 22.0011 20.1173 22.0004 20.55C22.0004 21.0333 21.8671 21.396 21.6004 21.638C21.3337 21.88 20.9837 22.0007 20.5504 22ZM13.7254 15.025C14.0087 15.025 14.2464 14.929 14.4384 14.737C14.6304 14.545 14.7261 14.3077 14.7254 14.025C14.7247 13.7423 14.6291 13.505 14.4384 13.313C14.2477 13.121 14.0101 13.025 13.7254 13.025C13.4407 13.025 13.2034 13.121 13.0134 13.313C12.8234 13.505 12.7274 13.7423 12.7254 14.025C12.7234 14.3077 12.8194 14.5453 13.0134 14.738C13.2074 14.9307 13.4447 15.0263 13.7254 15.025ZM14.9754 11.525C15.1921 11.525 15.3714 11.454 15.5134 11.312C15.6554 11.17 15.7261 10.991 15.7254 10.775C15.7247 10.559 15.6541 10.38 15.5134 10.238C15.3727 10.096 15.1934 10.025 14.9754 10.025C14.7574 10.025 14.5784 10.096 14.4384 10.238C14.2984 10.38 14.2274 10.559 14.2254 10.775C14.2234 10.991 14.2944 11.1703 14.4384 11.313C14.5824 11.4557 14.7614 11.5263 14.9754 11.525Z" fill="white"/>
</svg>
