<svg width="24" height="24" viewBox="0 0 24 24" fill="none" xmlns="http://www.w3.org/2000/svg">
<path d="M11.5621 3.00004C11.3971 3.00004 11.3724 3.02823 11.3406 3.12409C11.3087 3.21995 11.3123 3.46356 11.5016 3.81766C11.8485 4.46673 12.7834 5.42922 14.6184 6.43755C14.9016 6.13411 15.2365 5.91342 15.5917 5.75955C14.5823 5.18854 13.8466 4.55959 13.2587 4.04934C12.5087 3.39865 12.0177 3 11.5621 3L11.5621 3.00004ZM8.93664 5.21742C8.78551 5.2177 8.75124 5.25247 8.73579 5.27239C8.72034 5.29227 8.69618 5.34873 8.71658 5.48029C8.75738 5.74333 9.00023 6.2111 9.42966 6.65442C10.2886 7.541 11.838 8.36986 13.7692 8.06289C13.8536 8.04951 13.9564 8.0379 14.0801 8.11133C14.2037 8.18476 14.2674 8.35311 14.269 8.45047C14.272 8.64547 14.2098 8.72932 14.1612 8.83772C14.0641 9.05455 13.9889 9.31061 13.9879 9.30302V9.30314C14.0663 9.91164 14.5573 10.3692 15.2713 10.708C15.9853 11.0468 16.8856 11.2355 17.6036 11.3058C18.1009 11.3545 18.6824 11.3462 19.2239 11.2495C19.1623 11.1394 19.1179 11.0233 19.0928 10.904C19.0229 10.5732 19.0969 10.2391 19.2549 9.95773C19.5082 9.50662 19.9724 9.15917 20.5369 9.03159C20.3531 8.71367 20.1235 8.36942 19.8625 8.03397C19.0733 7.02013 17.9834 6.12916 17.1695 6.11175C16.3588 6.09443 15.4222 6.35739 14.8969 7.09517C14.8081 7.21971 14.6766 7.26328 14.5792 7.2761C14.4819 7.289 14.3961 7.28016 14.3051 7.26458C14.1232 7.23351 13.9208 7.16832 13.6866 7.08094C13.2181 6.90617 12.6318 6.63916 12.0177 6.3599C11.4035 6.08068 10.7631 5.78953 10.2055 5.57128C9.64786 5.35303 9.15385 5.21693 8.93672 5.21738L8.93664 5.21742ZM17.8273 7.72911C17.9921 7.73404 18.1486 7.80456 18.2635 7.9257C18.3784 8.04684 18.4426 8.20907 18.4426 8.37794C18.4426 8.55008 18.3758 8.71517 18.257 8.8369C18.1381 8.95862 17.9769 9.027 17.8088 9.027C17.6407 9.027 17.4794 8.95862 17.3606 8.8369C17.2417 8.71517 17.1749 8.55008 17.1749 8.37794C17.1749 8.2911 17.1919 8.20514 17.2249 8.12516C17.2579 8.04517 17.3063 7.97278 17.3671 7.91228C17.428 7.85177 17.5 7.80438 17.5791 7.77291C17.6581 7.74144 17.7425 7.72654 17.8273 7.72907V7.72911ZM3.53996 9.63218C3.50811 9.63242 3.46006 9.64232 3.38083 9.68248H3.38075C3.2123 9.76779 3.08613 9.97509 3.02884 10.3447C2.97152 10.7143 3.00127 11.2076 3.10364 11.7049C3.20604 12.2024 3.37912 12.7062 3.58362 13.1099C3.70338 13.3463 3.8366 13.5386 3.96116 13.6833C4.15789 12.9816 4.51352 12.3108 5.05839 11.7182C4.93645 11.6378 4.82508 11.5418 4.72701 11.4324C4.44772 11.1193 4.26731 10.7479 4.1071 10.4232C3.94689 10.0985 3.79731 9.82061 3.68559 9.70901C3.62981 9.65319 3.59764 9.63948 3.56714 9.63437C3.5582 9.63283 3.54915 9.63209 3.54008 9.63214L3.53996 9.63218ZM20.877 9.71575C20.4152 9.76159 20.0335 10.0358 19.873 10.3217C19.7865 10.4757 19.7623 10.6205 19.7896 10.7498C19.8098 10.8456 19.8574 10.9444 19.9642 11.0456C20.4338 10.8604 20.8024 10.5823 21 10.1962C20.9887 10.2132 21.0072 10.1426 20.98 10.0264C20.9605 9.94247 20.9247 9.83538 20.877 9.71571L20.877 9.71575ZM13.0134 10.0291C12.917 10.0289 12.8206 10.0294 12.7242 10.0305C9.89023 10.0632 7.94704 10.5769 6.67792 11.3362C5.22747 12.204 4.62915 13.3683 4.50524 14.6399C4.38132 15.9115 4.7667 17.2976 5.37678 18.4759C5.96468 19.6113 6.76705 20.5459 7.43561 21H14.3313C14.326 20.9225 14.3047 20.8558 14.2718 20.7895C14.2069 20.6593 14.0769 20.5234 13.8743 20.3966C13.4691 20.1428 12.8 19.9485 12.0991 19.8109C11.3982 19.6733 10.666 19.5839 10.0935 19.4863C9.80724 19.4377 9.56297 19.3899 9.35938 19.319C9.25757 19.2836 9.16447 19.2454 9.06967 19.1732C8.97491 19.1009 8.85919 18.9548 8.85919 18.7688C8.85919 18.6629 8.90951 18.5667 8.95328 18.5165C8.99714 18.4663 9.0337 18.4459 9.06222 18.4303C9.11935 18.3993 9.15267 18.3917 9.18602 18.3834C9.25281 18.3669 9.3143 18.3589 9.38905 18.3504C9.53864 18.3336 9.73426 18.32 9.9722 18.3023C10.448 18.2668 11.0857 18.2168 11.7536 18.1121C13.0895 17.9027 14.5022 17.4315 14.9687 16.634C15.2223 16.2003 15.1941 15.7954 14.9465 15.3701C14.6988 14.9446 14.201 14.5292 13.5314 14.2595C12.1923 13.7201 10.2009 13.7539 8.27363 15.171L7.85767 14.5777C9.17794 13.6069 10.5511 13.2122 11.7796 13.2073C12.5168 13.2044 13.2015 13.3424 13.7914 13.58C14.5779 13.8968 15.2043 14.3885 15.558 14.996C15.9118 15.6036 15.9619 16.3565 15.5803 17.0092C14.8815 18.2039 13.2637 18.6136 11.8613 18.8335C11.6277 18.87 11.4131 18.8931 11.1941 18.9183C11.5277 18.969 11.8801 19.024 12.2328 19.0933C12.9674 19.2375 13.6943 19.428 14.2469 19.774C14.5232 19.9471 14.7615 20.1657 14.9068 20.4573C14.9883 20.6212 15.0337 20.8059 15.0403 20.9999H20.2165C20.2986 20.9285 20.3526 20.8679 20.3688 20.8351C20.3901 20.7919 20.387 20.7873 20.3787 20.7514C20.3619 20.6796 20.2334 20.5014 20.0705 20.3001C19.9704 20.1767 19.634 19.979 19.2125 19.8704C18.791 19.7618 18.2877 19.7223 17.8556 19.7803L17.7628 19.7918L17.6749 19.7563C17.4108 19.6461 17.2049 19.3647 17.1896 19.0945C17.1743 18.8243 17.2645 18.5934 17.3766 18.3454C17.6006 17.8492 17.963 17.2758 18.2555 16.6123C18.548 15.949 18.7668 15.212 18.7198 14.4281C18.6741 13.6683 18.3844 12.8488 17.6169 11.9584C17.5923 11.9563 17.5675 11.9543 17.5432 11.9519H17.5431C16.7704 11.8763 15.8189 11.6834 15.0046 11.2969C14.4011 11.0105 13.8531 10.6005 13.562 10.0363C13.3761 10.0323 13.1923 10.0294 13.0133 10.029L13.0134 10.0291Z" fill="white"/>
</svg>
