<?xml version="1.0" encoding="UTF-8"?>
<svg id="Layer_1" xmlns="http://www.w3.org/2000/svg" version="1.1" viewBox="0 0 24 24">
  <!-- Generator: Adobe Illustrator 29.2.0, SVG Export Plug-In . SVG Version: 2.1.0 Build 108)  -->
  <path d="M12.4,23.5h-.9l-2-.3c-4.1-.9-7.5-4.1-8.6-8.2l-.4-2.2c0-.5,0-1,0-1.5C1.2,1.3,13.6-3.1,20.4,4.2s1.8,18.7-7.9,19.2ZM18.3,16.6l4.2-2.7c1-5.3-2.3-10.7-7.5-12.2C7.3-.5.1,6,1.4,13.8l4.2,2.8-3.5-3.6,4,2.9-3.2-4.3,3.9,3.7-2.9-4.6,3.7,4.2-2.5-5.1,3.3,4.8-1.9-5.2v-.2s2.6,5.1,2.6,5.1l-1.2-5.2v-.3s1.8,4.9,1.8,4.9v-.4c.1,0-.5-5.1-.5-5.1l.8,3.1h0c.1-.8,0-1.6.2-2.3s0-.3.3-.5v-.7c.1,0,0,.4,0,.6h.2s.3-2.1.3-2.1l.4-.2c.2-.7,0-.6-.5-1s-.6-.7-.5-1.4l.7-2.3c.1.1.1.3.2.4,0,.6-.1,2.4.1,2.8.5.3,0-.6.5-.5s0,.4.1.5c.4.3.4-.3.4-.6,0-.7,0-1.5,0-2.2s0-.3.2-.4l.7,2.3c.2,1-.2,1.3-1,1.8v.6s.4.2.4.2l.3,2.1h.2c0-.1,0-.5.2-.6v.7c.2.1.2.2.2.5,0,.7,0,1.5.1,2.2h.1c0,.1.8-3,.8-3l-.6,5.1v.4c.1,0,1.9-4.9,1.9-4.9v.3s-1.1,5.2-1.1,5.2l2.6-5.1v.2s-1.8,5.2-1.8,5.2l3.3-4.8-2.5,5.1,3.7-4.2-2.9,4.6,3.9-3.7-3.2,4.3,4.1-3-3.6,3.7ZM5,17.3l-3.6-3.2.5,1.6,3.2,1.6ZM22.1,15.7c.2-.5.4-1.1.4-1.6l-3.6,3.2,3.2-1.6ZM5.7,18.1h2.4v-.9c.7-.1,1.2-.6,1.3-1.2h.3s0-.7,0-.7c-1.4.3-2.8,1.3-3.7,2.4s-.3.4-.3.4ZM18.3,18.1c-1-1.3-2.4-2.4-4.1-2.8v.7s.3,0,.3,0c.1.6.6,1.1,1.2,1.2v.9h2.6ZM4.6,18l-2.5-1.8c.2.4.3.8.6,1.1l2,.7ZM21.9,16.2l-2.5,1.8,2-.7c.3-.3.4-.7.6-1.1ZM7.6,18.8l-4.1-.3s.5.7.6.6l3.5-.4ZM20.5,18.5l-3.5.2h-.6c0,.1,3.6.4,3.6.4.1,0,.6-.6.5-.6ZM8.2,19.6l-4.1-.3c.2.2.5.6.7.6l2.8-.3h.5ZM19.8,19.3l-3.9.3h-.2c0,0,3.4.4,3.4.4.3,0,.5-.4.7-.6ZM9,20.4l-3.9-.3c.2.3.5.5.8.6l2.6-.3h.5ZM18.9,20.2l-3.1.2h-.9c0,.1,3.2.4,3.2.4.3-.2.6-.4.8-.6ZM17.9,20.9c-1.2.1-2.3.2-3.5.3s-.2,0-.2,0l2.8.3c.3,0,.8-.4,1-.6ZM9.7,21.2l-3.6-.2c.9.9,2,.3,3.1.3h.5ZM10.6,22l-3-.2,1,.4,2-.2ZM16.3,21.8h-2.7c0,.1-.3.3-.3.3l2,.2,1-.4Z"/>
</svg>