<?xml version="1.0" encoding="UTF-8"?>
<svg id="Layer_1" xmlns="http://www.w3.org/2000/svg" version="1.1" viewBox="0 0 24 24">
  <!-- Generator: Adobe Illustrator 29.2.0, SVG Export Plug-In . SVG Version: 2.1.0 Build 108)  -->
  <path d="M4.1,21.3c-.1-.3,0-.6,0-.8l1.5-2.8s0,0,.1-.2c0,0,.2-.1.4-.3,0,0,.3-.2.7-.5.5-.3,1.1-.7,1.7-1.2l1.9-3.1c.2-.3.4-.4.7-.4h.7c-.2.2-.3.4-.5.6-.1.2-.3.5-.4.9-.1.4-.2.7-.2,1.1s0,.8.3,1.3c.2.5.5,1,.9,1.4.3.3.5.6.5,1,0,.3,0,.6-.1.9-.1.3-.3.5-.6.8-.3.2-.6.5-.9.7-.3.2-.7.4-1.1.5-.4.2-.8.3-1.1.4-.3.1-.6.2-1,.3h-2.9c-.2,0-.3,0-.5-.1-.1,0-.3-.2-.3-.4ZM6.9,5.8c0-.5.2-.9.5-1.3.3-.4.7-.6,1.2-.7.1-.6.4-1.1.9-1.4.5-.4,1-.6,1.6-.6s1.1.2,1.6.5c.5.4.8.8.9,1.4h.1c.6,0,1.1.2,1.6.6.4.4.7.8.7,1.3s-.2,1.1-.7,1.5c0,.3-.1.6-.4,1-.2.4-.5.6-.8.6,0,.3-.2.6-.4.8-.2.2-.5.4-.9.4.2.2.2.4.2.6s0,.5-.3.7c-.2.2-.4.3-.7.3-.2,0-.5,0-.7-.3,0,0-.2-.2-.2-.3,0-.1,0-.2,0-.4,0,0,0,0,0-.1,0,0,0-.1,0-.1h0c-.3,0-.6-.1-.8-.3-.1-.1-.2-.2-.2-.4,0-.1,0-.3,0-.4,0-.1,0-.3.2-.6-.2-.1-.4-.3-.6-.7h-.7c-.5,0-1.1-.3-1.4-.7-.4-.4-.6-.9-.6-1.5ZM11.8,13.9c0-.2,0-.4,0-.6,0-.2.1-.4.2-.5,0-.1.1-.3.2-.5,0-.2.2-.3.2-.4h.4c.3,0,.5.1.7.3h0c0,.1,1.4,2.7,1.4,2.7l4.8,5.4h0c.2.3.2.6,0,.9-.2.3-.4.5-.8.5h-5.9c.2-.2.3-.3.5-.4.1-.1.3-.3.5-.5.2-.2.3-.4.4-.6,0-.2.2-.4.2-.7,0-.3,0-.6,0-.8,0-.3-.2-.6-.4-.9-.2-.3-.5-.6-.8-.9-.4-.3-.7-.6-.9-.9-.2-.3-.4-.6-.6-.8-.1-.2-.2-.5-.3-.7,0-.2,0-.4,0-.6Z"/>
</svg>